<svg width="801" height="724" viewBox="0 0 801 724" fill="none" xmlns="http://www.w3.org/2000/svg">
<path d="M772.51 70.2429C709.852 70.2429 656.231 41.5479 634.184 0.901367C612.136 41.548 558.515 70.2429 495.857 70.2429C486.835 70.2462 477.822 69.6407 468.872 68.43V290.313C468.872 316.104 475.21 341.44 487.251 363.775C499.291 386.11 516.609 404.657 537.463 417.552L634.184 477.359L730.904 417.552C751.759 404.657 769.076 386.11 781.117 363.775C793.157 341.44 799.496 316.104 799.495 290.313V68.43C790.545 69.6407 781.532 70.2462 772.51 70.2429V70.2429Z" fill="#EDEEEF"/>
<path d="M730.904 417.552C751.759 404.657 769.076 386.11 781.117 363.775C793.157 341.44 799.496 316.104 799.496 290.313V68.4302C790.545 69.6408 781.532 70.2463 772.51 70.243C709.852 70.243 656.231 41.5481 634.184 0.901367V477.359L730.904 417.552Z" fill="#D6D6D6"/>
<path d="M634.184 477.359L730.904 417.552C751.759 404.657 769.076 386.11 781.117 363.775C793.157 341.44 799.496 316.104 799.496 290.313V68.4302C790.545 69.6408 781.532 70.2463 772.51 70.243C709.852 70.243 656.231 41.5481 634.184 0.901367" stroke="black" stroke-width="1.5" stroke-miterlimit="10"/>
<path d="M498.531 683.698H448.484V661.021H397.349V634.219L359.27 598.139H301.607V494.026H226.536V365.172L131.882 454.854V625.972H81.8349V701.771H61.1629V680.606H24.1719V722.936H523.555V707.408L498.531 683.698Z" fill="#F4F4F4"/>
<path d="M0.236084 722.937H547.49" stroke="black" stroke-width="1.5" stroke-miterlimit="10"/>
<path d="M232.324 520.109H239.161V526.588H232.324V520.109Z" fill="white"/>
<path d="M248.961 520.109H255.799V526.588H248.961V520.109Z" fill="white"/>
<path d="M265.599 520.109H272.437V526.588H265.599V520.109Z" fill="white"/>
<path d="M232.324 537.576H239.161V544.054H232.324V537.576Z" fill="white"/>
<path d="M248.961 537.576H255.799V544.054H248.961V537.576Z" fill="white"/>
<path d="M265.599 537.576H272.437V544.054H265.599V537.576Z" fill="white"/>
<path d="M232.324 555.043H239.161V561.521H232.324V555.043Z" fill="white"/>
<path d="M248.961 555.043H255.799V561.521H248.961V555.043Z" fill="white"/>
<path d="M265.599 555.043H272.437V561.521H265.599V555.043Z" fill="white"/>
<path d="M232.324 572.51H239.161V578.988H232.324V572.51Z" fill="white"/>
<path d="M248.961 572.51H255.799V578.988H248.961V572.51Z" fill="white"/>
<path d="M265.599 572.51H272.437V578.988H265.599V572.51Z" fill="white"/>
<path d="M232.324 589.977H239.161V596.455H232.324V589.977Z" fill="white"/>
<path d="M248.961 589.977H255.799V596.455H248.961V589.977Z" fill="white"/>
<path d="M265.599 589.977H272.437V596.455H265.599V589.977Z" fill="white"/>
<path d="M232.324 607.443H239.161V613.922H232.324V607.443Z" fill="white"/>
<path d="M248.961 607.443H255.799V613.922H248.961V607.443Z" fill="white"/>
<path d="M265.599 607.443H272.437V613.922H265.599V607.443Z" fill="white"/>
<path d="M232.324 624.91H239.161V631.388H232.324V624.91Z" fill="white"/>
<path d="M248.961 624.91H255.799V631.388H248.961V624.91Z" fill="white"/>
<path d="M265.599 624.91H272.437V631.388H265.599V624.91Z" fill="white"/>
<path d="M232.324 642.377H239.161V648.855H232.324V642.377Z" fill="white"/>
<path d="M248.961 642.377H255.799V648.855H248.961V642.377Z" fill="white"/>
<path d="M265.599 642.377H272.437V648.855H265.599V642.377Z" fill="white"/>
<path d="M232.324 659.844H239.161V666.322H232.324V659.844Z" fill="white"/>
<path d="M248.961 659.844H255.799V666.322H248.961V659.844Z" fill="white"/>
<path d="M265.599 659.844H272.437V666.322H265.599V659.844Z" fill="white"/>
<path d="M379.289 294.825L315.567 284.218C315.567 284.218 268.613 524.145 293.811 703.139L286.378 720.794H370.805L394.777 447.77L379.289 294.825Z" fill="#E2E2E2"/>
<path d="M336.914 289.837C336.914 289.837 320.765 572.141 366.378 705.802L356.85 720.794H437.978C437.978 720.794 446.841 361.72 446.841 284.218L336.914 289.837Z" fill="#EDEEEF"/>
<path d="M336.914 289.838C336.914 289.838 320.765 572.142 366.378 705.803L356.85 720.795" stroke="black" stroke-width="1.5" stroke-miterlimit="10"/>
<path d="M394.777 71.4157V108.104L352.34 119.274V57.361L394.777 46.1904V71.4157Z" fill="#EDEEEF"/>
<path d="M370.805 84.1091C371.431 84.1091 371.939 83.5651 371.939 82.8939C371.939 82.2228 371.431 81.6787 370.805 81.6787C370.178 81.6787 369.67 82.2228 369.67 82.8939C369.67 83.5651 370.178 84.1091 370.805 84.1091Z" fill="black"/>
<path d="M388.232 84.1091C388.859 84.1091 389.367 83.5651 389.367 82.8939C389.367 82.2228 388.859 81.6787 388.232 81.6787C387.606 81.6787 387.098 82.2228 387.098 82.8939C387.098 83.5651 387.606 84.1091 388.232 84.1091Z" fill="black"/>
<path d="M383.119 90.1426V71.415H391.879" stroke="black" stroke-width="1.5" stroke-miterlimit="10"/>
<path d="M368.667 71.415H377.427" stroke="black" stroke-width="1.5" stroke-miterlimit="10"/>
<path d="M355.135 81.0111V87.5145C353.562 87.5145 352.054 86.8453 350.942 85.654C349.829 84.4628 349.205 82.8472 349.205 81.1626C349.205 80.9677 349.213 80.7749 349.229 80.5844C349.561 76.6401 355.135 77.0507 355.135 81.0111V81.0111Z" fill="#EDEEEF"/>
<path d="M355.135 87.514C353.562 87.514 352.054 86.8448 350.942 85.6536C349.829 84.4624 349.205 82.8467 349.205 81.1621" stroke="black" stroke-width="1.5" stroke-miterlimit="10"/>
<path d="M379.288 94.759C377.696 94.759 376.169 94.0817 375.044 92.876C373.918 91.6704 373.285 90.0351 373.285 88.3301" stroke="#FF6498" stroke-width="1.5" stroke-linecap="round" stroke-linejoin="round"/>
<path d="M394.777 108.103L352.34 119.273" stroke="black" stroke-width="1.5" stroke-miterlimit="10"/>
<path d="M383.119 90.1572L379.288 91.1657" stroke="black" stroke-width="1.5" stroke-miterlimit="10" stroke-linecap="round"/>
<path d="M315.567 184.972V284.218L446.841 318.773V208.241C446.841 189.196 440.878 170.701 429.907 155.713C418.936 140.725 403.589 130.11 386.321 125.564H386.321C377.91 123.35 369.139 123.213 360.671 125.165C352.204 127.116 344.261 131.104 337.445 136.828C330.629 142.551 325.117 149.859 321.327 158.2C317.536 166.541 315.567 175.696 315.567 184.972L315.567 184.972Z" fill="#6E8EC8"/>
<path d="M394.777 68.3487C394.777 66.8026 410.443 39.385 371.94 38.8137C333.436 38.2425 352.17 77.8247 352.17 77.8247" stroke="black" stroke-width="1.5" stroke-miterlimit="10"/>
<path d="M355.135 73.1575C355.135 73.1575 360.77 64.1612 361.17 60.5198C361.17 60.5198 388.716 60.9482 393.243 54.0938" stroke="black" stroke-width="1.5" stroke-miterlimit="10"/>
<path d="M349.598 153.428L330.77 258.441L337.703 277.861L355.135 261.868L353.97 154.196L360.103 144.771H345.436L349.598 153.428Z" fill="black"/>
<path d="M420.33 144.771C420.33 144.771 575.57 306.421 408.37 408.38L390.49 378.392L426.77 277.861L391.879 225.882" stroke="black" stroke-width="1.5" stroke-miterlimit="10"/>
<path d="M408.37 408.381L373.632 350.118" stroke="black" stroke-width="1.5" stroke-miterlimit="10"/>
<path d="M325.749 150.073C325.749 150.073 249.559 276.615 301.631 372.628" stroke="black" stroke-width="1.5" stroke-miterlimit="10"/>
<path d="M566.261 249.031L576.161 238.429L626.667 292.521L616.768 303.124L566.261 249.031Z" fill="#6E8EC8"/>
<path d="M716.47 175.138L726.369 185.74L616.768 303.123L606.868 292.521L716.47 175.138Z" fill="#6E8EC8"/>
<path d="M145.754 4.94538C134.617 4.92419 123.929 9.64195 116.04 18.0608C108.151 26.4797 103.708 37.9101 103.688 49.8374L187.67 49.9974C187.69 38.0701 183.285 26.6229 175.424 18.174C167.563 9.72506 156.891 4.9666 145.754 4.94538V4.94538Z" fill="#EDEEEF"/>
<path d="M233.229 24.4444C226.88 24.4323 220.786 27.122 216.288 31.9219C211.791 36.7217 209.258 43.2385 209.246 50.0386L257.127 50.1298C257.132 46.7627 256.518 43.4275 255.32 40.3144C254.123 37.2013 252.364 34.3715 250.145 31.9863C247.926 29.6012 245.29 27.7076 242.387 26.4135C239.485 25.1195 236.373 24.4504 233.229 24.4444V24.4444Z" fill="#EDEEEF"/>
<path d="M187.748 2.9698C176.102 2.94764 164.925 7.88108 156.676 16.6848C148.426 25.4886 143.78 37.4415 143.76 49.9141L231.58 50.0815C231.601 37.6089 226.995 25.6383 218.774 16.8031C210.554 7.96798 199.394 2.99199 187.748 2.9698V2.9698Z" fill="#EDEEEF"/>
<path d="M95.9727 49.8232L268.582 50.1521" stroke="black" stroke-width="1.5" stroke-miterlimit="10"/>
<path d="M230.964 103.5C240.195 103.482 249.054 107.393 255.593 114.371C262.132 121.349 265.815 130.824 265.831 140.71L196.221 140.843C196.204 130.956 199.856 121.468 206.371 114.465C212.887 107.462 221.733 103.518 230.964 103.5V103.5Z" fill="#EDEEEF"/>
<path d="M158.458 119.662C163.721 119.652 168.772 121.882 172.5 125.86C176.228 129.839 178.327 135.24 178.337 140.877L138.65 140.952C138.645 138.161 139.154 135.397 140.147 132.816C141.14 130.236 142.598 127.89 144.437 125.914C146.276 123.937 148.461 122.367 150.867 121.294C153.273 120.222 155.852 119.667 158.458 119.662V119.662Z" fill="#EDEEEF"/>
<path d="M196.156 101.862C205.809 101.844 215.073 105.933 221.911 113.23C228.749 120.528 232.6 130.435 232.617 140.773L159.825 140.912C159.807 130.574 163.625 120.652 170.439 113.329C177.252 106.005 186.503 101.881 196.156 101.862V101.862Z" fill="#EDEEEF"/>
<path d="M272.227 140.697L129.155 140.97" stroke="black" stroke-width="1.5" stroke-miterlimit="10"/>
<path d="M682.186 536.107C676.581 530.591 672.315 523.696 669.756 516.018C666.655 506.842 660.99 498.911 653.53 493.307C646.071 487.702 637.181 484.695 628.069 484.695C618.957 484.695 610.066 487.702 602.607 493.307C595.148 498.911 589.482 506.842 586.381 516.018C583.822 523.696 579.556 530.591 573.951 536.107C566.844 543.049 562.037 552.277 560.256 562.401C558.475 572.524 559.817 582.993 564.079 592.229C568.34 601.464 575.291 608.964 583.882 613.598C592.472 618.232 602.237 619.748 611.703 617.917C622.526 615.824 633.611 615.824 644.435 617.917C653.903 619.758 663.673 618.248 672.269 613.616C680.866 608.984 687.821 601.482 692.085 592.243C696.348 583.003 697.688 572.529 695.903 562.402C694.117 552.275 689.302 543.045 682.186 536.107H682.186Z" fill="#6E8EC8"/>
<path d="M611.703 617.917C622.526 615.824 633.612 615.824 644.435 617.917C650.821 619.152 657.382 618.871 663.656 617.095C669.929 615.318 675.763 612.088 680.744 607.634C685.725 603.18 689.734 597.609 692.486 591.315C695.238 585.021 696.667 578.157 696.673 571.207" stroke="black" stroke-width="1.5" stroke-miterlimit="10"/>
<path d="M539.298 722.937H716.84" stroke="black" stroke-width="1.5" stroke-miterlimit="10"/>
<path d="M628.069 584.979V722.937" stroke="black" stroke-width="1.5" stroke-miterlimit="10"/>
<path d="M646.872 564.842L628.069 584.98L609.266 564.842" stroke="black" stroke-width="1.5" stroke-miterlimit="10"/>
<path d="M553.812 618.479C550.679 615.395 548.293 611.54 546.863 607.247C545.129 602.117 541.961 597.683 537.791 594.549C533.62 591.416 528.649 589.734 523.555 589.734C518.46 589.734 513.49 591.416 509.319 594.549C505.148 597.683 501.981 602.117 500.247 607.247C498.816 611.54 496.431 615.395 493.297 618.479C489.324 622.36 486.636 627.52 485.64 633.18C484.645 638.84 485.395 644.694 487.778 649.857C490.16 655.021 494.046 659.214 498.85 661.805C503.653 664.396 509.112 665.243 514.404 664.22C520.456 663.049 526.654 663.049 532.705 664.22C537.999 665.249 543.462 664.405 548.268 661.815C553.074 659.225 556.963 655.031 559.347 649.865C561.731 644.699 562.48 638.843 561.481 633.181C560.483 627.518 557.791 622.358 553.812 618.479Z" fill="#6E8EC8"/>
<path d="M514.404 664.22C520.456 663.049 526.654 663.049 532.705 664.22C536.276 664.91 539.944 664.753 543.452 663.76C546.959 662.766 550.221 660.961 553.006 658.47C555.791 655.98 558.032 652.865 559.571 649.346C561.109 645.827 561.909 641.989 561.912 638.104" stroke="black" stroke-width="1.5" stroke-miterlimit="10"/>
<path d="M523.555 645.803V722.936" stroke="black" stroke-width="1.5" stroke-miterlimit="10"/>
<path d="M534.068 634.544L523.555 645.803L513.042 634.544" stroke="black" stroke-width="1.5" stroke-miterlimit="10"/>
</svg>
