<svg width="560" height="420" viewBox="0 0 560 420" fill="none" xmlns="http://www.w3.org/2000/svg">
<path d="M560 278.33V283.712C560.009 292.424 558.109 301.057 554.402 309.147C553.951 310.126 553.476 311.093 552.978 312.047C552.188 313.55 551.344 315.024 550.446 316.468C550.15 316.939 549.853 317.404 549.545 317.864C545.504 323.969 540.412 329.495 534.446 334.25C534.173 334.472 533.894 334.69 533.615 334.907L533.532 334.969L532.578 335.693C528.144 339.015 523.296 341.892 518.125 344.271C516.714 344.922 515.273 345.538 513.814 346.111C510.922 347.256 507.951 348.242 504.918 349.064C504.2 349.26 503.477 349.446 502.753 349.622C501.01 350.051 499.248 350.429 497.457 350.749C492.19 351.698 486.824 352.174 481.445 352.171H449.628C447.501 352.171 445.395 352.537 443.429 353.247C441.464 353.957 439.678 354.997 438.174 356.309C436.67 357.621 435.477 359.178 434.664 360.892C433.85 362.606 433.432 364.443 433.432 366.298V418.991H162.553V366.298C162.557 363.668 161.716 361.091 160.126 358.856C158.536 356.622 156.261 354.82 153.557 353.655C153.134 353.464 152.701 353.292 152.258 353.138C150.37 352.488 148.358 352.156 146.328 352.161H92.77C91.9219 352.161 91.0857 352.161 90.2436 352.13C85.6165 352.008 81.0096 351.543 76.4731 350.739C74.69 350.425 72.9287 350.06 71.1891 349.643C66.3259 348.48 61.5985 346.922 57.0687 344.989C56.4757 344.746 55.936 344.503 55.3726 344.245C50.0853 341.867 45.1134 338.991 40.5465 335.667L40.2381 335.444C40.0127 335.279 39.7874 335.114 39.568 334.927L38.625 334.209C37.4033 333.273 36.2173 332.296 35.0668 331.292C30.4212 327.243 26.3513 322.72 22.9449 317.823C21.6343 315.941 20.4186 314.002 19.3155 312.006C18.7818 311.055 18.2717 310.083 17.7973 309.105C15.6526 304.779 14.0135 300.275 12.9047 295.662C10.9172 287.358 10.6321 278.814 12.0626 270.424C12.2227 269.447 12.4184 268.48 12.6556 267.518C12.7386 267.12 12.8335 266.722 12.9284 266.329C13.0648 265.734 13.219 265.145 13.3791 264.555C13.7982 263.004 14.2786 261.47 14.8202 259.953C15.1207 259.105 15.4409 258.262 15.7809 257.425C17.8519 252.273 20.6023 247.349 23.9768 242.751C27.7314 237.63 32.2194 232.947 37.3322 228.816C38.5716 227.813 39.8467 226.841 41.1573 225.915C41.7504 225.491 42.3434 225.083 42.9365 224.684C44.6879 223.502 46.4987 222.382 48.3687 221.324C55.4094 217.324 63.12 214.303 71.2247 212.368C73.5613 211.81 75.9334 211.342 78.3412 210.967C80.1322 210.681 81.9429 210.451 83.7735 210.279C85.8373 210.083 87.9248 209.948 90.042 209.891C90.9552 209.891 91.8745 209.85 92.7937 209.85H155.656C159.361 209.854 163.002 209.01 166.214 207.402C169.427 205.794 172.099 203.479 173.964 200.688C174.201 200.346 174.42 199.995 174.622 199.653C174.961 199.066 175.263 198.464 175.529 197.849C176.331 195.977 176.777 194.003 176.852 192.006C176.852 191.954 176.852 191.903 176.852 191.851C176.852 191.696 176.852 191.536 176.852 191.375C176.852 191.303 176.852 191.23 176.852 191.163C176.852 191.096 176.852 191.05 176.852 190.993C176.82 189.725 176.635 188.463 176.3 187.228C176.047 186.236 175.692 185.265 175.239 184.328C174.87 183.542 174.438 182.78 173.946 182.047C172.376 179.705 170.233 177.693 167.671 176.153C165.109 174.613 162.189 173.584 159.12 173.138C158.942 173.113 158.77 173.087 158.592 173.071C157.61 172.947 156.619 172.887 155.627 172.89H49.5785H48.3332C35.6166 172.632 23.5061 168.1 14.5296 160.243C13.9781 159.762 13.4384 159.271 12.9165 158.769C8.89694 154.92 5.70489 150.471 3.49307 145.636C3.05817 144.684 2.66281 143.718 2.30698 142.735C0.148937 136.78 -0.505721 130.488 0.38794 124.291C1.2816 118.094 3.70242 112.14 7.48426 106.835C8.16428 105.874 8.89373 104.94 9.67259 104.033C10.5147 103.03 11.4082 102.063 12.3532 101.132C12.537 100.946 12.7268 100.76 12.9462 100.579C13.4681 100.062 14.0077 99.5863 14.5593 99.1054C23.5358 91.2479 35.6463 86.7168 48.3628 86.4581H49.6082C57.2433 86.4669 64.7289 84.6132 71.2187 81.1065C73.7875 79.714 76.1739 78.0807 78.3353 76.2357C82.8682 72.3747 86.3182 67.6538 88.417 62.4405C88.7966 61.4943 89.1346 60.5222 89.4193 59.5398C89.6624 58.7177 89.8759 57.8903 90.0479 57.0475C90.4872 54.9301 90.7075 52.7826 90.7062 50.6308V14.1262C90.7054 12.2713 91.1237 10.4345 91.9373 8.72071C92.7509 7.00688 93.9438 5.44958 95.4478 4.13778C96.9518 2.82598 98.7375 1.78537 100.703 1.0754C102.668 0.365434 104.775 1.40055e-05 106.902 1.41299e-05H484.399C492.251 -0.00552622 499.991 1.6183 506.981 4.73726C513.97 7.85623 520.008 12.3808 524.595 17.9369C525.082 18.5057 525.538 19.09 525.977 19.6794C526.262 20.062 526.57 20.4447 526.813 20.8376C530.814 26.5999 533.216 33.0967 533.83 39.8111C534.444 46.5255 533.251 53.2721 530.348 59.5139C529.891 60.4963 529.387 61.4633 528.847 62.4146C523.669 71.4882 515.009 78.6941 504.372 82.7817C502.596 83.4626 500.774 84.0497 498.916 84.5398C494.204 85.7985 489.303 86.4363 484.375 86.4322H444.048C441.338 86.4294 438.64 86.7601 436.036 87.4146C435.17 87.637 434.316 87.8903 433.486 88.1747C432.372 88.5559 431.286 88.998 430.236 89.4984C429.489 89.8552 428.759 90.243 428.054 90.6566C423.875 93.1092 420.5 96.4683 418.262 100.403C418.126 100.641 417.996 100.879 417.871 101.122C417.371 102.063 416.943 103.032 416.59 104.023C415.721 106.462 415.285 109.002 415.297 111.556C415.295 115.692 416.465 119.763 418.703 123.41C420.941 127.056 424.177 130.163 428.125 132.456C429.827 133.452 431.649 134.284 433.557 134.938C436.92 136.094 440.504 136.685 444.119 136.68C444.647 136.68 445.169 136.68 445.691 136.711C452.005 136.929 458.15 138.553 463.541 141.427C464.182 141.763 464.804 142.115 465.415 142.487L465.789 142.72C466.896 143.403 467.958 144.142 468.968 144.933C469.258 145.155 469.561 145.388 469.828 145.62C473.516 148.662 476.452 152.328 478.457 156.394C480.462 160.46 481.493 164.84 481.487 169.266V191.499C481.476 196.214 483.148 200.814 486.272 204.663C489.395 208.512 493.814 211.418 498.916 212.978C499.266 213.087 499.622 213.185 499.978 213.278C501.389 213.645 502.848 214.048 504.349 214.503C507.367 215.398 510.54 216.468 513.784 217.735C519.57 219.973 525.079 222.72 530.223 225.936C531.611 226.81 532.987 227.73 534.333 228.702L534.517 228.836C536.296 230.134 538.075 231.53 539.765 233.014C543.159 235.981 546.184 239.251 548.791 242.771C552.155 247.324 554.776 252.263 556.578 257.446C556.871 258.273 557.143 259.116 557.396 259.974C557.841 261.463 558.239 262.999 558.583 264.576C558.788 265.548 558.972 266.535 559.134 267.539C559.288 268.49 559.425 269.462 559.526 270.444C559.838 273.064 559.996 275.696 560 278.33V278.33Z" fill="#F0F3F9"/>
<path opacity="0.11" d="M526.789 20.8117H90.6765V17.911H524.595C525.081 18.4798 525.538 19.0641 525.977 19.6535C526.262 20.0361 526.54 20.4188 526.789 20.8117Z" fill="#34629B"/>
<path opacity="0.11" d="M530.348 59.5139C529.891 60.4963 529.387 61.4632 528.847 62.4146H88.3875C88.767 61.4684 89.105 60.4963 89.3897 59.5139H530.348Z" fill="#34629B"/>
<path opacity="0.11" d="M417.877 101.122C417.377 102.063 416.949 103.032 416.596 104.023H9.65491C10.497 103.02 11.3906 102.053 12.3355 101.122H417.877Z" fill="#34629B"/>
<path opacity="0.11" d="M469.81 145.626H3.48724C3.05234 144.674 2.65697 143.707 2.30115 142.725H465.771C466.879 143.409 467.94 144.147 468.95 144.938C469.264 145.16 469.525 145.393 469.81 145.626V145.626Z" fill="#34629B"/>
<path opacity="0.11" d="M481.469 184.333V187.228H176.3C176.047 186.236 175.692 185.265 175.239 184.328L481.469 184.333Z" fill="#34629B"/>
<path opacity="0.11" d="M534.541 228.836H37.3145C38.5539 227.833 39.829 226.861 41.1396 225.936H530.247C531.635 226.81 533.011 227.73 534.357 228.702L534.541 228.836Z" fill="#34629B"/>
<path opacity="0.11" d="M559.543 270.444H12.0685C12.2286 269.467 12.4243 268.5 12.6615 267.539H559.152C559.306 268.49 559.442 269.441 559.543 270.444Z" fill="#34629B"/>
<path opacity="0.11" d="M554.396 309.147C553.945 310.126 553.471 311.093 552.972 312.047H19.3214C18.7877 311.096 18.2777 310.124 17.8032 309.147H554.396Z" fill="#34629B"/>
<path opacity="0.11" d="M497.463 350.749C492.196 351.698 486.83 352.174 481.451 352.171H449.629C447.119 352.168 444.643 352.676 442.399 353.655H153.557C153.134 353.464 152.701 353.292 152.258 353.138C150.37 352.488 148.358 352.156 146.328 352.161H92.77C91.9219 352.161 91.0858 352.161 90.2436 352.13C85.6165 352.008 81.0097 351.543 76.4731 350.739L497.463 350.749Z" fill="#34629B"/>
<path opacity="0.11" d="M162.553 392.358H433.432V395.258H162.553V392.358Z" fill="#34629B"/>
<path d="M243.818 284.746H410.108V419.757H243.818V284.746Z" fill="#547DBA"/>
<path d="M384.844 158.175H389.476C426.878 158.175 462.749 171.129 489.196 194.188C515.644 217.247 530.502 248.522 530.502 281.132V284.752H243.818V281.132C243.818 248.522 258.676 217.247 285.124 194.188C311.571 171.129 347.442 158.175 384.844 158.175V158.175Z" fill="#547DBA"/>
<path d="M530.502 281.132V284.752H460.962V281.132C460.962 222.968 414.639 174.235 352.399 161.453C363.038 159.267 373.932 158.167 384.862 158.175H389.494C467.366 158.175 530.502 213.226 530.502 281.132Z" fill="#34629B"/>
<path d="M243.818 284.746V419.751H200.615C198.57 419.751 196.609 419.043 195.164 417.783C193.718 416.522 192.906 414.812 192.906 413.03V329.116C192.906 317.347 198.268 306.06 207.812 297.738C217.357 289.416 230.302 284.741 243.801 284.741L243.818 284.746Z" fill="#BBD7FF"/>
<path d="M209.712 23.6247V232.518C209.716 233.63 209.469 234.732 208.984 235.761C208.498 236.789 207.785 237.724 206.885 238.513C205.985 239.301 204.916 239.926 203.738 240.354C202.56 240.781 201.298 241.002 200.022 241.003H99.7205C98.4462 241.004 97.1842 240.785 96.0067 240.36C94.8292 239.936 93.7594 239.313 92.8583 238.527C91.9572 237.741 91.2426 236.808 90.7553 235.782C90.268 234.755 90.0175 233.655 90.0183 232.544V209.912C90.9316 209.912 91.8508 209.871 92.77 209.871H155.633C159.337 209.875 162.978 209.031 166.191 207.423C169.404 205.815 172.076 203.499 173.94 200.708C174.177 200.367 174.397 200.015 174.598 199.674C174.937 199.087 175.24 198.485 175.506 197.87C176.307 195.997 176.754 194.024 176.828 192.027V190.993C176.728 186.681 174.901 182.535 171.664 179.274C168.426 176.013 163.982 173.843 159.102 173.139C158.924 173.113 158.752 173.087 158.574 173.071C157.592 172.947 156.601 172.887 155.609 172.89H90.0183V23.6247C90.0175 22.5136 90.268 21.4133 90.7553 20.3867C91.2426 19.3601 91.9572 18.4273 92.8583 17.6416C93.7594 16.856 94.8292 16.2329 96.0067 15.8081C97.1842 15.3832 98.4462 15.1648 99.7205 15.1655H200.022C202.593 15.1683 205.058 16.0607 206.875 17.6468C208.692 19.2329 209.712 21.383 209.712 23.6247V23.6247Z" fill="#6E8EC8"/>
<path d="M197.941 35.5998V220.553C197.939 222.796 196.916 224.947 195.097 226.533C193.278 228.119 190.811 229.011 188.238 229.012H111.492C108.919 229.012 106.452 228.121 104.632 226.535C102.812 224.948 101.79 222.797 101.79 220.553V209.871H155.662C159.367 209.875 163.008 209.031 166.221 207.423C169.433 205.815 172.106 203.499 173.97 200.708C174.207 200.367 174.426 200.015 174.628 199.674C174.967 199.087 175.269 198.485 175.535 197.87C176.337 195.997 176.783 194.024 176.858 192.027V190.993C176.758 186.681 174.931 182.535 171.694 179.274C168.456 176.013 164.012 173.842 159.132 173.138C158.954 173.113 158.782 173.087 158.604 173.071C157.622 172.947 156.631 172.887 155.639 172.89H101.79V35.5998C101.79 34.4889 102.041 33.3889 102.529 32.3626C103.016 31.3363 103.731 30.4038 104.632 29.6183C105.533 28.8327 106.602 28.2097 107.78 27.7845C108.957 27.3594 110.218 27.1406 111.492 27.1406H188.238C190.812 27.1406 193.279 28.0319 195.099 29.6183C196.918 31.2046 197.941 33.3563 197.941 35.5998V35.5998Z" fill="#E9F1FF"/>
<path d="M197.94 56.877V220.553C197.939 222.796 196.916 224.947 195.097 226.533C193.278 228.119 190.811 229.011 188.238 229.012H130.749V209.881H155.656C159.361 209.885 163.002 209.041 166.215 207.433C169.427 205.825 172.1 203.51 173.964 200.719C174.201 200.377 174.42 200.026 174.622 199.684C174.961 199.097 175.264 198.495 175.529 197.88C176.331 196.008 176.777 194.034 176.852 192.037V191.003C176.752 186.691 174.925 182.545 171.688 179.284C168.45 176.023 164.006 173.853 159.126 173.149C158.948 173.123 158.776 173.097 158.598 173.082C157.616 172.958 156.625 172.897 155.633 172.901H130.725V146.587C130.725 145.765 131.1 144.975 131.767 144.394C132.434 143.812 133.339 143.485 134.283 143.485H152.786C153.73 143.485 154.635 143.158 155.302 142.576C155.969 141.994 156.344 141.205 156.344 140.383V59.9793C156.344 59.1565 156.719 58.3674 157.387 57.7856C158.054 57.2038 158.959 56.877 159.903 56.877H197.94Z" fill="#CDDCF5"/>
<path d="M138.986 154.555H143.446V158.443H138.986V154.555Z" fill="#E9F1FF"/>
<path d="M138.986 171.949H143.446V172.895H138.986V171.949Z" fill="#E9F1FF"/>
<path d="M138.986 209.871H143.446V210.626H138.986V209.871Z" fill="#E9F1FF"/>
<path d="M138.986 224.131H143.446V228.019H138.986V224.131Z" fill="#E9F1FF"/>
<path d="M158.604 171.572V173.076C157.622 172.952 156.631 172.892 155.639 172.895H154.12V171.572H158.604Z" fill="#E9F1FF"/>
<path d="M164.344 63.0247H168.804V66.913H164.344V63.0247Z" fill="#E9F1FF"/>
<path d="M164.344 87.3629H168.804V91.2512H164.344V87.3629Z" fill="#E9F1FF"/>
<path d="M164.344 111.696H168.804V115.584H164.344V111.696Z" fill="#E9F1FF"/>
<path d="M164.344 136.034H168.804V139.922H164.344V136.034Z" fill="#E9F1FF"/>
<path d="M164.344 160.367H168.804V164.255H164.344V160.367Z" fill="#E9F1FF"/>
<path d="M164.344 209.038H168.804V212.926H164.344V209.038Z" fill="#E9F1FF"/>
<path d="M174.628 76.1788H179.088V80.0671H174.628V76.1788Z" fill="#E9F1FF"/>
<path d="M174.628 100.512H179.088V104.4H174.628V100.512Z" fill="#E9F1FF"/>
<path d="M174.628 124.85H179.088V128.738H174.628V124.85Z" fill="#E9F1FF"/>
<path d="M174.628 149.183H179.088V153.071H174.628V149.183Z" fill="#E9F1FF"/>
<path d="M174.628 173.516H179.088V177.404H174.628V173.516Z" fill="#E9F1FF"/>
<path d="M179.088 197.854V201.742H174.628V199.674C174.967 199.087 175.269 198.485 175.535 197.87L179.088 197.854Z" fill="#E9F1FF"/>
<path d="M174.628 222.187H179.088V226.075H174.628V222.187Z" fill="#E9F1FF"/>
<path d="M187.26 62.8024H191.719V66.6907H187.26V62.8024Z" fill="#E9F1FF"/>
<path d="M187.26 87.1354H191.719V91.0237H187.26V87.1354Z" fill="#E9F1FF"/>
<path d="M187.26 111.474H191.719V115.362H187.26V111.474Z" fill="#E9F1FF"/>
<path d="M187.26 135.806H191.719V139.695H187.26V135.806Z" fill="#E9F1FF"/>
<path d="M187.26 160.139H191.719V164.028H187.26V160.139Z" fill="#E9F1FF"/>
<path d="M187.26 184.478H191.719V188.366H187.26V184.478Z" fill="#E9F1FF"/>
<path d="M187.26 208.811H191.719V212.699H187.26V208.811Z" fill="#E9F1FF"/>
<path d="M176.858 192.011V233.511H173.97V200.708C174.207 200.367 174.426 200.015 174.628 199.674C174.967 199.087 175.269 198.485 175.535 197.87C176.339 195.992 176.785 194.014 176.858 192.011Z" fill="#6E8EC8"/>
<path d="M176.858 22.6422V190.998C176.793 187.849 175.798 184.768 173.97 182.053V22.6422H176.858Z" fill="#6E8EC8"/>
<path d="M120.483 22.6422H123.371V172.895H120.483V22.6422Z" fill="#6E8EC8"/>
<path d="M120.483 209.871H123.371V233.511H120.483V209.871Z" fill="#6E8EC8"/>
<path d="M207.833 39.6432V42.1613H90.5046V39.6432H207.833Z" fill="#6E8EC8"/>
<path d="M207.833 126.815V129.333H90.5046V126.815H207.833Z" fill="#6E8EC8"/>
<path d="M94.4897 97.7456H205.235V109.152H94.4897V97.7456Z" fill="#6E8EC8"/>
<path d="M436.083 87.4353C435.217 87.6576 434.363 87.911 433.533 88.1954C432.419 88.5766 431.334 89.0187 430.283 89.5191C429.536 89.8758 428.807 90.2636 428.101 90.6773C425.36 92.2631 422.953 94.2483 420.984 96.5459H284.092C282.706 96.5459 281.377 96.066 280.397 95.2117C279.418 94.3574 278.867 93.1988 278.867 91.9906C278.867 90.7825 279.418 89.6238 280.397 88.7695C281.377 87.9152 282.706 87.4353 284.092 87.4353H436.083Z" fill="#6285B7"/>
<path d="M257.008 396.122L262.938 302.316C263.251 297.582 261.394 292.934 257.776 289.394C254.158 285.854 249.076 283.712 243.646 283.438L243.101 283.407C237.671 283.135 232.34 284.754 228.28 287.908C224.219 291.062 221.762 295.494 221.449 300.227L215.518 394.033C215.471 394.753 215.754 395.461 216.304 395.999C216.855 396.538 217.628 396.865 218.454 396.908L253.71 398.681C254.537 398.722 255.348 398.476 255.966 397.996C256.584 397.516 256.959 396.842 257.008 396.122V396.122Z" fill="#015D76"/>
<path d="M250.996 395.11L250.526 408.082L220.183 407.246L220.654 394.274L250.996 395.11Z" fill="#015D76"/>
<path d="M245.787 283.616L321.335 286.815C323.524 286.907 325.58 287.754 327.053 289.169C328.525 290.583 329.292 292.45 329.186 294.358L328.847 300.437C328.479 307.047 325.114 313.259 319.493 317.706C313.872 322.153 306.454 324.472 298.873 324.151L243.666 321.813C237.853 321.567 232.391 319.318 228.48 315.56C224.57 311.803 222.531 306.845 222.813 301.777C223.096 296.709 225.675 291.946 229.985 288.536C234.295 285.127 239.982 283.35 245.795 283.596L245.787 283.616Z" fill="#015D76"/>
<path d="M237.532 410.377L207.678 411.804C207.544 410.082 207.803 408.354 208.441 406.719C209.079 405.085 210.083 403.578 211.394 402.284C212.706 400.991 214.299 399.938 216.081 399.186C217.863 398.434 219.799 397.998 221.776 397.903C223.753 397.809 225.732 398.058 227.598 398.635C229.463 399.213 231.179 400.108 232.645 401.269C234.111 402.429 235.298 403.832 236.137 405.395C236.975 406.959 237.45 408.652 237.532 410.377V410.377Z" fill="#015D76"/>
<path d="M204.654 414.979L204.6 410.987C204.589 410.154 204.943 409.347 205.59 408.733C206.236 408.119 207.128 407.744 208.082 407.683L247.317 405.165C247.957 405.125 248.598 405.199 249.203 405.383C249.809 405.567 250.364 405.858 250.836 406.236C251.307 406.614 251.685 407.073 251.946 407.583C252.207 408.093 252.345 408.645 252.352 409.203L252.447 416.597L204.654 414.979Z" fill="#015D76"/>
<path d="M252.423 414.395L252.453 416.794C252.458 417.157 252.38 417.518 252.225 417.855C252.07 418.192 251.84 418.499 251.549 418.759C251.258 419.019 250.911 419.226 250.527 419.369C250.144 419.512 249.733 419.587 249.316 419.591L206.86 420C206.179 420.006 205.503 419.896 204.87 419.675C204.238 419.454 203.662 419.126 203.175 418.711C202.688 418.295 202.3 417.8 202.033 417.254C201.765 416.708 201.624 416.121 201.617 415.527C201.609 414.933 201.736 414.343 201.989 413.792C202.243 413.24 202.619 412.738 203.095 412.313C203.571 411.888 204.139 411.549 204.766 411.315C205.392 411.082 206.066 410.958 206.747 410.951L218.638 410.837C219.818 410.828 220.955 411.227 221.799 411.947C222.643 412.667 223.125 413.65 223.139 414.679L252.423 414.395Z" fill="#015D76"/>
<path d="M259.262 230.482C251.097 229.298 243.377 234.108 242.018 241.226C240.659 248.344 246.176 255.075 254.341 256.26L306.37 263.811C314.535 264.996 322.255 260.185 323.614 253.067C324.973 245.949 319.456 239.218 311.291 238.033L259.262 230.482Z" fill="#F9A0B4"/>
<path d="M251.721 256.413C262.268 256.108 270.589 249.826 270.306 242.383C270.022 234.939 261.243 229.152 250.696 229.457C240.148 229.762 231.828 236.044 232.111 243.487C232.394 250.931 241.174 256.718 251.721 256.413Z" fill="#F9A0B4"/>
<path d="M262.832 230.775C263.33 231.006 263.772 231.32 264.132 231.699C264.491 232.079 264.761 232.517 264.926 232.987C265.092 233.458 265.149 233.952 265.095 234.442C265.041 234.932 264.876 235.408 264.611 235.843C264.346 236.278 263.985 236.663 263.549 236.976C263.113 237.29 262.611 237.525 262.071 237.67C261.53 237.814 260.963 237.863 260.4 237.816C259.838 237.769 259.292 237.625 258.793 237.394L246.979 231.892C246.481 231.662 246.039 231.348 245.679 230.968C245.32 230.589 245.05 230.151 244.885 229.68C244.719 229.21 244.662 228.715 244.716 228.225C244.771 227.735 244.935 227.26 245.2 226.825C245.465 226.39 245.825 226.005 246.26 225.692C246.696 225.378 247.197 225.143 247.737 224.999C248.277 224.854 248.844 224.805 249.406 224.852C249.968 224.899 250.514 225.043 251.012 225.274" fill="#F9A0B4"/>
<path d="M306.972 159.069C314.262 159.069 320.173 153.916 320.173 147.559C320.173 141.203 314.262 136.05 306.972 136.05C299.681 136.05 293.771 141.203 293.771 147.559C293.771 153.916 299.681 159.069 306.972 159.069Z" fill="#4F182E"/>
<path d="M305.827 159.023C305.525 159.023 305.234 158.971 304.908 158.924C301.448 158.444 298.348 156.786 296.29 154.313C294.233 151.84 293.386 148.756 293.937 145.739C294.487 142.722 296.39 140.02 299.226 138.226C302.062 136.432 305.599 135.694 309.059 136.174C309.368 136.215 309.652 136.262 309.961 136.324C306.636 136.078 303.328 136.939 300.702 138.733C298.077 140.528 296.327 143.123 295.807 145.996C295.286 148.869 296.032 151.808 297.896 154.221C299.759 156.634 302.601 158.342 305.851 159.002L305.827 159.023Z" fill="#622F2B"/>
<path d="M321.833 149.607C321.287 152.622 319.389 155.324 316.557 157.119C313.726 158.913 310.192 159.654 306.735 159.178C306.426 159.136 306.124 159.085 305.827 159.023C302.578 158.363 299.736 156.654 297.872 154.242C296.009 151.829 295.262 148.89 295.783 146.017C296.304 143.143 298.053 140.549 300.679 138.754C303.305 136.96 306.613 136.099 309.937 136.344C310.245 136.344 310.53 136.401 310.856 136.443C314.314 136.919 317.413 138.574 319.471 141.043C321.53 143.512 322.38 146.592 321.833 149.607Z" fill="#512522"/>
<path d="M349.582 200.124L314.96 205.455L310.714 184.483L308.478 173.413L343.1 168.087L344.766 176.324L349.582 200.124Z" fill="#FFB2BF"/>
<path d="M344.897 181.827L313.906 189.682C312.302 190.089 311.38 191.552 311.847 192.951L315.727 204.589C316.193 205.987 317.872 206.791 319.476 206.385L350.466 198.53C352.07 198.123 352.992 196.66 352.526 195.261L348.646 183.623C348.179 182.225 346.501 181.421 344.897 181.827Z" fill="#FFF2EE"/>
<path d="M312.307 235.418L379.001 238.326L375.281 303.186L308.588 300.279L312.307 235.418Z" fill="#FFF2EE"/>
<path d="M379.568 231.468C380.801 209.874 362.219 191.519 338.064 190.471C313.909 189.422 293.328 206.077 292.095 227.671C290.863 249.264 309.444 267.619 333.599 268.668C357.754 269.716 378.335 253.061 379.568 231.468Z" fill="#FFF2EE"/>
<path d="M335.918 268.728C335.153 268.728 334.388 268.728 333.617 268.681C309.462 267.647 290.882 249.276 292.104 227.683C293.326 206.091 313.916 189.421 338.071 190.481C338.806 190.512 339.536 190.563 340.259 190.626C317.131 190.698 297.791 206.97 296.599 227.854C295.407 248.738 312.843 266.701 335.918 268.728V268.728Z" fill="white"/>
<path d="M375.071 302.42C374.899 305.764 373.968 309.046 372.331 312.074C370.694 315.103 368.384 317.818 365.535 320.062C360.655 323.922 354.331 326.102 347.743 326.194H347.441C346.972 326.194 346.51 326.194 346.035 326.194L292.632 323.93C289.831 323.807 287.087 323.192 284.566 322.121C282.044 321.05 279.797 319.546 277.96 317.699C275.375 315.122 273.623 311.992 272.883 308.63C272.564 307.182 272.432 305.708 272.492 304.235C272.907 293.557 283.321 285.248 295.158 285.75L375.812 289.167L375.071 302.42Z" fill="#007391"/>
<path d="M308.235 315.884L307.529 316.556L299.517 324.203L258.597 363.257L220.779 399.333C219.965 400.106 218.834 400.566 217.632 400.613C216.43 400.659 215.256 400.288 214.368 399.581L190.385 380.45C189.945 380.099 189.588 379.677 189.335 379.206C189.083 378.736 188.939 378.226 188.912 377.707C188.885 377.188 188.975 376.67 189.178 376.181C189.381 375.693 189.693 375.244 190.094 374.86L204.683 360.961L262.149 306.153L277.569 291.453C281.286 287.906 286.467 285.792 291.972 285.575C297.478 285.359 302.856 287.059 306.924 290.3C310.992 293.541 313.417 298.058 313.665 302.858C313.913 307.658 311.964 312.347 308.247 315.894L308.235 315.884Z" fill="#007391"/>
<path d="M350.875 237.166C363.462 237.166 373.665 228.27 373.665 217.296C373.665 206.321 363.462 197.425 350.875 197.425C338.288 197.425 328.084 206.321 328.084 217.296C328.084 228.27 338.288 237.166 350.875 237.166Z" fill="#F9CABD"/>
<path d="M368.805 217.073C368.181 208.863 360.043 202.65 350.627 203.193C341.212 203.737 334.085 210.833 334.708 219.042L338.124 263.995C338.748 272.204 346.886 278.418 356.302 277.874C365.717 277.331 372.844 270.235 372.22 262.026L368.805 217.073Z" fill="#329DA3"/>
<path d="M354.053 278.443C364.728 278.443 373.381 270.899 373.381 261.592C373.381 252.286 364.728 244.741 354.053 244.741C343.379 244.741 334.726 252.286 334.726 261.592C334.726 270.899 343.379 278.443 354.053 278.443Z" fill="#F9CABD"/>
<path d="M354.454 276.917C362.725 277.179 369.674 271.545 369.974 264.334C370.275 257.122 363.813 251.064 355.542 250.802L302.831 249.133C294.56 248.871 287.611 254.505 287.311 261.716C287.011 268.928 293.472 274.986 301.744 275.248L354.454 276.917Z" fill="#FFB2BF"/>
<path d="M299.216 275.683C309.631 274.201 316.959 267.04 315.583 259.69C314.207 252.34 304.648 247.583 294.233 249.065C283.818 250.547 276.49 257.707 277.866 265.058C279.242 272.408 288.801 277.165 299.216 275.683Z" fill="#FFB2BF"/>
<path d="M294.238 272.468C296.591 272.189 298.24 270.302 297.921 268.252C297.603 266.202 295.437 264.765 293.084 265.043L279.814 266.612C277.461 266.89 275.812 268.777 276.131 270.827C276.449 272.878 278.615 274.314 280.968 274.036L294.238 272.468Z" fill="#FFB2BF"/>
<path d="M285.74 266.355C288.093 266.078 289.743 264.19 289.425 262.14C289.106 260.09 286.941 258.653 284.587 258.931L271.318 260.497C268.964 260.775 267.315 262.662 267.633 264.712C267.952 266.763 270.117 268.2 272.47 267.922L285.74 266.355Z" fill="#FFB2BF"/>
<path d="M291.56 258.163C293.913 257.885 295.562 255.998 295.243 253.947C294.924 251.897 292.758 250.461 290.405 250.739L277.136 252.307C274.783 252.585 273.133 254.473 273.452 256.523C273.771 258.573 275.937 260.01 278.29 259.732L291.56 258.163Z" fill="#FFB2BF"/>
<path d="M303.386 256.05C305.607 256.783 308.088 255.808 308.928 253.873C309.768 251.938 308.649 249.776 306.428 249.043L293.904 244.91C291.683 244.177 289.202 245.152 288.362 247.087C287.522 249.022 288.641 251.185 290.862 251.917L303.386 256.05Z" fill="#FFB2BF"/>
<path d="M347.709 268.196L347.71 268.191C347.817 265.605 345.501 263.433 342.535 263.339L321.265 262.665C318.299 262.572 315.808 264.591 315.7 267.177L315.7 267.182C315.592 269.768 317.909 271.94 320.875 272.034L342.145 272.707C345.11 272.801 347.602 270.781 347.709 268.196Z" fill="#FDC3CD"/>
<path d="M344.766 176.324C342.308 179.338 339.035 181.777 335.238 183.426C331.441 185.076 327.236 185.884 322.996 185.781L316.567 185.625C314.549 185.581 312.56 185.191 310.714 184.478L308.478 173.412L343.1 168.097L344.766 176.324Z" fill="#F9A0B4"/>
<path d="M313.736 131.77L334.539 132.267C338.268 132.356 341.804 133.734 344.369 136.096C346.934 138.458 348.317 141.612 348.215 144.863L347.687 161.651C347.498 167.624 344.596 173.286 339.62 177.393C334.643 181.5 328 183.716 321.15 183.554L314.712 183.4C310.591 183.302 306.684 181.78 303.85 179.17C301.016 176.56 299.487 173.075 299.6 169.482L300.44 142.744C300.535 139.752 301.988 136.914 304.482 134.856C306.975 132.798 310.304 131.688 313.736 131.77V131.77Z" fill="#FFB2BF"/>
<path d="M339.387 133.133C338.692 133.028 337.988 132.968 337.282 132.952L316.484 132.435C313.051 132.355 309.722 133.465 307.227 135.524C304.733 137.582 303.278 140.419 303.182 143.412L302.31 170.165C302.224 172.948 303.122 175.686 304.882 178.009C306.642 180.332 309.179 182.126 312.149 183.149C308.54 182.533 305.298 180.822 303.001 178.318C300.703 175.815 299.498 172.683 299.6 169.478L300.436 142.761C300.534 139.769 301.99 136.933 304.484 134.876C306.978 132.818 310.306 131.708 313.738 131.789L334.536 132.306C336.197 132.326 337.84 132.606 339.387 133.133V133.133Z" fill="#FDC3CD"/>
<path d="M318.155 159.342L317.639 159.33C307.598 159.09 299.234 165.993 298.959 174.748L298.742 181.648C298.467 190.403 306.384 197.695 316.426 197.935L316.941 197.947C326.983 198.187 335.346 191.284 335.621 182.529L335.838 175.629C336.114 166.874 328.196 159.582 318.155 159.342Z" fill="#622F2B"/>
<path d="M313.786 159.341L313.27 159.329C303.228 159.089 294.865 165.992 294.59 174.747L294.373 181.647C294.098 190.402 302.015 197.694 312.056 197.934L312.572 197.946C322.614 198.186 330.977 191.283 331.252 182.528L331.469 175.628C331.744 166.873 323.827 159.581 313.786 159.341Z" fill="#622F2B"/>
<path d="M314.26 197.916C313.703 197.947 313.139 197.952 312.576 197.942H312.06C307.239 197.827 302.667 196.047 299.351 192.994C296.034 189.94 294.245 185.863 294.375 181.66L294.595 174.757C294.656 172.671 295.189 170.617 296.162 168.711C297.136 166.805 298.531 165.085 300.268 163.65C302.005 162.215 304.05 161.092 306.285 160.347C308.52 159.602 310.901 159.249 313.293 159.307H313.809H314.225C309.702 159.564 305.452 161.285 302.309 164.131C299.165 166.978 297.353 170.745 297.228 174.695L297.014 181.598C296.869 185.744 298.593 189.775 301.817 192.826C305.041 195.877 309.508 197.704 314.26 197.916V197.916Z" fill="#774340"/>
<path d="M338.715 140.053L348.515 140.287C349.703 140.316 350.83 140.755 351.648 141.508C352.465 142.26 352.906 143.266 352.874 144.302L352.415 158.888C352.38 160.016 351.832 161.086 350.892 161.862C349.952 162.638 348.696 163.056 347.402 163.025L347.367 163.024C344.881 162.965 342.524 162.047 340.815 160.473C339.105 158.898 338.183 156.796 338.251 154.629L338.709 140.053L338.715 140.053Z" fill="#622F2B"/>
<path d="M346.255 164.56C350.752 164.56 354.398 161.382 354.398 157.461C354.398 153.54 350.752 150.362 346.255 150.362C341.758 150.362 338.113 153.54 338.113 157.461C338.113 161.382 341.758 164.56 346.255 164.56Z" fill="#FFB2BF"/>
<path d="M339.701 125.812L309.159 125.082C302.025 124.911 296.083 129.815 295.888 136.036L295.887 136.041C295.692 142.261 301.317 147.441 308.451 147.612L338.993 148.342C346.127 148.512 352.069 143.608 352.265 137.388L352.265 137.383C352.461 131.163 346.836 125.982 339.701 125.812Z" fill="#622F2B"/>
<path d="M333.526 130.118L315.06 129.676C310.745 129.573 307.151 132.538 307.033 136.299C306.914 140.06 310.317 143.193 314.632 143.296L333.098 143.737C337.413 143.84 341.007 140.875 341.126 137.114C341.244 133.353 337.842 130.221 333.526 130.118Z" fill="#774340"/>
<path d="M347.744 128.511C346.518 128.146 345.237 127.945 343.942 127.916L313.406 127.187C311.71 127.146 310.02 127.398 308.435 127.926C306.85 128.455 305.399 129.251 304.167 130.268C302.934 131.286 301.944 132.505 301.252 133.856C300.56 135.207 300.18 136.664 300.134 138.144V138.464C300.134 140.087 300.537 141.691 301.315 143.165C302.093 144.64 303.228 145.95 304.641 147.006C302.087 146.25 299.869 144.816 298.298 142.904C296.727 140.993 295.882 138.701 295.882 136.349C295.882 136.246 295.882 136.132 295.882 136.029C295.978 133.044 297.428 130.215 299.914 128.162C302.4 126.109 305.719 125 309.142 125.077L339.678 125.807C342.644 125.87 345.493 126.826 347.744 128.511V128.511Z" fill="#774340"/>
<path d="M311.153 163.728C311.144 164.974 311.7 166.173 312.701 167.063C312.825 167.172 312.956 167.275 313.086 167.373C314.046 168.073 315.256 168.459 316.508 168.464H316.727C318.082 168.473 319.39 168.036 320.392 167.242C321.394 166.448 322.017 165.354 322.136 164.178C322.136 164.054 322.136 163.919 322.136 163.79C322.138 163.67 322.113 163.551 322.062 163.44C322.011 163.328 321.935 163.227 321.838 163.142C321.741 163.057 321.626 162.989 321.499 162.943C321.372 162.897 321.236 162.874 321.098 162.875L312.202 162.823C312.065 162.822 311.929 162.845 311.803 162.89C311.676 162.935 311.56 163.002 311.463 163.086C311.365 163.17 311.288 163.27 311.234 163.38C311.181 163.49 311.153 163.608 311.153 163.728Z" fill="#962F4A"/>
<path d="M316.626 167.74C316.625 167.983 316.65 168.226 316.703 168.464C318.057 168.471 319.365 168.035 320.367 167.241C321.369 166.447 321.991 165.353 322.112 164.178C321.726 164.079 321.327 164.027 320.926 164.023C319.792 164.023 318.703 164.413 317.898 165.11C317.093 165.806 316.636 166.751 316.626 167.74V167.74Z" fill="#E1617F"/>
<path d="M312.404 162.823C312.439 163.749 314.064 164.493 316.075 164.509C318.085 164.524 319.716 163.79 319.763 162.864L312.404 162.823Z" fill="white"/>
<path d="M318.589 168.185C317.94 167.87 317.209 167.706 316.466 167.709C315.778 167.702 315.098 167.835 314.479 168.097C315.125 168.335 315.818 168.46 316.52 168.464H316.739C317.37 168.467 317.996 168.373 318.589 168.185V168.185Z" fill="white"/>
<path d="M324.472 158.614C325.494 158.614 326.323 157.892 326.323 157.001C326.323 156.11 325.494 155.388 324.472 155.388C323.45 155.388 322.622 156.11 322.622 157.001C322.622 157.892 323.45 158.614 324.472 158.614Z" fill="#592702"/>
<path d="M307.019 158.221C308.041 158.221 308.869 157.499 308.869 156.608C308.869 155.717 308.041 154.995 307.019 154.995C305.997 154.995 305.169 155.717 305.169 156.608C305.169 157.499 305.997 158.221 307.019 158.221Z" fill="#592702"/>
<path d="M349.279 157.575C349.293 158.236 349.082 158.886 348.674 159.443C348.266 160.001 347.678 160.441 346.984 160.708C346.817 160.766 346.636 160.788 346.458 160.771C346.279 160.755 346.107 160.7 345.958 160.612C345.809 160.525 345.687 160.407 345.602 160.268C345.517 160.13 345.473 159.976 345.472 159.819L345.383 155.45C345.379 155.285 345.423 155.123 345.511 154.977C345.599 154.831 345.727 154.708 345.885 154.617C346.043 154.527 346.224 154.473 346.412 154.46C346.6 154.447 346.789 154.477 346.961 154.545C347.639 154.803 348.219 155.226 348.63 155.763C349.041 156.3 349.266 156.929 349.279 157.575V157.575Z" fill="#F9A0B4"/>
<path d="M288.738 284.745L280.987 284.658L281.006 283.365C281.015 282.777 281.291 282.216 281.775 281.805C282.258 281.394 282.908 281.168 283.583 281.176L286.246 281.206C286.92 281.213 287.564 281.454 288.035 281.876C288.506 282.297 288.765 282.864 288.757 283.452L288.738 284.745V284.745Z" fill="#D7E2FF"/>
<path d="M296.491 284.833L288.74 284.746L288.759 283.454C288.768 282.865 289.045 282.304 289.528 281.894C290.011 281.483 290.662 281.257 291.336 281.264L293.993 281.294C294.668 281.302 295.311 281.543 295.782 281.964C296.253 282.385 296.513 282.953 296.504 283.541L296.485 284.833L296.491 284.833V284.833Z" fill="#D7E2FF"/>
<path d="M304.238 284.917L296.487 284.829L296.507 283.537C296.515 282.949 296.792 282.388 297.275 281.977C297.758 281.566 298.409 281.34 299.083 281.348L301.74 281.377C302.415 281.385 303.058 281.626 303.529 282.047C304 282.469 304.26 283.036 304.251 283.624L304.232 284.917L304.238 284.917Z" fill="#D7E2FF"/>
<path d="M311.991 285L304.24 284.913L304.259 283.62C304.268 283.032 304.544 282.471 305.028 282.06C305.511 281.65 306.161 281.423 306.836 281.431L309.505 281.461C310.179 281.469 310.823 281.71 311.294 282.131C311.765 282.552 312.024 283.119 312.016 283.708L311.997 285L311.991 285V285Z" fill="#D7E2FF"/>
<path d="M319.738 285.094L311.987 285.006L312.006 283.714C312.015 283.126 312.292 282.565 312.775 282.154C313.258 281.743 313.909 281.517 314.583 281.525L317.24 281.554C317.915 281.562 318.558 281.803 319.029 282.224C319.5 282.646 319.76 283.213 319.751 283.801L319.732 285.094L319.738 285.094Z" fill="#D7E2FF"/>
<path d="M327.485 285.177L319.734 285.09L319.754 283.797C319.762 283.209 320.039 282.648 320.522 282.237C321.005 281.827 321.656 281.6 322.33 281.608L324.987 281.638C325.662 281.645 326.305 281.886 326.776 282.308C327.247 282.729 327.507 283.296 327.498 283.885L327.479 285.177L327.485 285.177V285.177Z" fill="#D7E2FF"/>
<path d="M335.238 285.26L327.487 285.173L327.506 283.881C327.515 283.292 327.792 282.731 328.275 282.321C328.758 281.91 329.409 281.684 330.083 281.691L332.74 281.721C333.415 281.729 334.058 281.97 334.529 282.391C335 282.812 335.26 283.38 335.251 283.968L335.232 285.26L335.238 285.26V285.26Z" fill="#D7E2FF"/>
<path d="M260.179 288.025L342.332 288.95C344.074 288.97 345.505 287.754 345.528 286.235L345.528 286.23C345.55 284.711 344.156 283.464 342.414 283.444L260.26 282.519C258.518 282.499 257.087 283.715 257.065 285.234L257.065 285.239C257.042 286.758 258.436 288.005 260.179 288.025Z" fill="#64617F"/>
<path d="M281.364 288.288L207.554 287.461C206.049 287.445 204.595 286.99 203.42 286.171C202.246 285.351 201.419 284.213 201.072 282.937L187.432 232.947C187.198 232.077 187.194 231.171 187.421 230.299C187.647 229.427 188.099 228.611 188.74 227.914C189.382 227.217 190.197 226.656 191.124 226.273C192.052 225.891 193.066 225.698 194.092 225.708L259.238 226.437C260.741 226.455 262.195 226.91 263.369 227.73C264.543 228.549 265.37 229.686 265.719 230.962L281.364 288.288Z" fill="#7D7BA3"/>
<path d="M187.42 232.947L201.06 282.937C201.407 284.213 202.234 285.351 203.408 286.171C204.583 286.991 206.038 287.445 207.542 287.461L281.352 288.288L279.846 282.766L221.526 282.109C220.021 282.094 218.566 281.64 217.391 280.82C216.217 280 215.39 278.862 215.044 277.585L201.404 227.595C201.241 227 201.185 226.386 201.238 225.775L194.092 225.693C193.063 225.68 192.045 225.873 191.115 226.255C190.185 226.637 189.367 227.2 188.724 227.899C188.08 228.599 187.628 229.417 187.402 230.292C187.177 231.166 187.182 232.075 187.42 232.947V232.947Z" fill="#64617F"/>
<path d="M229.799 261.773C231.839 261.773 233.493 260.331 233.493 258.552C233.493 256.773 231.839 255.331 229.799 255.331C227.758 255.331 226.104 256.773 226.104 258.552C226.104 260.331 227.758 261.773 229.799 261.773Z" fill="#D7E2FF"/>
<path d="M224.782 263.319C225.354 264.121 226.125 264.8 227.038 265.307C227.951 265.815 228.983 266.137 230.057 266.251C231.132 266.365 232.223 266.267 233.248 265.964C234.274 265.662 235.209 265.163 235.984 264.504C236.759 263.845 237.355 263.043 237.728 262.157C238.101 261.271 238.241 260.323 238.138 259.383C238.035 258.443 237.691 257.536 237.133 256.727C236.575 255.918 235.815 255.229 234.911 254.71C235.776 255.933 236.138 257.376 235.937 258.801C235.735 260.227 234.982 261.551 233.803 262.553C232.623 263.556 231.086 264.178 229.446 264.318C227.807 264.457 226.161 264.105 224.782 263.319V263.319Z" fill="#D7E2FF"/>
<path d="M322.126 65.8094L316.643 63.839C315.311 63.3624 314.099 62.6613 313.078 61.7759C312.057 60.8904 311.246 59.8379 310.693 58.6788C310.139 57.5198 309.853 56.2768 309.851 55.0211C309.849 53.7655 310.131 52.5219 310.681 51.3615L316.203 53.3457C318.883 54.3147 321.012 56.1717 322.123 58.5088C323.233 60.8458 323.234 63.4716 322.126 65.8094Z" fill="#6E8EC8"/>
<path d="M341.267 70.3309C341.267 74.8611 339.203 79.2058 335.529 82.4091C331.855 85.6125 326.872 87.4121 321.676 87.4121C316.48 87.4121 311.497 85.6125 307.823 82.4091C304.149 79.2058 302.085 74.8611 302.085 70.3309C302.083 69.6726 302.127 69.0147 302.215 68.3609C302.314 67.608 302.47 66.8617 302.684 66.1272H340.674C340.889 66.8613 341.044 67.6077 341.137 68.3609C341.228 69.0145 341.272 69.6725 341.267 70.3309Z" fill="#6E8EC8"/>
<path d="M342.027 61.6545H302.239C300.824 61.6545 299.677 62.6546 299.677 63.8883V63.8934C299.677 65.1271 300.824 66.1271 302.239 66.1271H342.027C343.441 66.1271 344.589 65.1271 344.589 63.8934V63.8883C344.589 62.6546 343.441 61.6545 342.027 61.6545Z" fill="#6285B7"/>
<path d="M341.166 68.3609H302.215C302.314 67.608 302.47 66.8617 302.684 66.1272H340.674C340.899 66.8607 341.063 67.6071 341.166 68.3609V68.3609Z" fill="#4575AF"/>
<path d="M418.452 70.5257L414.137 68.975C412.037 68.2204 410.367 66.7694 409.494 64.9413C408.621 63.1132 408.617 61.0576 409.483 59.2268L413.798 60.7775C415.898 61.5321 417.568 62.983 418.44 64.8112C419.313 66.6393 419.317 68.6949 418.452 70.5257V70.5257Z" fill="#6E8EC8"/>
<path d="M433.421 74.0486C433.461 75.8256 433.094 77.5918 432.342 79.2438C431.589 80.8957 430.467 82.4002 429.04 83.6693C427.612 84.9384 425.909 85.9466 424.03 86.6348C422.15 87.3231 420.132 87.6776 418.093 87.6776C416.055 87.6776 414.037 87.3231 412.157 86.6348C410.278 85.9466 408.574 84.9384 407.147 83.6693C405.72 82.4002 404.597 80.8957 403.845 79.2438C403.093 77.5918 402.726 75.8256 402.766 74.0486C402.763 73.5302 402.797 73.0122 402.867 72.4974C402.941 71.9079 403.064 71.3238 403.235 70.7498H432.952C433.264 71.8247 433.422 72.9294 433.421 74.0383V74.0486Z" fill="#6E8EC8"/>
<path d="M434.008 67.2648H402.885C401.778 67.2648 400.88 68.0472 400.88 69.0124C400.88 69.9776 401.778 70.7601 402.885 70.7601H434.008C435.115 70.7601 436.012 69.9776 436.012 69.0124C436.012 68.0472 435.115 67.2648 434.008 67.2648Z" fill="#6285B7"/>
<path d="M433.32 72.5078H402.843C402.917 71.9183 403.04 71.3342 403.211 70.7601H432.928C433.102 71.3348 433.232 71.9185 433.32 72.5078V72.5078Z" fill="#4575AF"/>
<path d="M361.538 24.5708H370.819C372.201 24.5708 373.527 25.0496 374.505 25.902C375.482 26.7543 376.032 27.9104 376.032 29.1158V87.4353H356.325V29.1158C356.325 27.9104 356.874 26.7543 357.852 25.902C358.829 25.0496 360.155 24.5708 361.538 24.5708V24.5708Z" fill="#6E8EC8"/>
<path d="M366.181 61.5357C369.692 61.5357 372.539 59.054 372.539 55.9927C372.539 52.9315 369.692 50.4498 366.181 50.4498C362.67 50.4498 359.824 52.9315 359.824 55.9927C359.824 59.054 362.67 61.5357 366.181 61.5357Z" fill="#4575AF"/>
<path d="M366.181 59.9948C365.949 60.0219 365.715 60.034 365.481 60.031C364.25 60.031 363.069 59.6044 362.198 58.8452C361.327 58.0859 360.838 57.0561 360.838 55.9824C360.838 54.9086 361.327 53.8788 362.198 53.1196C363.069 52.3603 364.25 51.9338 365.481 51.9338C365.722 51.9326 365.962 51.9499 366.199 51.9855C365.106 52.1353 364.11 52.6206 363.391 53.3538C362.672 54.0871 362.277 55.0202 362.277 55.985C362.277 56.9497 362.672 57.8828 363.391 58.6161C364.11 59.3494 365.106 59.8346 366.199 59.9844L366.181 59.9948Z" fill="#6E8EC8"/>
<path d="M379.928 40.5532H386.831C387.861 40.5532 388.849 40.91 389.578 41.5452C390.306 42.1803 390.715 43.0418 390.715 43.94V87.4353H376.043V43.94C376.043 43.0418 376.453 42.1803 377.181 41.5452C377.91 40.91 378.898 40.5532 379.928 40.5532V40.5532Z" fill="#6285B7"/>
<path d="M383.391 68.1179C386.012 68.1179 388.136 66.2659 388.136 63.9813C388.136 61.6968 386.012 59.8448 383.391 59.8448C380.771 59.8448 378.647 61.6968 378.647 63.9813C378.647 66.2659 380.771 68.1179 383.391 68.1179Z" fill="#6E8EC8"/>
<path d="M383.391 66.9648C383.213 66.9919 383.032 67.0057 382.852 67.0062C381.933 67.0062 381.052 66.688 380.403 66.1217C379.753 65.5554 379.388 64.7874 379.388 63.9865C379.388 63.1857 379.753 62.4176 380.403 61.8513C381.052 61.285 381.933 60.9669 382.852 60.9669C383.032 60.9657 383.213 60.9778 383.391 61.0031C382.579 61.1177 381.84 61.4805 381.307 62.0267C380.774 62.5729 380.481 63.2667 380.481 63.9839C380.481 64.7012 380.774 65.395 381.307 65.9412C381.84 66.4874 382.579 66.8502 383.391 66.9648V66.9648Z" fill="#E9F1FF"/>
<path d="M164.552 414.245H157.436V62.3526C157.567 52.6336 162.088 43.3516 170.018 36.5194C177.947 29.6873 188.646 25.8558 199.794 25.8558C210.942 25.8558 221.641 29.6873 229.57 36.5194C237.499 43.3516 242.02 52.6336 242.152 62.3526V102.818H235.012V62.3526C234.891 54.2725 231.126 46.5589 224.53 40.882C217.934 35.2052 209.038 32.0222 199.77 32.0222C190.502 32.0222 181.606 35.2052 175.01 40.882C168.414 46.5589 164.649 54.2725 164.528 62.3526L164.552 414.245Z" fill="#34629B"/>
<path d="M239.382 147.135C251.455 147.135 261.242 138.602 261.242 128.077C261.242 117.551 251.455 109.018 239.382 109.018C227.31 109.018 217.523 117.551 217.523 128.077C217.523 138.602 227.31 147.135 239.382 147.135Z" fill="#BBD7FF"/>
<path d="M261.242 128.076C261.241 130.897 260.522 133.683 259.137 136.232C257.752 138.782 255.735 141.032 253.232 142.819C250.729 144.607 247.802 145.888 244.663 146.57C241.523 147.252 238.249 147.318 235.077 146.763C240.029 145.897 244.485 143.562 247.686 140.155C250.888 136.749 252.637 132.48 252.637 128.076C252.637 123.672 250.888 119.404 247.686 115.998C244.485 112.591 240.029 110.256 235.077 109.39C238.249 108.835 241.523 108.901 244.663 109.583C247.802 110.265 250.729 111.546 253.232 113.334C255.735 115.121 257.752 117.371 259.137 119.92C260.522 122.47 261.241 125.255 261.242 128.076V128.076Z" fill="#D4E6FC"/>
<path d="M285.053 128.076H192.135C192.135 100.155 212.944 77.5594 238.594 77.5594C264.243 77.5594 285.053 100.176 285.053 128.076Z" fill="#547DBA"/>
<path d="M285.053 128.076H192.135C192.135 100.155 212.944 77.5594 238.594 77.5594C264.243 77.5594 285.053 100.176 285.053 128.076Z" fill="#547DBA"/>
<path d="M285.047 128.076H269.408C269.408 103.076 252.708 82.3164 230.771 78.2782C233.335 77.8001 235.949 77.5592 238.57 77.5594C264.255 77.5594 285.047 100.176 285.047 128.076Z" fill="#34629B"/>
<path d="M402.167 284.746V419.752H351.248V329.116C351.249 323.287 352.567 317.516 355.126 312.131C357.686 306.747 361.437 301.855 366.166 297.734C370.894 293.614 376.507 290.346 382.684 288.118C388.862 285.889 395.482 284.744 402.167 284.746V284.746Z" fill="#BBD7FF"/>
<path d="M402.167 284.746H530.502V412.632C530.502 414.521 529.641 416.334 528.108 417.67C526.576 419.006 524.497 419.757 522.33 419.757H402.167V284.746Z" fill="#34629B"/>
</svg>
