<svg width="512" height="371" viewBox="0 0 512 371" fill="none" xmlns="http://www.w3.org/2000/svg">
<path d="M100.507 31C177.202 31 230.596 31.3438 442.108 31C533.327 41.3594 533.327 153 442.108 164.5C339.272 164.5 55.1081 164 55.1081 164C-16.0326 176 -18.0326 284.1 55.1081 304C116.108 304 339.35 304 422.546 304" stroke="#00B487" stroke-linecap="round" stroke-linejoin="round"/>
<path d="M384.258 355.625L387.977 364.906L391.695 355.625H393.641V367H392.141V362.57L392.281 357.789L388.547 367H387.398L383.672 357.812L383.82 362.57V367H382.32V355.625H384.258ZM399.57 367.156C398.424 367.156 397.492 366.781 396.773 366.031C396.055 365.276 395.695 364.268 395.695 363.008V362.742C395.695 361.904 395.854 361.156 396.172 360.5C396.495 359.839 396.943 359.323 397.516 358.953C398.094 358.578 398.719 358.391 399.391 358.391C400.49 358.391 401.344 358.753 401.953 359.477C402.562 360.201 402.867 361.237 402.867 362.586V363.188H397.141C397.161 364.021 397.404 364.695 397.867 365.211C398.336 365.721 398.93 365.977 399.648 365.977C400.159 365.977 400.591 365.872 400.945 365.664C401.299 365.456 401.609 365.18 401.875 364.836L402.758 365.523C402.049 366.612 400.987 367.156 399.57 367.156ZM399.391 359.578C398.807 359.578 398.318 359.792 397.922 360.219C397.526 360.641 397.281 361.234 397.188 362H401.422V361.891C401.38 361.156 401.182 360.589 400.828 360.188C400.474 359.781 399.995 359.578 399.391 359.578ZM408.055 367.156C406.909 367.156 405.977 366.781 405.258 366.031C404.539 365.276 404.18 364.268 404.18 363.008V362.742C404.18 361.904 404.339 361.156 404.656 360.5C404.979 359.839 405.427 359.323 406 358.953C406.578 358.578 407.203 358.391 407.875 358.391C408.974 358.391 409.828 358.753 410.438 359.477C411.047 360.201 411.352 361.237 411.352 362.586V363.188H405.625C405.646 364.021 405.888 364.695 406.352 365.211C406.82 365.721 407.414 365.977 408.133 365.977C408.643 365.977 409.076 365.872 409.43 365.664C409.784 365.456 410.094 365.18 410.359 364.836L411.242 365.523C410.534 366.612 409.471 367.156 408.055 367.156ZM407.875 359.578C407.292 359.578 406.802 359.792 406.406 360.219C406.01 360.641 405.766 361.234 405.672 362H409.906V361.891C409.865 361.156 409.667 360.589 409.312 360.188C408.958 359.781 408.479 359.578 407.875 359.578ZM414.992 356.5V358.547H416.57V359.664H414.992V364.906C414.992 365.245 415.062 365.5 415.203 365.672C415.344 365.839 415.583 365.922 415.922 365.922C416.089 365.922 416.318 365.891 416.609 365.828V367C416.229 367.104 415.859 367.156 415.5 367.156C414.854 367.156 414.367 366.961 414.039 366.57C413.711 366.18 413.547 365.625 413.547 364.906V359.664H412.008V358.547H413.547V356.5H414.992ZM419.836 367H418.391V358.547H419.836V367ZM418.273 356.305C418.273 356.07 418.344 355.872 418.484 355.711C418.63 355.549 418.844 355.469 419.125 355.469C419.406 355.469 419.62 355.549 419.766 355.711C419.911 355.872 419.984 356.07 419.984 356.305C419.984 356.539 419.911 356.734 419.766 356.891C419.62 357.047 419.406 357.125 419.125 357.125C418.844 357.125 418.63 357.047 418.484 356.891C418.344 356.734 418.273 356.539 418.273 356.305ZM423.523 358.547L423.57 359.609C424.216 358.797 425.06 358.391 426.102 358.391C427.888 358.391 428.789 359.398 428.805 361.414V367H427.359V361.406C427.354 360.797 427.214 360.346 426.938 360.055C426.667 359.763 426.242 359.617 425.664 359.617C425.195 359.617 424.784 359.742 424.43 359.992C424.076 360.242 423.799 360.57 423.602 360.977V367H422.156V358.547H423.523ZM430.641 362.703C430.641 361.385 430.945 360.339 431.555 359.562C432.164 358.781 432.971 358.391 433.977 358.391C435.008 358.391 435.812 358.755 436.391 359.484L436.461 358.547H437.781V366.797C437.781 367.891 437.456 368.753 436.805 369.383C436.159 370.013 435.289 370.328 434.195 370.328C433.586 370.328 432.99 370.198 432.406 369.938C431.823 369.677 431.378 369.32 431.07 368.867L431.82 368C432.44 368.766 433.198 369.148 434.094 369.148C434.797 369.148 435.344 368.951 435.734 368.555C436.13 368.159 436.328 367.602 436.328 366.883V366.156C435.75 366.823 434.961 367.156 433.961 367.156C432.971 367.156 432.169 366.758 431.555 365.961C430.945 365.164 430.641 364.078 430.641 362.703ZM432.094 362.867C432.094 363.82 432.289 364.57 432.68 365.117C433.07 365.659 433.617 365.93 434.32 365.93C435.232 365.93 435.901 365.516 436.328 364.688V360.828C435.885 360.021 435.221 359.617 434.336 359.617C433.633 359.617 433.083 359.891 432.688 360.438C432.292 360.984 432.094 361.794 432.094 362.867Z" fill="#4C4D5F"/>
<path fill-rule="evenodd" clip-rule="evenodd" d="M411.749 281.878H439.548C439.788 281.878 439.977 282.066 439.977 282.304V317.941C439.977 326.204 433.239 332.898 424.923 332.898H396.997C396.757 332.898 396.568 332.71 396.568 332.473V282.304" fill="#A9E2FF"/>
<path fill-rule="evenodd" clip-rule="evenodd" d="M410.424 293.89L415.774 290.305L421.276 293.89V281.916H410.424V293.89Z" fill="#00B487"/>
<path fill-rule="evenodd" clip-rule="evenodd" d="M429.567 317.652H405.275C404.909 317.652 404.606 317.351 404.606 316.987C404.606 316.623 404.909 316.323 405.275 316.323H429.567C429.933 316.323 430.236 316.623 430.236 316.987C430.236 317.351 429.933 317.652 429.567 317.652Z" fill="#00B487"/>
<path fill-rule="evenodd" clip-rule="evenodd" d="M424.86 322.906H405.263C404.897 322.906 404.594 322.605 404.594 322.241C404.594 321.878 404.897 321.575 405.263 321.575H424.86C425.226 321.575 425.529 321.878 425.529 322.241C425.529 322.605 425.239 322.906 424.86 322.906Z" fill="#00B487"/>
<path fill-rule="evenodd" clip-rule="evenodd" d="M403.837 273.653H431.636C431.876 273.653 432.065 273.84 432.065 274.079V313.827C432.065 319.821 427.182 324.672 421.15 324.672H389.098C388.858 324.672 388.668 324.485 388.668 324.247V274.079" fill="white"/>
<path fill-rule="evenodd" clip-rule="evenodd" d="M421.15 325.337H389.098C388.492 325.337 388 324.849 388 324.246V274.08C388 273.716 388.303 273.414 388.669 273.414C389.035 273.414 389.338 273.716 389.338 274.08V324.009H421.15C426.804 324.009 431.397 319.444 431.397 313.828V274.33H403.837C403.471 274.33 403.168 274.029 403.168 273.665C403.168 273.301 403.471 273 403.837 273H431.637C432.242 273 432.735 273.49 432.735 274.091V313.84C432.735 320.171 427.535 325.337 421.15 325.337Z" fill="#00B487"/>
<path fill-rule="evenodd" clip-rule="evenodd" d="M421.668 309.427H397.376C397.01 309.427 396.707 309.126 396.707 308.762C396.707 308.398 397.01 308.096 397.376 308.096H421.668C422.034 308.096 422.337 308.398 422.337 308.762C422.337 309.126 422.034 309.427 421.668 309.427Z" fill="#00B487"/>
<path fill-rule="evenodd" clip-rule="evenodd" d="M416.961 314.68H397.363C396.997 314.68 396.695 314.379 396.695 314.015C396.695 313.652 396.997 313.351 397.363 313.351H416.961C417.327 313.351 417.63 313.652 417.63 314.015C417.63 314.379 417.327 314.68 416.961 314.68Z" fill="#00B487"/>
<path fill-rule="evenodd" clip-rule="evenodd" d="M404.001 287.345H396.265C395.9 287.345 395.597 287.044 395.597 286.681C395.597 286.317 395.9 286.016 396.265 286.016H404.001C404.367 286.016 404.67 286.317 404.67 286.681C404.67 287.044 404.367 287.345 404.001 287.345Z" fill="#00B487"/>
<path fill-rule="evenodd" clip-rule="evenodd" d="M400.127 295.194C399.761 295.194 399.458 294.893 399.458 294.53V286.668C399.458 286.304 399.761 286.003 400.127 286.003C400.493 286.003 400.795 286.304 400.795 286.668V294.53C400.808 294.907 400.505 295.194 400.127 295.194Z" fill="#00B487"/>
<path fill-rule="evenodd" clip-rule="evenodd" d="M415.951 295.194C415.787 295.194 415.61 295.132 415.484 295.007C415.219 294.744 415.219 294.33 415.471 294.067L423.207 286.204C423.472 285.941 423.888 285.941 424.153 286.191C424.418 286.455 424.418 286.869 424.166 287.132L416.43 294.994C416.292 295.132 416.115 295.194 415.951 295.194Z" fill="#00B487"/>
<path fill-rule="evenodd" clip-rule="evenodd" d="M423.762 295.12C423.598 295.12 423.421 295.057 423.295 294.932L415.396 287.245C415.131 286.982 415.131 286.568 415.383 286.305C415.648 286.041 416.064 286.041 416.329 286.292L424.229 293.979C424.494 294.242 424.494 294.656 424.242 294.919C424.115 295.043 423.939 295.12 423.762 295.12Z" fill="#00B487"/>
<path fill-rule="evenodd" clip-rule="evenodd" d="M405.098 294.529L408.972 286.68L412.834 294.529" fill="white"/>
<path fill-rule="evenodd" clip-rule="evenodd" d="M405.098 295.194C404.998 295.194 404.897 295.169 404.808 295.131C404.48 294.968 404.341 294.567 404.505 294.241L408.367 286.379C408.48 286.154 408.708 286.003 408.973 286.003C409.225 286.003 409.465 286.154 409.578 286.379L413.44 294.241C413.604 294.567 413.465 294.968 413.137 295.131C412.809 295.294 412.405 295.157 412.241 294.831L408.985 288.197L405.717 294.831C405.591 295.069 405.351 295.194 405.098 295.194Z" fill="#00B487"/>
<path fill-rule="evenodd" clip-rule="evenodd" d="M411.598 293.526H406.336C405.97 293.526 405.667 293.227 405.667 292.863C405.667 292.499 405.97 292.197 406.336 292.197H411.598C411.964 292.197 412.267 292.499 412.267 292.863C412.267 293.227 411.976 293.526 411.598 293.526Z" fill="#00B487"/>
<path fill-rule="evenodd" clip-rule="evenodd" d="M251.948 341.898C238.165 341.898 227 330.77 227 317.035V306.723C227 292.988 238.165 281.86 251.948 281.86C265.731 281.86 276.895 292.988 276.895 306.723V317.035C276.895 330.77 265.731 341.898 251.948 341.898Z" fill="#A9E2FF"/>
<path fill-rule="evenodd" clip-rule="evenodd" d="M258.072 335.809C244.289 335.809 233.125 324.681 233.125 310.946V300.634C233.125 286.899 244.289 275.771 258.072 275.771C271.855 275.771 283.02 286.899 283.02 300.634V310.946C283.007 324.681 271.839 335.809 258.072 335.809Z" fill="white"/>
<path fill-rule="evenodd" clip-rule="evenodd" d="M248.923 276.558C240.636 276.558 233.898 283.273 233.898 291.532V320.05C233.898 328.309 240.636 335.023 248.923 335.023H267.192C275.479 335.023 282.217 328.309 282.217 320.05V291.532C282.217 283.273 275.479 276.558 267.192 276.558H248.923ZM267.207 336.582H248.937C239.788 336.582 232.349 329.168 232.349 320.05V291.532C232.349 282.414 239.788 275 248.937 275H267.207C276.357 275 283.795 282.414 283.795 291.532V320.05C283.782 329.168 276.341 336.582 267.207 336.582Z" fill="#00B487"/>
<path fill-rule="evenodd" clip-rule="evenodd" d="M249.887 297.94L243.924 303.882L240.49 300.445" fill="white"/>
<path fill-rule="evenodd" clip-rule="evenodd" d="M243.924 304.654C243.72 304.654 243.515 304.567 243.369 304.421L239.936 300.984C239.627 300.679 239.627 300.197 239.936 299.891C240.241 299.587 240.723 299.587 241.032 299.891L243.924 302.775L249.332 297.386C249.639 297.08 250.121 297.08 250.428 297.386C250.735 297.692 250.735 298.173 250.428 298.479L244.465 304.421C244.333 304.567 244.129 304.654 243.924 304.654Z" fill="#00B487"/>
<path fill-rule="evenodd" clip-rule="evenodd" d="M276.488 301.538H255.937C255.513 301.538 255.164 301.188 255.164 300.766C255.164 300.343 255.513 299.994 255.937 299.994H276.488C276.912 299.994 277.261 300.343 277.261 300.766C277.277 301.188 276.926 301.538 276.488 301.538Z" fill="#00B487"/>
<path fill-rule="evenodd" clip-rule="evenodd" d="M249.887 313.219L243.924 319.162L240.49 315.724" fill="white"/>
<path fill-rule="evenodd" clip-rule="evenodd" d="M243.924 319.933C243.72 319.933 243.515 319.846 243.369 319.7L239.936 316.263C239.627 315.957 239.627 315.462 239.936 315.171C240.241 314.865 240.723 314.865 241.032 315.171L243.924 318.055L249.332 312.665C249.639 312.36 250.121 312.36 250.428 312.665C250.735 312.971 250.735 313.452 250.428 313.758L244.465 319.7C244.333 319.861 244.129 319.933 243.924 319.933Z" fill="#00B487"/>
<path fill-rule="evenodd" clip-rule="evenodd" d="M269.18 316.816H255.953C255.529 316.816 255.178 316.467 255.178 316.044C255.178 315.622 255.529 315.272 255.953 315.272H269.18C269.604 315.272 269.953 315.622 269.953 316.044C269.953 316.467 269.604 316.816 269.18 316.816Z" fill="#00B487"/>
<path fill-rule="evenodd" clip-rule="evenodd" d="M234.469 290.832H281.75V285.428H234.469V290.832Z" fill="#00B487"/>
<path d="M217.828 364.773H223.219V366H216.32V354.625H217.828V364.773ZM228.211 366.156C227.065 366.156 226.133 365.781 225.414 365.031C224.695 364.276 224.336 363.268 224.336 362.008V361.742C224.336 360.904 224.495 360.156 224.812 359.5C225.135 358.839 225.583 358.323 226.156 357.953C226.734 357.578 227.359 357.391 228.031 357.391C229.13 357.391 229.984 357.753 230.594 358.477C231.203 359.201 231.508 360.237 231.508 361.586V362.188H225.781C225.802 363.021 226.044 363.695 226.508 364.211C226.977 364.721 227.57 364.977 228.289 364.977C228.799 364.977 229.232 364.872 229.586 364.664C229.94 364.456 230.25 364.18 230.516 363.836L231.398 364.523C230.69 365.612 229.628 366.156 228.211 366.156ZM228.031 358.578C227.448 358.578 226.958 358.792 226.562 359.219C226.167 359.641 225.922 360.234 225.828 361H230.062V360.891C230.021 360.156 229.823 359.589 229.469 359.188C229.115 358.781 228.635 358.578 228.031 358.578ZM235.148 355.5V357.547H236.727V358.664H235.148V363.906C235.148 364.245 235.219 364.5 235.359 364.672C235.5 364.839 235.74 364.922 236.078 364.922C236.245 364.922 236.474 364.891 236.766 364.828V366C236.385 366.104 236.016 366.156 235.656 366.156C235.01 366.156 234.523 365.961 234.195 365.57C233.867 365.18 233.703 364.625 233.703 363.906V358.664H232.164V357.547H233.703V355.5H235.148ZM238.523 357.828L237.703 357.266C238.188 356.589 238.438 355.875 238.453 355.125V354H239.883V355.016C239.878 355.536 239.747 356.057 239.492 356.578C239.242 357.094 238.919 357.51 238.523 357.828ZM245.672 363.758C245.672 363.367 245.523 363.065 245.227 362.852C244.935 362.633 244.422 362.445 243.688 362.289C242.958 362.133 242.378 361.945 241.945 361.727C241.518 361.508 241.201 361.247 240.992 360.945C240.789 360.643 240.688 360.284 240.688 359.867C240.688 359.174 240.979 358.589 241.562 358.109C242.151 357.63 242.901 357.391 243.812 357.391C244.771 357.391 245.547 357.638 246.141 358.133C246.74 358.628 247.039 359.26 247.039 360.031H245.586C245.586 359.635 245.417 359.294 245.078 359.008C244.745 358.721 244.323 358.578 243.812 358.578C243.286 358.578 242.875 358.693 242.578 358.922C242.281 359.151 242.133 359.451 242.133 359.82C242.133 360.169 242.271 360.432 242.547 360.609C242.823 360.786 243.32 360.956 244.039 361.117C244.763 361.279 245.349 361.471 245.797 361.695C246.245 361.919 246.576 362.19 246.789 362.508C247.008 362.82 247.117 363.203 247.117 363.656C247.117 364.411 246.815 365.018 246.211 365.477C245.607 365.93 244.823 366.156 243.859 366.156C243.182 366.156 242.583 366.036 242.062 365.797C241.542 365.557 241.133 365.224 240.836 364.797C240.544 364.365 240.398 363.898 240.398 363.398H241.844C241.87 363.883 242.062 364.268 242.422 364.555C242.786 364.836 243.266 364.977 243.859 364.977C244.406 364.977 244.844 364.867 245.172 364.648C245.505 364.424 245.672 364.128 245.672 363.758ZM259.477 363.031H254.711L253.641 366H252.094L256.438 354.625H257.75L262.102 366H260.562L259.477 363.031ZM255.164 361.797H259.031L257.094 356.477L255.164 361.797ZM263.062 361.703C263.062 360.385 263.367 359.339 263.977 358.562C264.586 357.781 265.393 357.391 266.398 357.391C267.43 357.391 268.234 357.755 268.812 358.484L268.883 357.547H270.203V365.797C270.203 366.891 269.878 367.753 269.227 368.383C268.581 369.013 267.711 369.328 266.617 369.328C266.008 369.328 265.411 369.198 264.828 368.938C264.245 368.677 263.799 368.32 263.492 367.867L264.242 367C264.862 367.766 265.62 368.148 266.516 368.148C267.219 368.148 267.766 367.951 268.156 367.555C268.552 367.159 268.75 366.602 268.75 365.883V365.156C268.172 365.823 267.383 366.156 266.383 366.156C265.393 366.156 264.591 365.758 263.977 364.961C263.367 364.164 263.062 363.078 263.062 361.703ZM264.516 361.867C264.516 362.82 264.711 363.57 265.102 364.117C265.492 364.659 266.039 364.93 266.742 364.93C267.654 364.93 268.323 364.516 268.75 363.688V359.828C268.307 359.021 267.643 358.617 266.758 358.617C266.055 358.617 265.505 358.891 265.109 359.438C264.714 359.984 264.516 360.794 264.516 361.867ZM276.477 358.844C276.258 358.807 276.021 358.789 275.766 358.789C274.818 358.789 274.174 359.193 273.836 360V366H272.391V357.547H273.797L273.82 358.523C274.294 357.768 274.966 357.391 275.836 357.391C276.117 357.391 276.331 357.427 276.477 357.5V358.844ZM281.164 366.156C280.018 366.156 279.086 365.781 278.367 365.031C277.648 364.276 277.289 363.268 277.289 362.008V361.742C277.289 360.904 277.448 360.156 277.766 359.5C278.089 358.839 278.536 358.323 279.109 357.953C279.688 357.578 280.312 357.391 280.984 357.391C282.083 357.391 282.938 357.753 283.547 358.477C284.156 359.201 284.461 360.237 284.461 361.586V362.188H278.734C278.755 363.021 278.997 363.695 279.461 364.211C279.93 364.721 280.523 364.977 281.242 364.977C281.753 364.977 282.185 364.872 282.539 364.664C282.893 364.456 283.203 364.18 283.469 363.836L284.352 364.523C283.643 365.612 282.581 366.156 281.164 366.156ZM280.984 358.578C280.401 358.578 279.911 358.792 279.516 359.219C279.12 359.641 278.875 360.234 278.781 361H283.016V360.891C282.974 360.156 282.776 359.589 282.422 359.188C282.068 358.781 281.589 358.578 280.984 358.578ZM289.648 366.156C288.503 366.156 287.57 365.781 286.852 365.031C286.133 364.276 285.773 363.268 285.773 362.008V361.742C285.773 360.904 285.932 360.156 286.25 359.5C286.573 358.839 287.021 358.323 287.594 357.953C288.172 357.578 288.797 357.391 289.469 357.391C290.568 357.391 291.422 357.753 292.031 358.477C292.641 359.201 292.945 360.237 292.945 361.586V362.188H287.219C287.24 363.021 287.482 363.695 287.945 364.211C288.414 364.721 289.008 364.977 289.727 364.977C290.237 364.977 290.669 364.872 291.023 364.664C291.378 364.456 291.688 364.18 291.953 363.836L292.836 364.523C292.128 365.612 291.065 366.156 289.648 366.156ZM289.469 358.578C288.885 358.578 288.396 358.792 288 359.219C287.604 359.641 287.359 360.234 287.266 361H291.5V360.891C291.458 360.156 291.26 359.589 290.906 359.188C290.552 358.781 290.073 358.578 289.469 358.578Z" fill="#4C4D5F"/>
<path fill-rule="evenodd" clip-rule="evenodd" d="M60.861 294.87V329.751C60.861 330.053 61.1002 330.289 61.4033 330.289H111.972C119.598 330.289 125.771 324.162 125.771 316.595V276.363C125.771 276.06 125.532 275.824 125.23 275.824H61.4033" fill="white"/>
<path fill-rule="evenodd" clip-rule="evenodd" d="M111.957 331.129H61.3879C60.6221 331.129 60 330.512 60 329.752V294.871C60 294.412 60.3829 294.032 60.8455 294.032C61.3081 294.032 61.691 294.412 61.691 294.871V329.451H111.941C119.088 329.451 124.894 323.687 124.894 316.594V276.678H61.3719C60.9093 276.678 60.5264 276.298 60.5264 275.839C60.5264 275.38 60.9093 275 61.3719 275H125.197C125.963 275 126.585 275.618 126.585 276.378V316.594C126.601 324.606 120.029 331.129 111.957 331.129Z" fill="#00B487"/>
<path fill-rule="evenodd" clip-rule="evenodd" d="M67.8651 313.204H80.6095V285.593H67.8651V313.204Z" fill="#A9E2FF"/>
<path fill-rule="evenodd" clip-rule="evenodd" d="M87.2313 302.344H99.9773V285.593H87.2313V302.344Z" fill="white"/>
<path fill-rule="evenodd" clip-rule="evenodd" d="M88.0768 301.505H99.1159V286.432H88.0768V301.505ZM99.9773 303.183H87.2313C86.7687 303.183 86.3843 302.803 86.3843 302.344V285.593C86.3843 285.133 86.7687 284.753 87.2313 284.753H99.9773C100.44 284.753 100.821 285.133 100.821 285.593V302.344C100.821 302.803 100.44 303.183 99.9773 303.183Z" fill="#00B487"/>
<path fill-rule="evenodd" clip-rule="evenodd" d="M106.07 307.221H118.816V285.593H106.07V307.221Z" fill="white"/>
<path fill-rule="evenodd" clip-rule="evenodd" d="M106.915 306.366H117.954V286.432H106.915V306.366ZM118.801 308.044H106.054C105.591 308.044 105.208 307.664 105.208 307.205V285.577C105.208 285.118 105.591 284.738 106.054 284.738H118.801C119.264 284.738 119.647 285.118 119.647 285.577V307.205C119.647 307.68 119.278 308.044 118.801 308.044Z" fill="#00B487"/>
<path fill-rule="evenodd" clip-rule="evenodd" d="M67.8651 293.968H80.6095V285.593H67.8651V293.968Z" fill="#00B487"/>
<path fill-rule="evenodd" clip-rule="evenodd" d="M87.2313 290.675H99.9773V285.593H87.2313V290.675Z" fill="#00B487"/>
<path fill-rule="evenodd" clip-rule="evenodd" d="M106.07 292.148H118.816V285.593H106.07V292.148Z" fill="#00B487"/>
<path d="M82.1797 355.859H78.5234V366H77.0312V355.859H73.3828V354.625H82.1797V355.859ZM87.9688 366C87.8854 365.833 87.8177 365.536 87.7656 365.109C87.0938 365.807 86.2917 366.156 85.3594 366.156C84.526 366.156 83.8411 365.922 83.3047 365.453C82.7734 364.979 82.5078 364.38 82.5078 363.656C82.5078 362.776 82.8411 362.094 83.5078 361.609C84.1797 361.12 85.1224 360.875 86.3359 360.875H87.7422V360.211C87.7422 359.706 87.5911 359.305 87.2891 359.008C86.987 358.706 86.5417 358.555 85.9531 358.555C85.4375 358.555 85.0052 358.685 84.6562 358.945C84.3073 359.206 84.1328 359.521 84.1328 359.891H82.6797C82.6797 359.469 82.8281 359.062 83.125 358.672C83.4271 358.276 83.8333 357.964 84.3438 357.734C84.8594 357.505 85.4245 357.391 86.0391 357.391C87.013 357.391 87.776 357.635 88.3281 358.125C88.8802 358.609 89.1667 359.279 89.1875 360.133V364.023C89.1875 364.799 89.2865 365.417 89.4844 365.875V366H87.9688ZM85.5703 364.898C86.0234 364.898 86.4531 364.781 86.8594 364.547C87.2656 364.312 87.5599 364.008 87.7422 363.633V361.898H86.6094C84.8385 361.898 83.9531 362.417 83.9531 363.453C83.9531 363.906 84.1042 364.26 84.4062 364.516C84.7083 364.771 85.0964 364.898 85.5703 364.898ZM96.375 363.758C96.375 363.367 96.2266 363.065 95.9297 362.852C95.638 362.633 95.125 362.445 94.3906 362.289C93.6615 362.133 93.0807 361.945 92.6484 361.727C92.2214 361.508 91.9036 361.247 91.6953 360.945C91.4922 360.643 91.3906 360.284 91.3906 359.867C91.3906 359.174 91.6823 358.589 92.2656 358.109C92.8542 357.63 93.6042 357.391 94.5156 357.391C95.474 357.391 96.25 357.638 96.8438 358.133C97.4427 358.628 97.7422 359.26 97.7422 360.031H96.2891C96.2891 359.635 96.1198 359.294 95.7812 359.008C95.4479 358.721 95.026 358.578 94.5156 358.578C93.9896 358.578 93.5781 358.693 93.2812 358.922C92.9844 359.151 92.8359 359.451 92.8359 359.82C92.8359 360.169 92.974 360.432 93.25 360.609C93.526 360.786 94.0234 360.956 94.7422 361.117C95.4661 361.279 96.0521 361.471 96.5 361.695C96.9479 361.919 97.2786 362.19 97.4922 362.508C97.7109 362.82 97.8203 363.203 97.8203 363.656C97.8203 364.411 97.5182 365.018 96.9141 365.477C96.3099 365.93 95.526 366.156 94.5625 366.156C93.8854 366.156 93.2865 366.036 92.7656 365.797C92.2448 365.557 91.8359 365.224 91.5391 364.797C91.2474 364.365 91.1016 363.898 91.1016 363.398H92.5469C92.5729 363.883 92.7656 364.268 93.125 364.555C93.4896 364.836 93.9688 364.977 94.5625 364.977C95.1094 364.977 95.5469 364.867 95.875 364.648C96.2083 364.424 96.375 364.128 96.375 363.758ZM102.062 362.086L101.156 363.031V366H99.7109V354H101.156V361.258L101.93 360.328L104.562 357.547H106.32L103.031 361.078L106.703 366H105.008L102.062 362.086ZM112.734 363.758C112.734 363.367 112.586 363.065 112.289 362.852C111.997 362.633 111.484 362.445 110.75 362.289C110.021 362.133 109.44 361.945 109.008 361.727C108.581 361.508 108.263 361.247 108.055 360.945C107.852 360.643 107.75 360.284 107.75 359.867C107.75 359.174 108.042 358.589 108.625 358.109C109.214 357.63 109.964 357.391 110.875 357.391C111.833 357.391 112.609 357.638 113.203 358.133C113.802 358.628 114.102 359.26 114.102 360.031H112.648C112.648 359.635 112.479 359.294 112.141 359.008C111.807 358.721 111.385 358.578 110.875 358.578C110.349 358.578 109.938 358.693 109.641 358.922C109.344 359.151 109.195 359.451 109.195 359.82C109.195 360.169 109.333 360.432 109.609 360.609C109.885 360.786 110.383 360.956 111.102 361.117C111.826 361.279 112.411 361.471 112.859 361.695C113.307 361.919 113.638 362.19 113.852 362.508C114.07 362.82 114.18 363.203 114.18 363.656C114.18 364.411 113.878 365.018 113.273 365.477C112.669 365.93 111.885 366.156 110.922 366.156C110.245 366.156 109.646 366.036 109.125 365.797C108.604 365.557 108.195 365.224 107.898 364.797C107.607 364.365 107.461 363.898 107.461 363.398H108.906C108.932 363.883 109.125 364.268 109.484 364.555C109.849 364.836 110.328 364.977 110.922 364.977C111.469 364.977 111.906 364.867 112.234 364.648C112.568 364.424 112.734 364.128 112.734 363.758Z" fill="#4C4D5F"/>
<path fill-rule="evenodd" clip-rule="evenodd" d="M418.866 192.085C417.609 192.244 416.316 192.329 415.011 192.329C398.602 192.329 385.304 179.007 385.304 162.568C385.304 146.129 398.602 132.807 415.011 132.807C431.42 132.807 444.716 146.129 444.716 162.568C444.716 165.99 444.144 169.29 443.071 172.358" fill="white"/>
<path fill-rule="evenodd" clip-rule="evenodd" d="M415.011 192.977C414.657 192.977 414.352 192.683 414.352 192.329C414.352 191.974 414.632 191.681 414.986 191.681C416.279 191.681 417.548 191.596 418.793 191.437C419.146 191.388 419.476 191.644 419.525 191.999C419.573 192.353 419.317 192.683 418.963 192.732C417.658 192.891 416.328 192.977 415.011 192.977Z" fill="#00B487"/>
<mask id="mask0" mask-type="alpha" maskUnits="userSpaceOnUse" x="384" y="132" width="61" height="58">
<path d="M384.765 132.626H444.364V189.835H384.765V132.626Z" fill="white"/>
</mask>
<g mask="url(#mask0)">
<path fill-rule="evenodd" clip-rule="evenodd" d="M402.017 136.461C401.774 136.461 401.541 136.327 401.433 136.094C401.274 135.777 401.407 135.385 401.738 135.227C404.275 133.992 406.959 133.112 409.74 132.635C410.094 132.574 410.435 132.807 410.496 133.161C410.557 133.515 410.327 133.858 409.973 133.919C407.313 134.383 404.738 135.227 402.31 136.4C402.212 136.437 402.115 136.461 402.017 136.461ZM430.968 138.123C430.847 138.123 430.724 138.087 430.614 138.025C428.333 136.571 425.869 135.447 423.294 134.677C422.952 134.579 422.757 134.212 422.855 133.87C422.952 133.528 423.32 133.332 423.66 133.43C426.356 134.237 428.932 135.41 431.311 136.938C431.616 137.133 431.7 137.537 431.505 137.83C431.383 138.013 431.175 138.123 430.968 138.123ZM387.391 152.277C387.304 152.277 387.232 152.264 387.147 152.228C386.816 152.093 386.645 151.714 386.781 151.384C387.816 148.769 389.221 146.3 390.94 144.051C391.16 143.77 391.563 143.709 391.855 143.929C392.135 144.149 392.196 144.552 391.978 144.845C390.33 146.997 388.988 149.355 388.001 151.861C387.89 152.118 387.647 152.277 387.391 152.277ZM443.705 155.515C443.424 155.515 443.157 155.32 443.082 155.039C442.388 152.435 441.327 149.93 439.935 147.62C439.753 147.314 439.851 146.911 440.156 146.728C440.461 146.544 440.863 146.642 441.045 146.948C442.498 149.368 443.607 151.983 444.339 154.709C444.438 155.051 444.23 155.418 443.877 155.503C443.816 155.503 443.753 155.515 443.705 155.515ZM387.255 173.837C386.999 173.837 386.743 173.678 386.645 173.421C385.645 170.781 385.012 168.019 384.766 165.208C384.743 164.853 384.999 164.535 385.353 164.499C385.707 164.462 386.024 164.731 386.06 165.098C386.291 167.799 386.89 170.439 387.854 172.957C387.975 173.287 387.816 173.665 387.475 173.8C387.414 173.824 387.328 173.837 387.255 173.837ZM401.7 189.835C401.602 189.835 401.505 189.811 401.407 189.762C398.894 188.491 396.564 186.89 394.49 184.971C394.221 184.727 394.21 184.311 394.454 184.054C394.697 183.785 395.113 183.773 395.369 184.018C397.358 185.851 399.591 187.391 401.993 188.601C402.31 188.76 402.445 189.151 402.287 189.469C402.164 189.701 401.933 189.835 401.7 189.835Z" fill="#00B487"/>
</g>
<path fill-rule="evenodd" clip-rule="evenodd" d="M443.071 173.018C442.997 173.018 442.924 173.006 442.851 172.981C442.509 172.859 442.339 172.492 442.448 172.15C442.863 170.952 443.205 169.718 443.461 168.471C443.534 168.117 443.876 167.897 444.23 167.97C444.583 168.043 444.803 168.386 444.73 168.74C444.461 170.048 444.108 171.331 443.668 172.578C443.583 172.847 443.339 173.018 443.071 173.018Z" fill="#00B487"/>
<path fill-rule="evenodd" clip-rule="evenodd" d="M434.579 176.66C440.218 176.66 444.791 181.241 444.791 186.89C444.791 192.54 440.218 197.12 434.579 197.12C428.939 197.12 424.368 192.54 424.368 186.89C424.368 181.241 428.939 176.66 434.579 176.66Z" fill="#A9E2FF"/>
<path fill-rule="evenodd" clip-rule="evenodd" d="M414.669 145.567V163.106L422.391 170.842" fill="white"/>
<path fill-rule="evenodd" clip-rule="evenodd" d="M422.391 171.502C422.221 171.502 422.062 171.441 421.928 171.306L414.205 163.57C414.083 163.448 414.01 163.276 414.01 163.105V145.566C414.01 145.212 414.303 144.919 414.657 144.919C415.01 144.919 415.303 145.212 415.303 145.566V162.836L422.843 170.378C423.099 170.634 423.099 171.038 422.843 171.294C422.722 171.441 422.563 171.502 422.391 171.502Z" fill="#00B487"/>
<path fill-rule="evenodd" clip-rule="evenodd" d="M415.011 159.146C416.904 159.146 418.439 160.683 418.439 162.58C418.439 164.477 416.904 166.014 415.011 166.014C413.117 166.014 411.583 164.477 411.583 162.58C411.583 160.683 413.117 159.146 415.011 159.146Z" fill="#00B487"/>
<path fill-rule="evenodd" clip-rule="evenodd" d="M433.75 190.422C433.578 190.422 433.409 190.349 433.287 190.226L430.42 187.342C430.163 187.085 430.163 186.682 430.42 186.425C430.675 186.169 431.078 186.169 431.335 186.425L433.75 188.845L438.263 184.323C438.519 184.066 438.922 184.066 439.178 184.323C439.434 184.58 439.434 184.983 439.178 185.24L434.202 190.226C434.091 190.361 433.921 190.422 433.75 190.422Z" fill="#00B487"/>
<path d="M367.672 222.93C366.385 222.56 365.448 222.107 364.859 221.57C364.276 221.029 363.984 220.362 363.984 219.57C363.984 218.674 364.341 217.935 365.055 217.352C365.773 216.763 366.706 216.469 367.852 216.469C368.633 216.469 369.328 216.62 369.938 216.922C370.552 217.224 371.026 217.641 371.359 218.172C371.698 218.703 371.867 219.284 371.867 219.914H370.359C370.359 219.227 370.141 218.688 369.703 218.297C369.266 217.901 368.648 217.703 367.852 217.703C367.112 217.703 366.534 217.867 366.117 218.195C365.706 218.518 365.5 218.969 365.5 219.547C365.5 220.01 365.695 220.404 366.086 220.727C366.482 221.044 367.151 221.336 368.094 221.602C369.042 221.867 369.781 222.161 370.312 222.484C370.849 222.802 371.245 223.174 371.5 223.602C371.76 224.029 371.891 224.531 371.891 225.109C371.891 226.031 371.531 226.771 370.812 227.328C370.094 227.88 369.133 228.156 367.93 228.156C367.148 228.156 366.419 228.008 365.742 227.711C365.065 227.409 364.542 226.997 364.172 226.477C363.807 225.956 363.625 225.365 363.625 224.703H365.133C365.133 225.391 365.385 225.935 365.891 226.336C366.401 226.732 367.081 226.93 367.93 226.93C368.721 226.93 369.328 226.768 369.75 226.445C370.172 226.122 370.383 225.682 370.383 225.125C370.383 224.568 370.188 224.138 369.797 223.836C369.406 223.529 368.698 223.227 367.672 222.93ZM378.812 228C378.729 227.833 378.661 227.536 378.609 227.109C377.938 227.807 377.135 228.156 376.203 228.156C375.37 228.156 374.685 227.922 374.148 227.453C373.617 226.979 373.352 226.38 373.352 225.656C373.352 224.776 373.685 224.094 374.352 223.609C375.023 223.12 375.966 222.875 377.18 222.875H378.586V222.211C378.586 221.706 378.435 221.305 378.133 221.008C377.831 220.706 377.385 220.555 376.797 220.555C376.281 220.555 375.849 220.685 375.5 220.945C375.151 221.206 374.977 221.521 374.977 221.891H373.523C373.523 221.469 373.672 221.062 373.969 220.672C374.271 220.276 374.677 219.964 375.188 219.734C375.703 219.505 376.268 219.391 376.883 219.391C377.857 219.391 378.62 219.635 379.172 220.125C379.724 220.609 380.01 221.279 380.031 222.133V226.023C380.031 226.799 380.13 227.417 380.328 227.875V228H378.812ZM376.414 226.898C376.867 226.898 377.297 226.781 377.703 226.547C378.109 226.312 378.404 226.008 378.586 225.633V223.898H377.453C375.682 223.898 374.797 224.417 374.797 225.453C374.797 225.906 374.948 226.26 375.25 226.516C375.552 226.771 375.94 226.898 376.414 226.898ZM384.961 226.039L387.055 219.547H388.531L385.5 228H384.398L381.336 219.547H382.812L384.961 226.039ZM393.32 228.156C392.174 228.156 391.242 227.781 390.523 227.031C389.805 226.276 389.445 225.268 389.445 224.008V223.742C389.445 222.904 389.604 222.156 389.922 221.5C390.245 220.839 390.693 220.323 391.266 219.953C391.844 219.578 392.469 219.391 393.141 219.391C394.24 219.391 395.094 219.753 395.703 220.477C396.312 221.201 396.617 222.237 396.617 223.586V224.188H390.891C390.911 225.021 391.154 225.695 391.617 226.211C392.086 226.721 392.68 226.977 393.398 226.977C393.909 226.977 394.341 226.872 394.695 226.664C395.049 226.456 395.359 226.18 395.625 225.836L396.508 226.523C395.799 227.612 394.737 228.156 393.32 228.156ZM393.141 220.578C392.557 220.578 392.068 220.792 391.672 221.219C391.276 221.641 391.031 222.234 390.938 223H395.172V222.891C395.13 222.156 394.932 221.589 394.578 221.188C394.224 220.781 393.745 220.578 393.141 220.578ZM405.031 225.883L407 219.547H408.547L405.148 229.305C404.622 230.711 403.786 231.414 402.641 231.414L402.367 231.391L401.828 231.289V230.117L402.219 230.148C402.708 230.148 403.089 230.049 403.359 229.852C403.635 229.654 403.862 229.292 404.039 228.766L404.359 227.906L401.344 219.547H402.922L405.031 225.883ZM409.336 223.695C409.336 222.867 409.497 222.122 409.82 221.461C410.148 220.799 410.602 220.289 411.18 219.93C411.763 219.57 412.427 219.391 413.172 219.391C414.323 219.391 415.253 219.789 415.961 220.586C416.674 221.383 417.031 222.443 417.031 223.766V223.867C417.031 224.69 416.872 225.43 416.555 226.086C416.242 226.737 415.792 227.245 415.203 227.609C414.62 227.974 413.948 228.156 413.188 228.156C412.042 228.156 411.112 227.758 410.398 226.961C409.69 226.164 409.336 225.109 409.336 223.797V223.695ZM410.789 223.867C410.789 224.805 411.005 225.557 411.438 226.125C411.875 226.693 412.458 226.977 413.188 226.977C413.922 226.977 414.505 226.69 414.938 226.117C415.37 225.539 415.586 224.732 415.586 223.695C415.586 222.768 415.365 222.018 414.922 221.445C414.484 220.867 413.901 220.578 413.172 220.578C412.458 220.578 411.883 220.862 411.445 221.43C411.008 221.997 410.789 222.81 410.789 223.867ZM424.062 227.164C423.5 227.826 422.674 228.156 421.586 228.156C420.685 228.156 419.997 227.896 419.523 227.375C419.055 226.849 418.818 226.073 418.812 225.047V219.547H420.258V225.008C420.258 226.289 420.779 226.93 421.82 226.93C422.924 226.93 423.659 226.518 424.023 225.695V219.547H425.469V228H424.094L424.062 227.164ZM431.758 220.844C431.539 220.807 431.302 220.789 431.047 220.789C430.099 220.789 429.456 221.193 429.117 222V228H427.672V219.547H429.078L429.102 220.523C429.576 219.768 430.247 219.391 431.117 219.391C431.398 219.391 431.612 219.427 431.758 219.5V220.844ZM439.023 217.5V219.547H440.602V220.664H439.023V225.906C439.023 226.245 439.094 226.5 439.234 226.672C439.375 226.839 439.615 226.922 439.953 226.922C440.12 226.922 440.349 226.891 440.641 226.828V228C440.26 228.104 439.891 228.156 439.531 228.156C438.885 228.156 438.398 227.961 438.07 227.57C437.742 227.18 437.578 226.625 437.578 225.906V220.664H436.039V219.547H437.578V217.5H439.023ZM443.867 228H442.422V219.547H443.867V228ZM442.305 217.305C442.305 217.07 442.375 216.872 442.516 216.711C442.661 216.549 442.875 216.469 443.156 216.469C443.438 216.469 443.651 216.549 443.797 216.711C443.943 216.872 444.016 217.07 444.016 217.305C444.016 217.539 443.943 217.734 443.797 217.891C443.651 218.047 443.438 218.125 443.156 218.125C442.875 218.125 442.661 218.047 442.516 217.891C442.375 217.734 442.305 217.539 442.305 217.305ZM447.547 219.547L447.586 220.484C448.206 219.755 449.042 219.391 450.094 219.391C451.276 219.391 452.081 219.844 452.508 220.75C452.789 220.344 453.154 220.016 453.602 219.766C454.055 219.516 454.589 219.391 455.203 219.391C457.057 219.391 458 220.372 458.031 222.336V228H456.586V222.422C456.586 221.818 456.448 221.367 456.172 221.07C455.896 220.768 455.432 220.617 454.781 220.617C454.245 220.617 453.799 220.779 453.445 221.102C453.091 221.419 452.885 221.849 452.828 222.391V228H451.375V222.461C451.375 221.232 450.773 220.617 449.57 220.617C448.622 220.617 447.974 221.021 447.625 221.828V228H446.18V219.547H447.547ZM463.727 228.156C462.581 228.156 461.648 227.781 460.93 227.031C460.211 226.276 459.852 225.268 459.852 224.008V223.742C459.852 222.904 460.01 222.156 460.328 221.5C460.651 220.839 461.099 220.323 461.672 219.953C462.25 219.578 462.875 219.391 463.547 219.391C464.646 219.391 465.5 219.753 466.109 220.477C466.719 221.201 467.023 222.237 467.023 223.586V224.188H461.297C461.318 225.021 461.56 225.695 462.023 226.211C462.492 226.721 463.086 226.977 463.805 226.977C464.315 226.977 464.747 226.872 465.102 226.664C465.456 226.456 465.766 226.18 466.031 225.836L466.914 226.523C466.206 227.612 465.143 228.156 463.727 228.156ZM463.547 220.578C462.964 220.578 462.474 220.792 462.078 221.219C461.682 221.641 461.438 222.234 461.344 223H465.578V222.891C465.536 222.156 465.339 221.589 464.984 221.188C464.63 220.781 464.151 220.578 463.547 220.578Z" fill="#4C4D5F"/>
<path fill-rule="evenodd" clip-rule="evenodd" d="M252.968 129H270.683C277.772 129 283.507 134.748 283.507 141.821V184.544L277.745 190.907L271.981 184.544L265.766 190.907L259.66 184.544L253.556 190.907L247.682 184.544L241.577 190.907L236.549 184.544V129.451" fill="#A9E2FF"/>
<path fill-rule="evenodd" clip-rule="evenodd" d="M245.156 136.687H262.871C269.959 136.687 275.695 142.435 275.695 149.508V192.231L269.933 198.594L264.169 192.231L257.953 198.594L251.847 192.231L245.743 198.594L239.87 192.231L233.763 198.594L228.737 192.231V137.138" fill="white"/>
<path fill-rule="evenodd" clip-rule="evenodd" d="M269.932 199.317C269.727 199.317 269.536 199.236 269.4 199.085L264.154 193.296L258.474 199.113C258.336 199.249 258.117 199.331 257.953 199.331C257.762 199.331 257.571 199.249 257.434 199.113L251.848 193.296L246.261 199.113C246.126 199.249 245.934 199.331 245.742 199.331H245.73C245.524 199.331 245.334 199.249 245.196 199.099L239.842 193.31L234.269 199.113C234.12 199.263 233.914 199.345 233.709 199.331C233.504 199.317 233.3 199.222 233.177 199.058L228.15 192.695C228.055 192.572 228 192.409 228 192.245V137.151C228 136.756 228.328 136.428 228.724 136.428C229.12 136.428 229.448 136.756 229.448 137.151V191.985L233.791 197.488L239.323 191.726C239.46 191.589 239.651 191.507 239.842 191.507H239.856C240.06 191.507 240.252 191.589 240.388 191.74L245.742 197.529L251.315 191.726C251.59 191.439 252.094 191.439 252.367 191.726L257.953 197.542L263.649 191.712C263.785 191.576 263.99 191.507 264.181 191.494C264.386 191.494 264.578 191.589 264.7 191.726L269.932 197.488L274.972 191.931V149.481C274.972 142.804 269.536 137.384 262.87 137.384H245.156C244.76 137.384 244.431 137.056 244.431 136.66C244.431 136.264 244.76 135.936 245.156 135.936H262.87C270.341 135.936 276.433 142.012 276.433 149.495V192.217C276.433 192.395 276.365 192.572 276.242 192.709L270.478 199.072C270.328 199.236 270.138 199.317 269.932 199.317Z" fill="#00B487"/>
<path fill-rule="evenodd" clip-rule="evenodd" d="M249.58 152.662C249.58 151.748 250.25 151.038 251.59 150.901V154.615C249.976 154.082 249.58 153.55 249.58 152.662ZM253.242 157.537C254.853 158.042 255.317 158.602 255.317 159.53C255.317 160.541 254.579 161.196 253.242 161.346V157.537ZM247.219 161.769C248.488 162.671 249.937 163.23 251.506 163.394V164.691C251.506 165.197 251.916 165.593 252.421 165.593C252.927 165.593 253.323 165.197 253.323 164.691V163.435C255.986 163.189 257.791 161.66 257.791 159.353C257.791 157.1 256.425 155.83 253.255 155.038V151.024C253.965 151.188 254.675 151.515 255.414 151.939C255.617 152.062 255.822 152.13 256.029 152.13C256.683 152.13 257.202 151.625 257.202 150.983C257.202 150.478 256.901 150.164 256.587 149.973C255.632 149.372 254.579 148.962 253.336 148.826V148.361C253.336 147.856 252.94 147.46 252.435 147.46C251.931 147.46 251.52 147.856 251.52 148.361V148.798C248.897 149.003 247.122 150.56 247.122 152.785C247.122 155.147 248.542 156.308 251.602 157.1V161.223C250.456 161.018 249.486 160.527 248.501 159.817C248.31 159.667 248.066 159.585 247.805 159.585C247.151 159.585 246.657 160.09 246.657 160.732C246.657 161.21 246.864 161.537 247.219 161.769Z" fill="#00B487"/>
<path fill-rule="evenodd" clip-rule="evenodd" d="M265.357 174.262H239.064C238.668 174.262 238.34 173.935 238.34 173.539C238.34 173.143 238.668 172.815 239.064 172.815H265.357C265.752 172.815 266.079 173.143 266.079 173.539C266.093 173.935 265.767 174.262 265.357 174.262Z" fill="#00B487"/>
<path fill-rule="evenodd" clip-rule="evenodd" d="M262.816 179.983H241.604C241.208 179.983 240.879 179.656 240.879 179.26C240.879 178.864 241.208 178.536 241.604 178.536H262.816C263.212 178.536 263.54 178.864 263.54 179.26C263.54 179.656 263.212 179.983 262.816 179.983Z" fill="#00B487"/>
<path d="M182.672 222.93C181.385 222.56 180.448 222.107 179.859 221.57C179.276 221.029 178.984 220.362 178.984 219.57C178.984 218.674 179.341 217.935 180.055 217.352C180.773 216.763 181.706 216.469 182.852 216.469C183.633 216.469 184.328 216.62 184.938 216.922C185.552 217.224 186.026 217.641 186.359 218.172C186.698 218.703 186.867 219.284 186.867 219.914H185.359C185.359 219.227 185.141 218.688 184.703 218.297C184.266 217.901 183.648 217.703 182.852 217.703C182.112 217.703 181.534 217.867 181.117 218.195C180.706 218.518 180.5 218.969 180.5 219.547C180.5 220.01 180.695 220.404 181.086 220.727C181.482 221.044 182.151 221.336 183.094 221.602C184.042 221.867 184.781 222.161 185.312 222.484C185.849 222.802 186.245 223.174 186.5 223.602C186.76 224.029 186.891 224.531 186.891 225.109C186.891 226.031 186.531 226.771 185.812 227.328C185.094 227.88 184.133 228.156 182.93 228.156C182.148 228.156 181.419 228.008 180.742 227.711C180.065 227.409 179.542 226.997 179.172 226.477C178.807 225.956 178.625 225.365 178.625 224.703H180.133C180.133 225.391 180.385 225.935 180.891 226.336C181.401 226.732 182.081 226.93 182.93 226.93C183.721 226.93 184.328 226.768 184.75 226.445C185.172 226.122 185.383 225.682 185.383 225.125C185.383 224.568 185.188 224.138 184.797 223.836C184.406 223.529 183.698 223.227 182.672 222.93ZM192.102 228.156C190.956 228.156 190.023 227.781 189.305 227.031C188.586 226.276 188.227 225.268 188.227 224.008V223.742C188.227 222.904 188.385 222.156 188.703 221.5C189.026 220.839 189.474 220.323 190.047 219.953C190.625 219.578 191.25 219.391 191.922 219.391C193.021 219.391 193.875 219.753 194.484 220.477C195.094 221.201 195.398 222.237 195.398 223.586V224.188H189.672C189.693 225.021 189.935 225.695 190.398 226.211C190.867 226.721 191.461 226.977 192.18 226.977C192.69 226.977 193.122 226.872 193.477 226.664C193.831 226.456 194.141 226.18 194.406 225.836L195.289 226.523C194.581 227.612 193.518 228.156 192.102 228.156ZM191.922 220.578C191.339 220.578 190.849 220.792 190.453 221.219C190.057 221.641 189.812 222.234 189.719 223H193.953V222.891C193.911 222.156 193.714 221.589 193.359 221.188C193.005 220.781 192.526 220.578 191.922 220.578ZM199.039 217.5V219.547H200.617V220.664H199.039V225.906C199.039 226.245 199.109 226.5 199.25 226.672C199.391 226.839 199.63 226.922 199.969 226.922C200.135 226.922 200.365 226.891 200.656 226.828V228C200.276 228.104 199.906 228.156 199.547 228.156C198.901 228.156 198.414 227.961 198.086 227.57C197.758 227.18 197.594 226.625 197.594 225.906V220.664H196.055V219.547H197.594V217.5H199.039ZM207.641 219.547L207.68 220.484C208.299 219.755 209.135 219.391 210.188 219.391C211.37 219.391 212.174 219.844 212.602 220.75C212.883 220.344 213.247 220.016 213.695 219.766C214.148 219.516 214.682 219.391 215.297 219.391C217.151 219.391 218.094 220.372 218.125 222.336V228H216.68V222.422C216.68 221.818 216.542 221.367 216.266 221.07C215.99 220.768 215.526 220.617 214.875 220.617C214.339 220.617 213.893 220.779 213.539 221.102C213.185 221.419 212.979 221.849 212.922 222.391V228H211.469V222.461C211.469 221.232 210.867 220.617 209.664 220.617C208.716 220.617 208.068 221.021 207.719 221.828V228H206.273V219.547H207.641ZM221.883 228H220.438V219.547H221.883V228ZM220.32 217.305C220.32 217.07 220.391 216.872 220.531 216.711C220.677 216.549 220.891 216.469 221.172 216.469C221.453 216.469 221.667 216.549 221.812 216.711C221.958 216.872 222.031 217.07 222.031 217.305C222.031 217.539 221.958 217.734 221.812 217.891C221.667 218.047 221.453 218.125 221.172 218.125C220.891 218.125 220.677 218.047 220.531 217.891C220.391 217.734 220.32 217.539 220.32 217.305ZM225.57 219.547L225.617 220.609C226.263 219.797 227.107 219.391 228.148 219.391C229.935 219.391 230.836 220.398 230.852 222.414V228H229.406V222.406C229.401 221.797 229.26 221.346 228.984 221.055C228.714 220.763 228.289 220.617 227.711 220.617C227.242 220.617 226.831 220.742 226.477 220.992C226.122 221.242 225.846 221.57 225.648 221.977V228H224.203V219.547H225.57ZM234.602 228H233.156V219.547H234.602V228ZM233.039 217.305C233.039 217.07 233.109 216.872 233.25 216.711C233.396 216.549 233.609 216.469 233.891 216.469C234.172 216.469 234.385 216.549 234.531 216.711C234.677 216.872 234.75 217.07 234.75 217.305C234.75 217.539 234.677 217.734 234.531 217.891C234.385 218.047 234.172 218.125 233.891 218.125C233.609 218.125 233.396 218.047 233.25 217.891C233.109 217.734 233.039 217.539 233.039 217.305ZM238.281 219.547L238.32 220.484C238.94 219.755 239.776 219.391 240.828 219.391C242.01 219.391 242.815 219.844 243.242 220.75C243.523 220.344 243.888 220.016 244.336 219.766C244.789 219.516 245.323 219.391 245.938 219.391C247.792 219.391 248.734 220.372 248.766 222.336V228H247.32V222.422C247.32 221.818 247.182 221.367 246.906 221.07C246.63 220.768 246.167 220.617 245.516 220.617C244.979 220.617 244.534 220.779 244.18 221.102C243.826 221.419 243.62 221.849 243.562 222.391V228H242.109V222.461C242.109 221.232 241.508 220.617 240.305 220.617C239.357 220.617 238.708 221.021 238.359 221.828V228H236.914V219.547H238.281ZM256.172 227.164C255.609 227.826 254.784 228.156 253.695 228.156C252.794 228.156 252.107 227.896 251.633 227.375C251.164 226.849 250.927 226.073 250.922 225.047V219.547H252.367V225.008C252.367 226.289 252.888 226.93 253.93 226.93C255.034 226.93 255.768 226.518 256.133 225.695V219.547H257.578V228H256.203L256.172 227.164ZM261.141 219.547L261.18 220.484C261.799 219.755 262.635 219.391 263.688 219.391C264.87 219.391 265.674 219.844 266.102 220.75C266.383 220.344 266.747 220.016 267.195 219.766C267.648 219.516 268.182 219.391 268.797 219.391C270.651 219.391 271.594 220.372 271.625 222.336V228H270.18V222.422C270.18 221.818 270.042 221.367 269.766 221.07C269.49 220.768 269.026 220.617 268.375 220.617C267.839 220.617 267.393 220.779 267.039 221.102C266.685 221.419 266.479 221.849 266.422 222.391V228H264.969V222.461C264.969 221.232 264.367 220.617 263.164 220.617C262.216 220.617 261.568 221.021 261.219 221.828V228H259.773V219.547H261.141ZM284.922 223.867C284.922 225.154 284.628 226.19 284.039 226.977C283.451 227.763 282.654 228.156 281.648 228.156C280.622 228.156 279.815 227.831 279.227 227.18V231.25H277.781V219.547H279.102L279.172 220.484C279.76 219.755 280.578 219.391 281.625 219.391C282.641 219.391 283.443 219.773 284.031 220.539C284.625 221.305 284.922 222.37 284.922 223.734V223.867ZM283.477 223.703C283.477 222.75 283.273 221.997 282.867 221.445C282.461 220.893 281.904 220.617 281.195 220.617C280.32 220.617 279.664 221.005 279.227 221.781V225.82C279.659 226.591 280.32 226.977 281.211 226.977C281.904 226.977 282.453 226.703 282.859 226.156C283.271 225.604 283.477 224.786 283.477 223.703ZM290.852 220.844C290.633 220.807 290.396 220.789 290.141 220.789C289.193 220.789 288.549 221.193 288.211 222V228H286.766V219.547H288.172L288.195 220.523C288.669 219.768 289.341 219.391 290.211 219.391C290.492 219.391 290.706 219.427 290.852 219.5V220.844ZM293.758 228H292.312V219.547H293.758V228ZM292.195 217.305C292.195 217.07 292.266 216.872 292.406 216.711C292.552 216.549 292.766 216.469 293.047 216.469C293.328 216.469 293.542 216.549 293.688 216.711C293.833 216.872 293.906 217.07 293.906 217.305C293.906 217.539 293.833 217.734 293.688 217.891C293.542 218.047 293.328 218.125 293.047 218.125C292.766 218.125 292.552 218.047 292.406 217.891C292.266 217.734 292.195 217.539 292.195 217.305ZM299.469 226.977C299.984 226.977 300.435 226.82 300.82 226.508C301.206 226.195 301.419 225.805 301.461 225.336H302.828C302.802 225.82 302.635 226.281 302.328 226.719C302.021 227.156 301.609 227.505 301.094 227.766C300.583 228.026 300.042 228.156 299.469 228.156C298.318 228.156 297.401 227.773 296.719 227.008C296.042 226.237 295.703 225.185 295.703 223.852V223.609C295.703 222.786 295.854 222.055 296.156 221.414C296.458 220.773 296.891 220.276 297.453 219.922C298.021 219.568 298.69 219.391 299.461 219.391C300.409 219.391 301.195 219.674 301.82 220.242C302.451 220.81 302.786 221.547 302.828 222.453H301.461C301.419 221.906 301.211 221.458 300.836 221.109C300.466 220.755 300.008 220.578 299.461 220.578C298.727 220.578 298.156 220.844 297.75 221.375C297.349 221.901 297.148 222.664 297.148 223.664V223.938C297.148 224.911 297.349 225.661 297.75 226.188C298.151 226.714 298.724 226.977 299.469 226.977ZM307.961 228.156C306.815 228.156 305.883 227.781 305.164 227.031C304.445 226.276 304.086 225.268 304.086 224.008V223.742C304.086 222.904 304.245 222.156 304.562 221.5C304.885 220.839 305.333 220.323 305.906 219.953C306.484 219.578 307.109 219.391 307.781 219.391C308.88 219.391 309.734 219.753 310.344 220.477C310.953 221.201 311.258 222.237 311.258 223.586V224.188H305.531C305.552 225.021 305.794 225.695 306.258 226.211C306.727 226.721 307.32 226.977 308.039 226.977C308.549 226.977 308.982 226.872 309.336 226.664C309.69 226.456 310 226.18 310.266 225.836L311.148 226.523C310.44 227.612 309.378 228.156 307.961 228.156ZM307.781 220.578C307.198 220.578 306.708 220.792 306.312 221.219C305.917 221.641 305.672 222.234 305.578 223H309.812V222.891C309.771 222.156 309.573 221.589 309.219 221.188C308.865 220.781 308.385 220.578 307.781 220.578ZM317.859 225.758C317.859 225.367 317.711 225.065 317.414 224.852C317.122 224.633 316.609 224.445 315.875 224.289C315.146 224.133 314.565 223.945 314.133 223.727C313.706 223.508 313.388 223.247 313.18 222.945C312.977 222.643 312.875 222.284 312.875 221.867C312.875 221.174 313.167 220.589 313.75 220.109C314.339 219.63 315.089 219.391 316 219.391C316.958 219.391 317.734 219.638 318.328 220.133C318.927 220.628 319.227 221.26 319.227 222.031H317.773C317.773 221.635 317.604 221.294 317.266 221.008C316.932 220.721 316.51 220.578 316 220.578C315.474 220.578 315.062 220.693 314.766 220.922C314.469 221.151 314.32 221.451 314.32 221.82C314.32 222.169 314.458 222.432 314.734 222.609C315.01 222.786 315.508 222.956 316.227 223.117C316.951 223.279 317.536 223.471 317.984 223.695C318.432 223.919 318.763 224.19 318.977 224.508C319.195 224.82 319.305 225.203 319.305 225.656C319.305 226.411 319.003 227.018 318.398 227.477C317.794 227.93 317.01 228.156 316.047 228.156C315.37 228.156 314.771 228.036 314.25 227.797C313.729 227.557 313.32 227.224 313.023 226.797C312.732 226.365 312.586 225.898 312.586 225.398H314.031C314.057 225.883 314.25 226.268 314.609 226.555C314.974 226.836 315.453 226.977 316.047 226.977C316.594 226.977 317.031 226.867 317.359 226.648C317.693 226.424 317.859 226.128 317.859 225.758Z" fill="#4C4D5F"/>
<path d="M49.6719 222.93C48.3854 222.56 47.4479 222.107 46.8594 221.57C46.276 221.029 45.9844 220.362 45.9844 219.57C45.9844 218.674 46.3411 217.935 47.0547 217.352C47.7734 216.763 48.7057 216.469 49.8516 216.469C50.6328 216.469 51.3281 216.62 51.9375 216.922C52.5521 217.224 53.026 217.641 53.3594 218.172C53.6979 218.703 53.8672 219.284 53.8672 219.914H52.3594C52.3594 219.227 52.1406 218.688 51.7031 218.297C51.2656 217.901 50.6484 217.703 49.8516 217.703C49.112 217.703 48.5339 217.867 48.1172 218.195C47.7057 218.518 47.5 218.969 47.5 219.547C47.5 220.01 47.6953 220.404 48.0859 220.727C48.4818 221.044 49.151 221.336 50.0938 221.602C51.0417 221.867 51.7812 222.161 52.3125 222.484C52.849 222.802 53.2448 223.174 53.5 223.602C53.7604 224.029 53.8906 224.531 53.8906 225.109C53.8906 226.031 53.5312 226.771 52.8125 227.328C52.0938 227.88 51.1328 228.156 49.9297 228.156C49.1484 228.156 48.4193 228.008 47.7422 227.711C47.0651 227.409 46.5417 226.997 46.1719 226.477C45.8073 225.956 45.625 225.365 45.625 224.703H47.1328C47.1328 225.391 47.3854 225.935 47.8906 226.336C48.401 226.732 49.0807 226.93 49.9297 226.93C50.7214 226.93 51.3281 226.768 51.75 226.445C52.1719 226.122 52.3828 225.682 52.3828 225.125C52.3828 224.568 52.1875 224.138 51.7969 223.836C51.4062 223.529 50.6979 223.227 49.6719 222.93ZM60.8125 228C60.7292 227.833 60.6615 227.536 60.6094 227.109C59.9375 227.807 59.1354 228.156 58.2031 228.156C57.3698 228.156 56.6849 227.922 56.1484 227.453C55.6172 226.979 55.3516 226.38 55.3516 225.656C55.3516 224.776 55.6849 224.094 56.3516 223.609C57.0234 223.12 57.9661 222.875 59.1797 222.875H60.5859V222.211C60.5859 221.706 60.4349 221.305 60.1328 221.008C59.8307 220.706 59.3854 220.555 58.7969 220.555C58.2812 220.555 57.849 220.685 57.5 220.945C57.151 221.206 56.9766 221.521 56.9766 221.891H55.5234C55.5234 221.469 55.6719 221.062 55.9688 220.672C56.2708 220.276 56.6771 219.964 57.1875 219.734C57.7031 219.505 58.2682 219.391 58.8828 219.391C59.8568 219.391 60.6198 219.635 61.1719 220.125C61.724 220.609 62.0104 221.279 62.0312 222.133V226.023C62.0312 226.799 62.1302 227.417 62.3281 227.875V228H60.8125ZM58.4141 226.898C58.8672 226.898 59.2969 226.781 59.7031 226.547C60.1094 226.312 60.4036 226.008 60.5859 225.633V223.898H59.4531C57.6823 223.898 56.7969 224.417 56.7969 225.453C56.7969 225.906 56.9479 226.26 57.25 226.516C57.5521 226.771 57.9401 226.898 58.4141 226.898ZM66.9609 226.039L69.0547 219.547H70.5312L67.5 228H66.3984L63.3359 219.547H64.8125L66.9609 226.039ZM75.3203 228.156C74.1745 228.156 73.2422 227.781 72.5234 227.031C71.8047 226.276 71.4453 225.268 71.4453 224.008V223.742C71.4453 222.904 71.6042 222.156 71.9219 221.5C72.2448 220.839 72.6927 220.323 73.2656 219.953C73.8438 219.578 74.4688 219.391 75.1406 219.391C76.2396 219.391 77.0938 219.753 77.7031 220.477C78.3125 221.201 78.6172 222.237 78.6172 223.586V224.188H72.8906C72.9115 225.021 73.1536 225.695 73.6172 226.211C74.0859 226.721 74.6797 226.977 75.3984 226.977C75.9089 226.977 76.3411 226.872 76.6953 226.664C77.0495 226.456 77.3594 226.18 77.625 225.836L78.5078 226.523C77.7995 227.612 76.737 228.156 75.3203 228.156ZM75.1406 220.578C74.5573 220.578 74.0677 220.792 73.6719 221.219C73.276 221.641 73.0312 222.234 72.9375 223H77.1719V222.891C77.1302 222.156 76.9323 221.589 76.5781 221.188C76.224 220.781 75.7448 220.578 75.1406 220.578ZM85.625 219.547L85.6641 220.484C86.2839 219.755 87.1198 219.391 88.1719 219.391C89.3542 219.391 90.1589 219.844 90.5859 220.75C90.8672 220.344 91.2318 220.016 91.6797 219.766C92.1328 219.516 92.6667 219.391 93.2812 219.391C95.1354 219.391 96.0781 220.372 96.1094 222.336V228H94.6641V222.422C94.6641 221.818 94.526 221.367 94.25 221.07C93.974 220.768 93.5104 220.617 92.8594 220.617C92.3229 220.617 91.8776 220.779 91.5234 221.102C91.1693 221.419 90.9635 221.849 90.9062 222.391V228H89.4531V222.461C89.4531 221.232 88.8516 220.617 87.6484 220.617C86.7005 220.617 86.0521 221.021 85.7031 221.828V228H84.2578V219.547H85.625ZM97.9141 223.695C97.9141 222.867 98.0755 222.122 98.3984 221.461C98.7266 220.799 99.1797 220.289 99.7578 219.93C100.341 219.57 101.005 219.391 101.75 219.391C102.901 219.391 103.831 219.789 104.539 220.586C105.253 221.383 105.609 222.443 105.609 223.766V223.867C105.609 224.69 105.451 225.43 105.133 226.086C104.82 226.737 104.37 227.245 103.781 227.609C103.198 227.974 102.526 228.156 101.766 228.156C100.62 228.156 99.6901 227.758 98.9766 226.961C98.2682 226.164 97.9141 225.109 97.9141 223.797V223.695ZM99.3672 223.867C99.3672 224.805 99.5833 225.557 100.016 226.125C100.453 226.693 101.036 226.977 101.766 226.977C102.5 226.977 103.083 226.69 103.516 226.117C103.948 225.539 104.164 224.732 104.164 223.695C104.164 222.768 103.943 222.018 103.5 221.445C103.062 220.867 102.479 220.578 101.75 220.578C101.036 220.578 100.461 220.862 100.023 221.43C99.5859 221.997 99.3672 222.81 99.3672 223.867ZM108.789 219.547L108.836 220.609C109.482 219.797 110.326 219.391 111.367 219.391C113.154 219.391 114.055 220.398 114.07 222.414V228H112.625V222.406C112.62 221.797 112.479 221.346 112.203 221.055C111.932 220.763 111.508 220.617 110.93 220.617C110.461 220.617 110.049 220.742 109.695 220.992C109.341 221.242 109.065 221.57 108.867 221.977V228H107.422V219.547H108.789ZM119.758 228.156C118.612 228.156 117.68 227.781 116.961 227.031C116.242 226.276 115.883 225.268 115.883 224.008V223.742C115.883 222.904 116.042 222.156 116.359 221.5C116.682 220.839 117.13 220.323 117.703 219.953C118.281 219.578 118.906 219.391 119.578 219.391C120.677 219.391 121.531 219.753 122.141 220.477C122.75 221.201 123.055 222.237 123.055 223.586V224.188H117.328C117.349 225.021 117.591 225.695 118.055 226.211C118.523 226.721 119.117 226.977 119.836 226.977C120.346 226.977 120.779 226.872 121.133 226.664C121.487 226.456 121.797 226.18 122.062 225.836L122.945 226.523C122.237 227.612 121.174 228.156 119.758 228.156ZM119.578 220.578C118.995 220.578 118.505 220.792 118.109 221.219C117.714 221.641 117.469 222.234 117.375 223H121.609V222.891C121.568 222.156 121.37 221.589 121.016 221.188C120.661 220.781 120.182 220.578 119.578 220.578ZM127.391 225.883L129.359 219.547H130.906L127.508 229.305C126.982 230.711 126.146 231.414 125 231.414L124.727 231.391L124.188 231.289V230.117L124.578 230.148C125.068 230.148 125.448 230.049 125.719 229.852C125.995 229.654 126.221 229.292 126.398 228.766L126.719 227.906L123.703 219.547H125.281L127.391 225.883Z" fill="#4C4D5F"/>
<path fill-rule="evenodd" clip-rule="evenodd" d="M85.5867 133.28H119.274C119.564 133.28 119.794 133.507 119.794 133.793V181.659C119.794 188.877 113.876 194.72 106.566 194.72H67.7264C67.4359 194.72 67.2065 194.494 67.2065 194.207V133.793" fill="white"/>
<path fill-rule="evenodd" clip-rule="evenodd" d="M105.844 196H67.246C66.5166 196 65.924 195.402 65.924 194.666V133.319C65.924 132.874 66.2887 132.506 66.7293 132.506C67.17 132.506 67.5347 132.874 67.5347 133.319V194.375H105.844C112.651 194.375 118.183 188.793 118.183 181.924V133.625H84.9948C84.5542 133.625 84.1895 133.257 84.1895 132.813C84.1895 132.368 84.5542 132 84.9948 132H118.471C119.201 132 119.794 132.598 119.794 133.334V181.94C119.794 189.683 113.533 196 105.844 196Z" fill="#00B487"/>
<path fill-rule="evenodd" clip-rule="evenodd" d="M122.359 160.16V196H64.6414V160.16L90.0467 184.765C92.359 186.991 96.0315 186.946 98.2834 184.66L122.359 160.16Z" fill="#A9E2FF"/>
<path fill-rule="evenodd" clip-rule="evenodd" d="M92.6064 187.04C90.9619 187.04 89.3024 186.4 88.0466 185.121L66.1594 162.822C65.8455 162.502 65.8455 162 66.1594 161.68C66.4734 161.36 66.9667 161.36 67.2807 161.68L89.1679 183.978C91.0666 185.913 94.1463 185.913 96.0301 183.978L110.741 168.991C111.055 168.671 111.548 168.671 111.862 168.991C112.176 169.311 112.176 169.813 111.862 170.133L97.1513 185.121C95.9105 186.4 94.2659 187.04 92.6064 187.04Z" fill="#00B487"/>
<path fill-rule="evenodd" clip-rule="evenodd" d="M92.8587 140.96C100.65 140.96 106.967 147.263 106.967 155.04C106.967 162.816 100.65 169.12 92.8587 169.12C85.0672 169.12 78.75 162.816 78.75 155.04C78.75 147.263 85.0672 140.96 92.8587 140.96Z" fill="#00B487"/>
<path fill-rule="evenodd" clip-rule="evenodd" d="M89.8135 150.676C89.8135 149.642 90.5846 148.841 92.1269 148.686V152.881C90.2699 152.28 89.8135 151.678 89.8135 150.676ZM94.0312 156.166C95.8882 156.736 96.4233 157.369 96.4233 158.417C96.4233 159.559 95.5734 160.299 94.0312 160.468V156.166ZM87.0909 160.962C88.5545 161.98 90.2227 162.612 92.0325 162.797V164.262C92.0325 164.833 92.5046 165.28 93.0869 165.28C93.6692 165.28 94.1256 164.833 94.1256 164.262V162.843C97.1944 162.566 99.2718 160.839 99.2718 158.232C99.2718 155.688 97.698 154.254 94.0469 153.359V148.825C94.8653 149.01 95.6836 149.38 96.5334 149.858C96.7695 149.997 97.0056 150.074 97.2416 150.074C97.997 150.074 98.5951 149.504 98.5951 148.779C98.5951 148.208 98.2488 147.854 97.8869 147.638C96.7852 146.959 95.5734 146.496 94.1413 146.342V145.818C94.1413 145.247 93.6849 144.8 93.1027 144.8C92.5204 144.8 92.0482 145.247 92.0482 145.818V146.311C89.0266 146.543 86.9808 148.301 86.9808 150.815C86.9808 153.482 88.6175 154.793 92.1427 155.688V160.345C90.8207 160.114 89.7033 159.559 88.5702 158.757C88.3499 158.587 88.0666 158.495 87.7676 158.495C87.0122 158.495 86.4457 159.065 86.4457 159.79C86.4457 160.33 86.6817 160.7 87.0909 160.962Z" fill="white"/>
<path fill-rule="evenodd" clip-rule="evenodd" d="M437.06 21.9898H413.478L409.538 14H387.94C386.898 13.9963 385.898 14.4136 385.16 15.1601C384.421 15.9067 384.004 16.9213 384 17.9808V54.0193C384 56.2178 385.751 58 387.912 58H437.088C438.126 58 439.121 57.5806 439.854 56.8341C440.588 56.0876 441 55.075 441 54.0193V25.9846C440.992 23.7761 439.231 21.9898 437.06 21.9898Z" fill="#A9E2FF"/>
<path fill-rule="evenodd" clip-rule="evenodd" d="M432.218 22H446V44.0054C446 46.2061 444.252 47.9922 442.09 48H392.91C390.754 47.9923 389.008 46.2147 389 44.0195V22H432.135" fill="white"/>
<path d="M432.218 22H446V44.0054C446 46.2061 444.252 47.9922 442.09 48H392.91C390.754 47.9923 389.008 46.2147 389 44.0195V22H432.135" stroke="#00B487" stroke-linecap="round" stroke-linejoin="round"/>
<path fill-rule="evenodd" clip-rule="evenodd" d="M389 20V7.97884C389.008 5.77911 390.762 4 392.924 4H414.54L418.464 12H442.035C443.081 11.9925 444.088 12.4094 444.832 13.1586C445.576 13.9079 445.996 14.9277 446 15.9929V20H389Z" fill="white" stroke="#00B487" stroke-linecap="round" stroke-linejoin="round"/>
<path fill-rule="evenodd" clip-rule="evenodd" d="M421 22V37L424.993 32.4599L429 37V22H421Z" fill="#00B487"/>
<path d="M387.82 90.5469V95H386.32V83.625H390.516C391.76 83.625 392.734 83.9427 393.438 84.5781C394.146 85.2135 394.5 86.0547 394.5 87.1016C394.5 88.2057 394.154 89.0573 393.461 89.6562C392.773 90.25 391.786 90.5469 390.5 90.5469H387.82ZM387.82 89.3203H390.516C391.318 89.3203 391.932 89.1328 392.359 88.7578C392.786 88.3776 393 87.8307 393 87.1172C393 86.4401 392.786 85.8984 392.359 85.4922C391.932 85.0859 391.346 84.875 390.602 84.8594H387.82V89.3203ZM400.273 87.8438C400.055 87.8073 399.818 87.7891 399.562 87.7891C398.615 87.7891 397.971 88.1927 397.633 89V95H396.188V86.5469H397.594L397.617 87.5234C398.091 86.7682 398.763 86.3906 399.633 86.3906C399.914 86.3906 400.128 86.4271 400.273 86.5V87.8438ZM401.07 90.6953C401.07 89.8672 401.232 89.1224 401.555 88.4609C401.883 87.7995 402.336 87.2891 402.914 86.9297C403.497 86.5703 404.161 86.3906 404.906 86.3906C406.057 86.3906 406.987 86.7891 407.695 87.5859C408.409 88.3828 408.766 89.4427 408.766 90.7656V90.8672C408.766 91.6901 408.607 92.4297 408.289 93.0859C407.977 93.737 407.526 94.2448 406.938 94.6094C406.354 94.974 405.682 95.1562 404.922 95.1562C403.776 95.1562 402.846 94.7578 402.133 93.9609C401.424 93.1641 401.07 92.1094 401.07 90.7969V90.6953ZM402.523 90.8672C402.523 91.8047 402.74 92.5573 403.172 93.125C403.609 93.6927 404.193 93.9766 404.922 93.9766C405.656 93.9766 406.24 93.6901 406.672 93.1172C407.104 92.5391 407.32 91.7318 407.32 90.6953C407.32 89.7682 407.099 89.0182 406.656 88.4453C406.219 87.8672 405.635 87.5781 404.906 87.5781C404.193 87.5781 403.617 87.862 403.18 88.4297C402.742 88.9974 402.523 89.8099 402.523 90.8672ZM412.07 86.5469V95.9766C412.07 97.6016 411.333 98.4141 409.859 98.4141C409.542 98.4141 409.247 98.3672 408.977 98.2734V97.1172C409.143 97.1589 409.362 97.1797 409.633 97.1797C409.956 97.1797 410.201 97.0911 410.367 96.9141C410.539 96.7422 410.625 96.4401 410.625 96.0078V86.5469H412.07ZM410.477 84.3047C410.477 84.0755 410.547 83.8802 410.688 83.7188C410.833 83.5521 411.044 83.4688 411.32 83.4688C411.602 83.4688 411.815 83.5495 411.961 83.7109C412.107 83.8724 412.18 84.0703 412.18 84.3047C412.18 84.5391 412.107 84.7344 411.961 84.8906C411.815 85.0469 411.602 85.125 411.32 85.125C411.039 85.125 410.828 85.0469 410.688 84.8906C410.547 84.7344 410.477 84.5391 410.477 84.3047ZM417.914 95.1562C416.768 95.1562 415.836 94.7812 415.117 94.0312C414.398 93.276 414.039 92.2682 414.039 91.0078V90.7422C414.039 89.9036 414.198 89.1562 414.516 88.5C414.839 87.8385 415.286 87.3229 415.859 86.9531C416.438 86.5781 417.062 86.3906 417.734 86.3906C418.833 86.3906 419.688 86.7526 420.297 87.4766C420.906 88.2005 421.211 89.237 421.211 90.5859V91.1875H415.484C415.505 92.0208 415.747 92.6953 416.211 93.2109C416.68 93.7214 417.273 93.9766 417.992 93.9766C418.503 93.9766 418.935 93.8724 419.289 93.6641C419.643 93.4557 419.953 93.1797 420.219 92.8359L421.102 93.5234C420.393 94.612 419.331 95.1562 417.914 95.1562ZM417.734 87.5781C417.151 87.5781 416.661 87.7917 416.266 88.2188C415.87 88.6406 415.625 89.2344 415.531 90H419.766V89.8906C419.724 89.1562 419.526 88.5885 419.172 88.1875C418.818 87.7812 418.339 87.5781 417.734 87.5781ZM426.281 93.9766C426.797 93.9766 427.247 93.8203 427.633 93.5078C428.018 93.1953 428.232 92.8047 428.273 92.3359H429.641C429.615 92.8203 429.448 93.2812 429.141 93.7188C428.833 94.1562 428.422 94.5052 427.906 94.7656C427.396 95.026 426.854 95.1562 426.281 95.1562C425.13 95.1562 424.214 94.7734 423.531 94.0078C422.854 93.237 422.516 92.1849 422.516 90.8516V90.6094C422.516 89.7865 422.667 89.0547 422.969 88.4141C423.271 87.7734 423.703 87.276 424.266 86.9219C424.833 86.5677 425.503 86.3906 426.273 86.3906C427.221 86.3906 428.008 86.6745 428.633 87.2422C429.263 87.8099 429.599 88.5469 429.641 89.4531H428.273C428.232 88.9062 428.023 88.4583 427.648 88.1094C427.279 87.7552 426.82 87.5781 426.273 87.5781C425.539 87.5781 424.969 87.8438 424.562 88.375C424.161 88.901 423.961 89.6641 423.961 90.6641V90.9375C423.961 91.9115 424.161 92.6615 424.562 93.1875C424.964 93.7135 425.536 93.9766 426.281 93.9766ZM433.227 84.5V86.5469H434.805V87.6641H433.227V92.9062C433.227 93.2448 433.297 93.5 433.438 93.6719C433.578 93.8385 433.818 93.9219 434.156 93.9219C434.323 93.9219 434.552 93.8906 434.844 93.8281V95C434.464 95.1042 434.094 95.1562 433.734 95.1562C433.089 95.1562 432.602 94.9609 432.273 94.5703C431.945 94.1797 431.781 93.625 431.781 92.9062V87.6641H430.242V86.5469H431.781V84.5H433.227ZM441.422 92.7578C441.422 92.3672 441.273 92.0651 440.977 91.8516C440.685 91.6328 440.172 91.4453 439.438 91.2891C438.708 91.1328 438.128 90.9453 437.695 90.7266C437.268 90.5078 436.951 90.2474 436.742 89.9453C436.539 89.6432 436.438 89.2839 436.438 88.8672C436.438 88.1745 436.729 87.5885 437.312 87.1094C437.901 86.6302 438.651 86.3906 439.562 86.3906C440.521 86.3906 441.297 86.638 441.891 87.1328C442.49 87.6276 442.789 88.2604 442.789 89.0312H441.336C441.336 88.6354 441.167 88.2943 440.828 88.0078C440.495 87.7214 440.073 87.5781 439.562 87.5781C439.036 87.5781 438.625 87.6927 438.328 87.9219C438.031 88.151 437.883 88.4505 437.883 88.8203C437.883 89.1693 438.021 89.4323 438.297 89.6094C438.573 89.7865 439.07 89.9557 439.789 90.1172C440.513 90.2786 441.099 90.4714 441.547 90.6953C441.995 90.9193 442.326 91.1901 442.539 91.5078C442.758 91.8203 442.867 92.2031 442.867 92.6562C442.867 93.4115 442.565 94.0182 441.961 94.4766C441.357 94.9297 440.573 95.1562 439.609 95.1562C438.932 95.1562 438.333 95.0365 437.812 94.7969C437.292 94.5573 436.883 94.224 436.586 93.7969C436.294 93.3646 436.148 92.8984 436.148 92.3984H437.594C437.62 92.8828 437.812 93.2682 438.172 93.5547C438.536 93.8359 439.016 93.9766 439.609 93.9766C440.156 93.9766 440.594 93.8672 440.922 93.6484C441.255 93.4245 441.422 93.1276 441.422 92.7578Z" fill="#4C4D5F"/>
<path d="M231.688 91.3906C231.547 92.5938 231.102 93.5234 230.352 94.1797C229.607 94.8307 228.615 95.1562 227.375 95.1562C226.031 95.1562 224.953 94.6745 224.141 93.7109C223.333 92.7474 222.93 91.4583 222.93 89.8438V88.75C222.93 87.6927 223.117 86.763 223.492 85.9609C223.872 85.1589 224.409 84.5443 225.102 84.1172C225.794 83.6849 226.596 83.4688 227.508 83.4688C228.716 83.4688 229.685 83.8073 230.414 84.4844C231.143 85.1562 231.568 86.0885 231.688 87.2812H230.18C230.049 86.375 229.766 85.7188 229.328 85.3125C228.896 84.9062 228.289 84.7031 227.508 84.7031C226.549 84.7031 225.797 85.0573 225.25 85.7656C224.708 86.474 224.438 87.4818 224.438 88.7891V89.8906C224.438 91.125 224.695 92.1068 225.211 92.8359C225.727 93.5651 226.448 93.9297 227.375 93.9297C228.208 93.9297 228.846 93.7422 229.289 93.3672C229.737 92.987 230.034 92.3281 230.18 91.3906H231.688ZM233.133 90.6953C233.133 89.8672 233.294 89.1224 233.617 88.4609C233.945 87.7995 234.398 87.2891 234.977 86.9297C235.56 86.5703 236.224 86.3906 236.969 86.3906C238.12 86.3906 239.049 86.7891 239.758 87.5859C240.471 88.3828 240.828 89.4427 240.828 90.7656V90.8672C240.828 91.6901 240.669 92.4297 240.352 93.0859C240.039 93.737 239.589 94.2448 239 94.6094C238.417 94.974 237.745 95.1562 236.984 95.1562C235.839 95.1562 234.909 94.7578 234.195 93.9609C233.487 93.1641 233.133 92.1094 233.133 90.7969V90.6953ZM234.586 90.8672C234.586 91.8047 234.802 92.5573 235.234 93.125C235.672 93.6927 236.255 93.9766 236.984 93.9766C237.719 93.9766 238.302 93.6901 238.734 93.1172C239.167 92.5391 239.383 91.7318 239.383 90.6953C239.383 89.7682 239.161 89.0182 238.719 88.4453C238.281 87.8672 237.698 87.5781 236.969 87.5781C236.255 87.5781 235.68 87.862 235.242 88.4297C234.805 88.9974 234.586 89.8099 234.586 90.8672ZM244.008 86.5469L244.055 87.6094C244.701 86.7969 245.544 86.3906 246.586 86.3906C248.372 86.3906 249.273 87.3984 249.289 89.4141V95H247.844V89.4062C247.839 88.7969 247.698 88.3464 247.422 88.0547C247.151 87.763 246.727 87.6172 246.148 87.6172C245.68 87.6172 245.268 87.7422 244.914 87.9922C244.56 88.2422 244.284 88.5703 244.086 88.9766V95H242.641V86.5469H244.008ZM253.43 84.5V86.5469H255.008V87.6641H253.43V92.9062C253.43 93.2448 253.5 93.5 253.641 93.6719C253.781 93.8385 254.021 93.9219 254.359 93.9219C254.526 93.9219 254.755 93.8906 255.047 93.8281V95C254.667 95.1042 254.297 95.1562 253.938 95.1562C253.292 95.1562 252.805 94.9609 252.477 94.5703C252.148 94.1797 251.984 93.625 251.984 92.9062V87.6641H250.445V86.5469H251.984V84.5H253.43ZM260.789 87.8438C260.57 87.8073 260.333 87.7891 260.078 87.7891C259.13 87.7891 258.487 88.1927 258.148 89V95H256.703V86.5469H258.109L258.133 87.5234C258.607 86.7682 259.279 86.3906 260.148 86.3906C260.43 86.3906 260.643 86.4271 260.789 86.5V87.8438ZM267.031 95C266.948 94.8333 266.88 94.5365 266.828 94.1094C266.156 94.8073 265.354 95.1562 264.422 95.1562C263.589 95.1562 262.904 94.9219 262.367 94.4531C261.836 93.9792 261.57 93.3802 261.57 92.6562C261.57 91.776 261.904 91.0938 262.57 90.6094C263.242 90.1198 264.185 89.875 265.398 89.875H266.805V89.2109C266.805 88.7057 266.654 88.3047 266.352 88.0078C266.049 87.7057 265.604 87.5547 265.016 87.5547C264.5 87.5547 264.068 87.6849 263.719 87.9453C263.37 88.2057 263.195 88.5208 263.195 88.8906H261.742C261.742 88.4688 261.891 88.0625 262.188 87.6719C262.49 87.276 262.896 86.9635 263.406 86.7344C263.922 86.5052 264.487 86.3906 265.102 86.3906C266.076 86.3906 266.839 86.6354 267.391 87.125C267.943 87.6094 268.229 88.2786 268.25 89.1328V93.0234C268.25 93.7995 268.349 94.4167 268.547 94.875V95H267.031ZM264.633 93.8984C265.086 93.8984 265.516 93.7812 265.922 93.5469C266.328 93.3125 266.622 93.0078 266.805 92.6328V90.8984H265.672C263.901 90.8984 263.016 91.4167 263.016 92.4531C263.016 92.9062 263.167 93.2604 263.469 93.5156C263.771 93.7708 264.159 93.8984 264.633 93.8984ZM273.906 93.9766C274.422 93.9766 274.872 93.8203 275.258 93.5078C275.643 93.1953 275.857 92.8047 275.898 92.3359H277.266C277.24 92.8203 277.073 93.2812 276.766 93.7188C276.458 94.1562 276.047 94.5052 275.531 94.7656C275.021 95.026 274.479 95.1562 273.906 95.1562C272.755 95.1562 271.839 94.7734 271.156 94.0078C270.479 93.237 270.141 92.1849 270.141 90.8516V90.6094C270.141 89.7865 270.292 89.0547 270.594 88.4141C270.896 87.7734 271.328 87.276 271.891 86.9219C272.458 86.5677 273.128 86.3906 273.898 86.3906C274.846 86.3906 275.633 86.6745 276.258 87.2422C276.888 87.8099 277.224 88.5469 277.266 89.4531H275.898C275.857 88.9062 275.648 88.4583 275.273 88.1094C274.904 87.7552 274.445 87.5781 273.898 87.5781C273.164 87.5781 272.594 87.8438 272.188 88.375C271.786 88.901 271.586 89.6641 271.586 90.6641V90.9375C271.586 91.9115 271.786 92.6615 272.188 93.1875C272.589 93.7135 273.161 93.9766 273.906 93.9766ZM280.852 84.5V86.5469H282.43V87.6641H280.852V92.9062C280.852 93.2448 280.922 93.5 281.062 93.6719C281.203 93.8385 281.443 93.9219 281.781 93.9219C281.948 93.9219 282.177 93.8906 282.469 93.8281V95C282.089 95.1042 281.719 95.1562 281.359 95.1562C280.714 95.1562 280.227 94.9609 279.898 94.5703C279.57 94.1797 279.406 93.625 279.406 92.9062V87.6641H277.867V86.5469H279.406V84.5H280.852ZM289.047 92.7578C289.047 92.3672 288.898 92.0651 288.602 91.8516C288.31 91.6328 287.797 91.4453 287.062 91.2891C286.333 91.1328 285.753 90.9453 285.32 90.7266C284.893 90.5078 284.576 90.2474 284.367 89.9453C284.164 89.6432 284.062 89.2839 284.062 88.8672C284.062 88.1745 284.354 87.5885 284.938 87.1094C285.526 86.6302 286.276 86.3906 287.188 86.3906C288.146 86.3906 288.922 86.638 289.516 87.1328C290.115 87.6276 290.414 88.2604 290.414 89.0312H288.961C288.961 88.6354 288.792 88.2943 288.453 88.0078C288.12 87.7214 287.698 87.5781 287.188 87.5781C286.661 87.5781 286.25 87.6927 285.953 87.9219C285.656 88.151 285.508 88.4505 285.508 88.8203C285.508 89.1693 285.646 89.4323 285.922 89.6094C286.198 89.7865 286.695 89.9557 287.414 90.1172C288.138 90.2786 288.724 90.4714 289.172 90.6953C289.62 90.9193 289.951 91.1901 290.164 91.5078C290.383 91.8203 290.492 92.2031 290.492 92.6562C290.492 93.4115 290.19 94.0182 289.586 94.4766C288.982 94.9297 288.198 95.1562 287.234 95.1562C286.557 95.1562 285.958 95.0365 285.438 94.7969C284.917 94.5573 284.508 94.224 284.211 93.7969C283.919 93.3646 283.773 92.8984 283.773 92.3984H285.219C285.245 92.8828 285.438 93.2682 285.797 93.5547C286.161 93.8359 286.641 93.9766 287.234 93.9766C287.781 93.9766 288.219 93.8672 288.547 93.6484C288.88 93.4245 289.047 93.1276 289.047 92.7578Z" fill="#4C4D5F"/>
<path fill-rule="evenodd" clip-rule="evenodd" d="M244.168 10.0105H271.968C272.208 10.0105 272.397 10.2011 272.397 10.4426V50.728C272.397 56.8026 267.513 61.7207 261.481 61.7207H229.429C229.189 61.7207 229 61.5301 229 61.2886V10.4426" fill="#A9E2FF"/>
<path fill-rule="evenodd" clip-rule="evenodd" d="M242.843 22.1853L248.194 18.538L253.696 22.1853V10.0361H242.843V22.1853Z" fill="#00B487"/>
<path fill-rule="evenodd" clip-rule="evenodd" d="M261.986 46.2548H237.695C237.329 46.2548 237.026 45.9498 237.026 45.5813C237.026 45.2127 237.329 44.9077 237.695 44.9077H261.986C262.352 44.9077 262.655 45.2127 262.655 45.5813C262.655 45.9625 262.352 46.2548 261.986 46.2548Z" fill="#00B487"/>
<path fill-rule="evenodd" clip-rule="evenodd" d="M257.279 51.592H237.682C237.316 51.592 237.013 51.287 237.013 50.9184C237.013 50.5499 237.316 50.2449 237.682 50.2449H257.279C257.645 50.2449 257.948 50.5499 257.948 50.9184C257.948 51.287 257.658 51.592 257.279 51.592Z" fill="#00B487"/>
<path fill-rule="evenodd" clip-rule="evenodd" d="M252.635 1.66089H280.435C280.675 1.66089 280.864 1.85151 280.864 2.09297V42.3784C280.864 48.453 275.981 53.3711 269.949 53.3711H237.896C237.657 53.3711 237.467 53.1805 237.467 52.939V2.09297" fill="white"/>
<path fill-rule="evenodd" clip-rule="evenodd" d="M269.936 54.0446H237.884C237.278 54.0446 236.786 53.549 236.786 52.939V2.09292C236.786 1.72438 237.089 1.41938 237.455 1.41938C237.821 1.41938 238.124 1.72438 238.124 2.09292V52.6975H269.936C275.59 52.6975 280.183 48.0717 280.183 42.3783V2.34708H252.623C252.257 2.34708 251.954 2.04208 251.954 1.67354C251.954 1.305 252.257 1 252.623 1H280.423C281.029 1 281.521 1.49563 281.521 2.10563V42.391C281.533 48.8087 276.334 54.0446 269.936 54.0446Z" fill="#00B487"/>
<path fill-rule="evenodd" clip-rule="evenodd" d="M251.916 13.7212L257.279 10.0739L262.769 13.7212V1.58472H251.916V13.7212Z" fill="#00B487"/>
<path fill-rule="evenodd" clip-rule="evenodd" d="M270.454 37.9181H246.162C245.796 37.9181 245.493 37.6131 245.493 37.2446C245.493 36.876 245.796 36.571 246.162 36.571H270.454C270.82 36.571 271.122 36.876 271.122 37.2446C271.122 37.6131 270.832 37.9181 270.454 37.9181Z" fill="#00B487"/>
<path fill-rule="evenodd" clip-rule="evenodd" d="M265.747 43.2553H246.15C245.784 43.2553 245.481 42.9503 245.481 42.5817C245.481 42.2132 245.784 41.9082 246.15 41.9082H265.747C266.113 41.9082 266.416 42.2132 266.416 42.5817C266.428 42.9503 266.125 43.2553 265.747 43.2553Z" fill="#00B487"/>
<path fill-rule="evenodd" clip-rule="evenodd" d="M63.4162 31.6967C61.055 32.9432 61.1478 34.7796 63.6284 35.785L70.9642 38.7205C73.4448 39.7124 77.1989 39.1762 79.308 37.5141L111.199 12.0996C113.294 10.4241 113.521 10.6788 111.702 12.6492L86.4846 39.9135C84.654 41.8839 85.1978 44.2832 87.6784 45.2618L88.5407 45.5969C91.0346 46.562 95.0938 48.1973 97.5611 49.216L105.706 52.5671C108.173 53.5858 110.204 54.4303 110.204 54.4437C110.204 54.4571 110.216 54.5107 110.229 54.5107C110.243 54.5107 110.826 52.3928 111.531 49.7924L123.946 3.68176C124.649 1.08133 123.283 -0.0312194 120.921 1.22878L63.4162 31.6967Z" fill="white"/>
<path fill-rule="evenodd" clip-rule="evenodd" d="M112.909 10.2632C113.108 10.2632 113.294 10.3437 113.453 10.5179C114.01 11.1345 113.387 11.8717 112.233 13.1317L87.0152 40.396C86.2989 41.1734 85.9951 42.0313 86.1662 42.7954C86.3387 43.5728 86.9754 44.2028 87.9438 44.5915L88.806 44.9266C91.2734 45.8917 95.3325 47.5271 97.8264 48.5458L105.971 51.8969C107.935 52.7011 109.089 53.1837 109.792 53.4786C110.017 52.6877 110.389 51.3205 110.853 49.5779L123.269 3.46728C123.521 2.54238 123.468 1.80515 123.15 1.53706C122.818 1.26898 122.102 1.38962 121.266 1.83196L63.7611 32.2998C62.8989 32.7556 62.408 33.3051 62.4211 33.7609C62.4478 34.23 62.9917 34.726 63.907 35.0879L71.2427 38.0234C73.4846 38.9215 76.9853 38.4122 78.8836 36.9109L110.773 11.4964C111.728 10.7726 112.392 10.2632 112.909 10.2632ZM110.243 55.2211C110.163 55.2211 110.084 55.2077 110.017 55.1809C109.924 55.1541 109.845 55.0871 109.765 55.02C109.274 54.8056 107.603 54.1086 105.454 53.2373L97.3091 49.8862C94.8152 48.8675 90.756 47.2322 88.3019 46.2671L87.4397 45.932C86.0203 45.369 85.0785 44.3771 84.7866 43.1305C84.508 41.8839 84.9325 40.5703 85.9805 39.4309L108.173 15.4239L79.7591 38.0637C77.4774 39.8732 73.4183 40.463 70.7254 39.3773L63.3764 36.4417C61.3866 35.6375 61.0417 34.4847 61.0019 33.8681C60.9754 33.2515 61.2009 32.0586 63.0846 31.0666L120.59 0.598765C122.487 -0.406554 123.548 0.0759986 124.025 0.451318C124.49 0.826637 125.193 1.77834 124.622 3.8694L112.206 49.98C110.868 54.9798 110.868 54.9798 110.561 55.1407C110.482 55.1943 110.362 55.2211 110.243 55.2211Z" fill="#00B487"/>
<path fill-rule="evenodd" clip-rule="evenodd" d="M83.5797 61.883C83.4338 62.3254 88.6073 54.323 88.6073 54.323C90.0665 52.0711 89.244 49.3769 86.7621 48.3581L81.1243 46.0258C78.6583 45.0071 77.4764 46.2001 78.4991 48.6932C78.4991 48.6932 83.7243 61.4273 83.5797 61.883Z" fill="#A9E2FF"/>
<path d="M48.7734 91.4141L48.9922 92.9141L49.3125 91.5625L51.5625 83.625H52.8281L55.0234 91.5625L55.3359 92.9375L55.5781 91.4062L57.3438 83.625H58.8516L56.0938 95H54.7266L52.3828 86.7109L52.2031 85.8438L52.0234 86.7109L49.5938 95H48.2266L45.4766 83.625H46.9766L48.7734 91.4141ZM63.5547 95.1562C62.4089 95.1562 61.4766 94.7812 60.7578 94.0312C60.0391 93.276 59.6797 92.2682 59.6797 91.0078V90.7422C59.6797 89.9036 59.8385 89.1562 60.1562 88.5C60.4792 87.8385 60.9271 87.3229 61.5 86.9531C62.0781 86.5781 62.7031 86.3906 63.375 86.3906C64.474 86.3906 65.3281 86.7526 65.9375 87.4766C66.5469 88.2005 66.8516 89.237 66.8516 90.5859V91.1875H61.125C61.1458 92.0208 61.388 92.6953 61.8516 93.2109C62.3203 93.7214 62.9141 93.9766 63.6328 93.9766C64.1432 93.9766 64.5755 93.8724 64.9297 93.6641C65.2839 93.4557 65.5938 93.1797 65.8594 92.8359L66.7422 93.5234C66.0339 94.612 64.9714 95.1562 63.5547 95.1562ZM63.375 87.5781C62.7917 87.5781 62.3021 87.7917 61.9062 88.2188C61.5104 88.6406 61.2656 89.2344 61.1719 90H65.4062V89.8906C65.3646 89.1562 65.1667 88.5885 64.8125 88.1875C64.4583 87.7812 63.9792 87.5781 63.375 87.5781ZM77.7188 95C77.6354 94.8333 77.5677 94.5365 77.5156 94.1094C76.8438 94.8073 76.0417 95.1562 75.1094 95.1562C74.276 95.1562 73.5911 94.9219 73.0547 94.4531C72.5234 93.9792 72.2578 93.3802 72.2578 92.6562C72.2578 91.776 72.5911 91.0938 73.2578 90.6094C73.9297 90.1198 74.8724 89.875 76.0859 89.875H77.4922V89.2109C77.4922 88.7057 77.3411 88.3047 77.0391 88.0078C76.737 87.7057 76.2917 87.5547 75.7031 87.5547C75.1875 87.5547 74.7552 87.6849 74.4062 87.9453C74.0573 88.2057 73.8828 88.5208 73.8828 88.8906H72.4297C72.4297 88.4688 72.5781 88.0625 72.875 87.6719C73.1771 87.276 73.5833 86.9635 74.0938 86.7344C74.6094 86.5052 75.1745 86.3906 75.7891 86.3906C76.763 86.3906 77.526 86.6354 78.0781 87.125C78.6302 87.6094 78.9167 88.2786 78.9375 89.1328V93.0234C78.9375 93.7995 79.0365 94.4167 79.2344 94.875V95H77.7188ZM75.3203 93.8984C75.7734 93.8984 76.2031 93.7812 76.6094 93.5469C77.0156 93.3125 77.3099 93.0078 77.4922 92.6328V90.8984H76.3594C74.5885 90.8984 73.7031 91.4167 73.7031 92.4531C73.7031 92.9062 73.8542 93.2604 74.1562 93.5156C74.4583 93.7708 74.8464 93.8984 75.3203 93.8984ZM82.7734 95H81.3281V83H82.7734V95ZM86.6641 95H85.2188V83H86.6641V95ZM92.6016 90.7031C92.6016 89.4062 92.9089 88.3646 93.5234 87.5781C94.138 86.7865 94.9427 86.3906 95.9375 86.3906C96.9271 86.3906 97.7109 86.7292 98.2891 87.4062V83H99.7344V95H98.4062L98.3359 94.0938C97.7578 94.8021 96.9531 95.1562 95.9219 95.1562C94.9427 95.1562 94.1432 94.7552 93.5234 93.9531C92.9089 93.151 92.6016 92.1042 92.6016 90.8125V90.7031ZM94.0469 90.8672C94.0469 91.8255 94.2448 92.5755 94.6406 93.1172C95.0365 93.6589 95.5833 93.9297 96.2812 93.9297C97.1979 93.9297 97.8672 93.5182 98.2891 92.6953V88.8125C97.8568 88.0156 97.1927 87.6172 96.2969 87.6172C95.5885 87.6172 95.0365 87.8906 94.6406 88.4375C94.2448 88.9844 94.0469 89.7943 94.0469 90.8672ZM101.602 90.6953C101.602 89.8672 101.763 89.1224 102.086 88.4609C102.414 87.7995 102.867 87.2891 103.445 86.9297C104.029 86.5703 104.693 86.3906 105.438 86.3906C106.589 86.3906 107.518 86.7891 108.227 87.5859C108.94 88.3828 109.297 89.4427 109.297 90.7656V90.8672C109.297 91.6901 109.138 92.4297 108.82 93.0859C108.508 93.737 108.057 94.2448 107.469 94.6094C106.885 94.974 106.214 95.1562 105.453 95.1562C104.307 95.1562 103.378 94.7578 102.664 93.9609C101.956 93.1641 101.602 92.1094 101.602 90.7969V90.6953ZM103.055 90.8672C103.055 91.8047 103.271 92.5573 103.703 93.125C104.141 93.6927 104.724 93.9766 105.453 93.9766C106.188 93.9766 106.771 93.6901 107.203 93.1172C107.635 92.5391 107.852 91.7318 107.852 90.6953C107.852 89.7682 107.63 89.0182 107.188 88.4453C106.75 87.8672 106.167 87.5781 105.438 87.5781C104.724 87.5781 104.148 87.862 103.711 88.4297C103.273 88.9974 103.055 89.8099 103.055 90.8672ZM112.477 86.5469L112.523 87.6094C113.169 86.7969 114.013 86.3906 115.055 86.3906C116.841 86.3906 117.742 87.3984 117.758 89.4141V95H116.312V89.4062C116.307 88.7969 116.167 88.3464 115.891 88.0547C115.62 87.763 115.195 87.6172 114.617 87.6172C114.148 87.6172 113.737 87.7422 113.383 87.9922C113.029 88.2422 112.753 88.5703 112.555 88.9766V95H111.109V86.5469H112.477ZM123.445 95.1562C122.299 95.1562 121.367 94.7812 120.648 94.0312C119.93 93.276 119.57 92.2682 119.57 91.0078V90.7422C119.57 89.9036 119.729 89.1562 120.047 88.5C120.37 87.8385 120.818 87.3229 121.391 86.9531C121.969 86.5781 122.594 86.3906 123.266 86.3906C124.365 86.3906 125.219 86.7526 125.828 87.4766C126.438 88.2005 126.742 89.237 126.742 90.5859V91.1875H121.016C121.036 92.0208 121.279 92.6953 121.742 93.2109C122.211 93.7214 122.805 93.9766 123.523 93.9766C124.034 93.9766 124.466 93.8724 124.82 93.6641C125.174 93.4557 125.484 93.1797 125.75 92.8359L126.633 93.5234C125.924 94.612 124.862 95.1562 123.445 95.1562ZM123.266 87.5781C122.682 87.5781 122.193 87.7917 121.797 88.2188C121.401 88.6406 121.156 89.2344 121.062 90H125.297V89.8906C125.255 89.1562 125.057 88.5885 124.703 88.1875C124.349 87.7812 123.87 87.5781 123.266 87.5781ZM130.039 91.7891H128.734L128.633 83.625H130.148L130.039 91.7891ZM128.578 94.2734C128.578 94.0391 128.648 93.8438 128.789 93.6875C128.935 93.526 129.148 93.4453 129.43 93.4453C129.711 93.4453 129.924 93.526 130.07 93.6875C130.216 93.8438 130.289 94.0391 130.289 94.2734C130.289 94.5078 130.216 94.7031 130.07 94.8594C129.924 95.0104 129.711 95.0859 129.43 95.0859C129.148 95.0859 128.935 95.0104 128.789 94.8594C128.648 94.7031 128.578 94.5078 128.578 94.2734Z" fill="#4C4D5F"/>
</svg>
