<svg width="647" height="711" viewBox="0 0 647 711" fill="none" xmlns="http://www.w3.org/2000/svg">
<path d="M537.144 670.502H487.097V647.804H435.961V620.977L397.882 584.863H340.219V480.653H265.148V351.679L170.494 441.445V612.723H120.447V688.592H99.775V667.407H62.784V709.777H562.167V694.234L537.144 670.502Z" fill="#F4F4F4"/>
<path d="M38.8484 709.777H586.103" stroke="black" stroke-width="1.5" stroke-miterlimit="10"/>
<path d="M270.936 506.761H277.773V513.245H270.936V506.761Z" fill="white"/>
<path d="M287.574 506.761H294.411V513.245H287.574V506.761Z" fill="white"/>
<path d="M304.211 506.761H311.049V513.245H304.211V506.761Z" fill="white"/>
<path d="M270.936 524.244H277.773V530.728H270.936V524.244Z" fill="white"/>
<path d="M287.574 524.244H294.411V530.728H287.574V524.244Z" fill="white"/>
<path d="M304.211 524.244H311.049V530.728H304.211V524.244Z" fill="white"/>
<path d="M270.936 541.728H277.773V548.212H270.936V541.728Z" fill="white"/>
<path d="M287.574 541.728H294.411V548.212H287.574V541.728Z" fill="white"/>
<path d="M304.211 541.728H311.049V548.212H304.211V541.728Z" fill="white"/>
<path d="M270.936 559.21H277.773V565.694H270.936V559.21Z" fill="white"/>
<path d="M287.574 559.21H294.411V565.694H287.574V559.21Z" fill="white"/>
<path d="M304.211 559.21H311.049V565.694H304.211V559.21Z" fill="white"/>
<path d="M270.936 576.693H277.773V583.178H270.936V576.693Z" fill="white"/>
<path d="M287.574 576.693H294.411V583.178H287.574V576.693Z" fill="white"/>
<path d="M304.211 576.693H311.049V583.178H304.211V576.693Z" fill="white"/>
<path d="M270.936 594.177H277.773V600.661H270.936V594.177Z" fill="white"/>
<path d="M287.574 594.177H294.411V600.661H287.574V594.177Z" fill="white"/>
<path d="M304.211 594.177H311.049V600.661H304.211V594.177Z" fill="white"/>
<path d="M270.936 611.66H277.773V618.144H270.936V611.66Z" fill="white"/>
<path d="M287.574 611.66H294.411V618.144H287.574V611.66Z" fill="white"/>
<path d="M304.211 611.66H311.049V618.144H304.211V611.66Z" fill="white"/>
<path d="M270.936 629.143H277.773V635.627H270.936V629.143Z" fill="white"/>
<path d="M287.574 629.143H294.411V635.627H287.574V629.143Z" fill="white"/>
<path d="M304.211 629.143H311.049V635.627H304.211V629.143Z" fill="white"/>
<path d="M270.936 646.626H277.773V653.11H270.936V646.626Z" fill="white"/>
<path d="M287.574 646.626H294.411V653.11H287.574V646.626Z" fill="white"/>
<path d="M304.211 646.626H311.049V653.11H304.211V646.626Z" fill="white"/>
<path d="M516.941 304.739C516.941 304.739 399.409 479.903 513.288 670.28L516.044 708.097L584.844 668.797L546.444 514.429L600.044 414.299L561.401 280.521" fill="#E2E2E2"/>
<path d="M532.838 269.008L644.562 271.113L643.541 390.785V708.097H556.538L565.737 690.425L532.838 269.008Z" fill="#EDEEEF"/>
<path d="M600.143 58.1121V94.8346L557.707 106.016V44.0442L600.143 32.8633V58.1121Z" fill="#EDEEEF"/>
<path d="M576.171 70.8174C576.798 70.8174 577.306 70.2729 577.306 69.6011C577.306 68.9293 576.798 68.3848 576.171 68.3848C575.545 68.3848 575.037 68.9293 575.037 69.6011C575.037 70.2729 575.545 70.8174 576.171 70.8174Z" fill="black"/>
<path d="M593.599 70.8174C594.225 70.8174 594.733 70.2729 594.733 69.6011C594.733 68.9293 594.225 68.3848 593.599 68.3848C592.972 68.3848 592.464 68.9293 592.464 69.6011C592.464 70.2729 592.972 70.8174 593.599 70.8174Z" fill="black"/>
<path d="M588.486 76.8573V58.1123H597.246" stroke="black" stroke-width="1.5" stroke-miterlimit="10"/>
<path d="M574.034 58.1123H582.794" stroke="black" stroke-width="1.5" stroke-miterlimit="10"/>
<path d="M560.502 67.7172V74.2267C559.723 74.2267 558.952 74.0622 558.232 73.7427C557.513 73.4232 556.859 72.9549 556.308 72.3645C555.758 71.7741 555.321 71.0732 555.023 70.3019C554.725 69.5305 554.571 68.7038 554.571 67.8688C554.571 67.6737 554.579 67.4808 554.595 67.2901C554.928 63.3421 560.502 63.7531 560.502 67.7172Z" fill="#EDEEEF"/>
<path d="M560.502 74.227C559.723 74.227 558.952 74.0625 558.232 73.743C557.513 73.4235 556.859 72.9552 556.308 72.3648C555.758 71.7744 555.321 71.0735 555.023 70.3022C554.725 69.5308 554.571 68.7041 554.571 67.8691" stroke="black" stroke-width="1.5" stroke-miterlimit="10"/>
<path d="M584.655 81.4789C583.063 81.4789 581.536 80.8009 580.41 79.5941C579.284 78.3873 578.652 76.7506 578.652 75.0439" stroke="#FF6498" stroke-width="1.5" stroke-linecap="round" stroke-linejoin="round"/>
<path d="M600.143 94.835L557.707 106.016" stroke="black" stroke-width="1.5" stroke-miterlimit="10"/>
<path d="M588.486 76.8721L584.655 77.8815" stroke="black" stroke-width="1.5" stroke-miterlimit="10" stroke-linecap="round"/>
<path d="M561.11 66.1906C561.11 66.1906 569.377 57.9005 569.51 49.8962C569.51 49.8962 600.71 54.8989 605.377 53.4696L602.044 46.6088C605.792 45.0434 609.406 43.1304 612.844 40.8914C612.844 40.8914 572.71 10.8754 554.444 42.4637C554.444 42.4637 542.219 48.7527 554.865 66.1906" stroke="black" stroke-width="1.5" stroke-miterlimit="10"/>
<path d="M644.562 171.775V271.114L513.288 305.702V195.066C513.288 176.003 519.25 157.491 530.222 142.489C541.193 127.487 556.54 116.862 573.808 112.312H573.808C582.219 110.096 590.99 109.959 599.458 111.912C607.925 113.865 615.867 117.857 622.684 123.586C629.5 129.314 635.012 136.63 638.802 144.978C642.592 153.327 644.562 162.49 644.562 171.775L644.562 171.775Z" fill="#6E8EC8"/>
<path d="M623.644 237.854C605.544 260.165 566.24 257.722 527.993 245.101C535.394 260.732 555.397 271.939 578.925 271.939C608.748 271.939 632.925 253.94 632.925 231.738C632.924 229.663 632.712 227.593 632.291 225.567C629.684 229.877 626.794 233.983 623.644 237.854V237.854Z" fill="black"/>
<path d="M565.737 690.425L532.838 269.008" stroke="black" stroke-width="1.5" stroke-miterlimit="10"/>
<path d="M636.374 140.131C636.374 140.131 663.648 188.541 623.644 237.853C583.64 287.165 440.044 215.555 433.244 180.394C426.444 145.232 431.644 148.234 439.244 155.523C446.844 162.813 450.844 161.098 450.844 161.098C450.844 161.098 452.044 147.376 456.044 151.235C460.044 155.095 461.244 162.384 461.244 162.384L557.707 189.827L581.653 147.376" stroke="black" stroke-width="1.5" stroke-miterlimit="10"/>
<path d="M552.098 121.846C552.098 121.846 516.479 145.617 501.862 173.94" stroke="black" stroke-width="1.5" stroke-miterlimit="10"/>
<path d="M456.177 208.107C456.177 208.107 405.11 213.126 379.51 217.7C353.91 222.274 382.71 227.991 382.71 227.991C382.71 227.991 396.044 248.574 418.977 240.569C418.977 240.569 465.732 264.582 513.288 251.432" stroke="black" stroke-width="1.5" stroke-miterlimit="10"/>
<path d="M55.2515 321.191H368.907V564.996H55.2515V321.191Z" fill="#D6D6D6"/>
<path d="M368.907 321.191V564.996" stroke="black" stroke-width="1.5" stroke-miterlimit="10"/>
<path d="M106.178 404.74L103.389 394.691C101.241 386.954 96.8206 380.168 90.7845 375.342C84.7484 370.516 77.4198 367.909 69.8899 367.909H0.548492L55.2515 564.996H368.907L324.427 404.74H106.178Z" fill="#EDEEEF"/>
<path d="M55.2515 564.996H368.907" stroke="black" stroke-width="1.5" stroke-miterlimit="10"/>
<path d="M368.907 564.996L324.427 404.739H106.178" stroke="black" stroke-width="1.5" stroke-miterlimit="10"/>
<path d="M169.626 43.8252V276.378H336.216V107.883L276.462 43.8252H169.626Z" fill="#D6D6D6"/>
<path d="M169.626 276.379H336.216V107.883" stroke="black" stroke-width="1.5" stroke-miterlimit="10"/>
<path d="M199.267 142.727H268.838" stroke="black" stroke-width="1.5" stroke-miterlimit="10"/>
<path d="M199.267 158.43H268.838" stroke="black" stroke-width="1.5" stroke-miterlimit="10"/>
<path d="M199.267 174.133H268.838" stroke="black" stroke-width="1.5" stroke-miterlimit="10"/>
<path d="M199.267 189.837H234.053" stroke="black" stroke-width="1.5" stroke-miterlimit="10"/>
<path d="M110.503 0.671875V233.225H277.093V64.7292L217.338 0.671875H110.503Z" fill="#EDEEEF"/>
<path d="M110.503 233.224H277.093V64.7285" stroke="black" stroke-width="1.5" stroke-miterlimit="10"/>
<path d="M277.093 64.7292L217.338 0.671875V64.7292H277.093Z" fill="#6E8EC8"/>
<path d="M159.012 99.5723H228.583" stroke="black" stroke-width="1.5" stroke-miterlimit="10"/>
<path d="M159.012 115.275H228.583" stroke="black" stroke-width="1.5" stroke-miterlimit="10"/>
<path d="M159.012 130.979H228.583" stroke="black" stroke-width="1.5" stroke-miterlimit="10"/>
<path d="M159.012 146.683H193.798" stroke="black" stroke-width="1.5" stroke-miterlimit="10"/>
</svg>
