<svg width="994" height="834" viewBox="0 0 994 834" fill="none" xmlns="http://www.w3.org/2000/svg">
<path d="M964.93 703.07C973.755 711.904 979.891 723.063 982.622 735.248C985.354 747.433 984.569 760.143 980.36 771.9C979.514 774.261 978.533 776.572 977.42 778.82C973.268 787.202 967.381 794.605 960.151 800.539C952.92 806.473 944.511 810.802 935.48 813.24C932.852 813.956 930.179 814.5 927.48 814.87C924.478 815.284 921.451 815.491 918.42 815.49H93.9001C78.5576 815.506 63.6953 810.141 51.9001 800.33C50.32 799.03 48.8067 797.653 47.3601 796.2C46.55 795.39 45.7501 794.56 44.9801 793.7C43.9801 792.61 43.0501 791.49 42.1501 790.33C39.3292 786.759 36.8924 782.901 34.8801 778.82C34.6101 778.28 34.3501 777.74 34.1001 777.19C33.3001 775.457 32.5801 773.693 31.9401 771.9C28.1527 761.41 27.0962 750.129 28.8701 739.119C30.6439 728.108 35.1898 717.73 42.0801 708.96C42.9801 707.8 43.9301 706.68 44.9101 705.59C51.0773 698.718 58.6245 693.223 67.0591 689.465C75.4938 685.707 84.6261 683.77 93.8601 683.78H179.72C180.8 683.78 181.87 683.74 182.93 683.66C185.651 683.466 188.346 683.01 190.98 682.3C193.278 681.686 195.52 680.876 197.68 679.88C202.373 677.728 206.646 674.758 210.3 671.11C214.328 667.107 217.525 662.347 219.706 657.104C221.887 651.861 223.01 646.239 223.01 640.56C223.013 638.923 222.919 637.286 222.73 635.66C221.745 627.045 218.195 618.925 212.542 612.352C206.888 605.778 199.39 601.053 191.02 598.79C188.386 598.081 185.691 597.626 182.97 597.43C181.91 597.35 180.84 597.31 179.76 597.31H166.28C158.773 597.317 151.289 596.478 143.97 594.81H143.9L143.39 594.69C142.83 594.57 142.28 594.43 141.73 594.29L140.91 594.08C140.19 593.89 139.47 593.7 138.76 593.49C138.05 593.28 137.56 593.14 136.97 592.95C132.481 591.585 128.096 589.897 123.85 587.9C122.91 587.46 121.97 587.01 121.05 586.53C119.53 585.76 118.05 584.96 116.57 584.11C113.803 582.53 111.137 580.817 108.57 578.97C106.41 577.44 104.32 575.82 102.29 574.13C99.9701 572.203 97.7434 570.17 95.6101 568.03C78.1349 550.636 67.7309 527.381 66.4101 502.76C66.3701 502.02 66.34 501.28 66.3201 500.54C66.3201 499.45 66.2601 498.35 66.2601 497.26C66.2601 496.78 66.2601 496.26 66.2601 495.83C66.3142 491.816 66.6081 487.809 67.1401 483.83C68.9729 470.226 73.5919 457.146 80.7084 445.408C87.8249 433.67 97.2858 423.526 108.5 415.61C110.953 413.863 113.483 412.233 116.09 410.72C116.24 410.63 116.39 410.54 116.55 410.46C121.034 407.875 125.715 405.648 130.55 403.8C132.65 402.99 134.78 402.26 136.94 401.59C139.1 400.92 141.53 400.28 143.87 399.75C151.211 398.07 158.719 397.225 166.25 397.23H239.91C249.053 397.225 257.969 394.384 265.43 389.1C267.446 387.663 269.339 386.061 271.09 384.31C278.739 376.674 283.309 366.49 283.93 355.7C283.98 354.85 284.01 353.99 284.01 353.12C284.008 346.511 282.522 339.987 279.66 334.03C276.799 328.072 272.637 322.833 267.48 318.7C266.81 318.16 266.13 317.7 265.43 317.16C262.919 315.363 260.219 313.844 257.38 312.63C256.69 312.32 255.99 312.04 255.28 311.78C250.364 309.946 245.157 309.011 239.91 309.02H105.36C92.9291 309.051 80.5924 306.863 68.9301 302.56C64.8187 301.038 60.8103 299.251 56.93 297.21C55.21 296.31 53.5201 295.367 51.8601 294.38C49.4934 292.973 47.1867 291.473 44.9401 289.88C43.9401 289.2 43.0401 288.51 42.1101 287.8C39.3268 285.678 36.6564 283.411 34.1101 281.01C33.21 280.18 32.3301 279.33 31.4601 278.46C17.2462 264.284 7.42353 246.309 3.17005 226.69C3.05005 226.163 2.94005 225.633 2.84005 225.1C2.48005 223.34 2.17005 221.57 1.91005 219.77C1.16987 214.704 0.798888 209.59 0.800052 204.47C0.800052 204.07 0.800052 203.67 0.800052 203.27C1.03432 179.444 9.43525 156.419 24.6001 138.04C25.5401 136.9 26.5101 135.77 27.5001 134.67C28.7601 133.25 30.0701 131.87 31.4101 130.53C32.2801 129.66 33.16 128.81 34.0601 127.98L34.3201 127.74C35.0701 127.04 35.82 126.36 36.59 125.69C38.3767 124.123 40.2167 122.623 42.1101 121.19C43.0401 120.48 43.9801 119.79 44.9401 119.11C45.9001 118.43 46.68 117.9 47.5601 117.31C48.9701 116.37 50.4001 115.46 51.8601 114.6L52.5701 114.18C54.0001 113.34 55.46 112.53 56.93 111.77C60.8085 109.729 64.8172 107.945 68.9301 106.43C80.5853 102.093 92.924 99.8811 105.36 99.9C106.416 99.899 107.47 99.8422 108.52 99.73C111.273 99.4316 113.968 98.7343 116.52 97.66C123.478 94.7819 129.053 89.3247 132.08 82.43C133.265 79.7258 134.027 76.8557 134.34 73.92C134.444 73.0003 134.497 72.0756 134.5 71.15C134.5 71.02 134.5 70.89 134.5 70.76V49.95C134.495 45.132 135.189 40.3388 136.56 35.72C136.69 35.29 136.82 34.86 136.96 34.44C139.987 25.1489 145.675 16.951 153.319 10.8641C160.964 4.7771 170.227 1.06901 179.96 0.20002C180.96 0.11002 181.96 0.0500195 182.96 0.0200195H184.45H477.45C478.56 0.0200195 479.65 0.0200201 480.74 0.13002C483.452 0.29724 486.144 0.691962 488.79 1.31002C497.508 3.34225 505.519 7.68421 511.98 13.88C512.25 14.13 512.51 14.39 512.77 14.65C521.74 23.6004 526.958 35.635 527.36 48.3V49.97C527.36 49.97 527.36 50.97 527.36 51.39C527.427 53.737 527.661 56.0763 528.06 58.39C528.14 58.88 528.24 59.39 528.33 59.86C528.52 60.79 528.74 61.72 528.97 62.63C529.739 65.5549 530.773 68.4035 532.06 71.14C532.5 72.08 532.97 73.01 533.46 73.91C533.69 74.34 533.93 74.76 534.18 75.18C535.678 77.7439 537.405 80.1671 539.34 82.42C540.766 84.0888 542.302 85.659 543.94 87.12C544.67 87.78 545.42 88.41 546.18 89.03C548.969 91.2393 551.986 93.1435 555.18 94.71C555.81 95.03 556.45 95.33 557.1 95.62C563.473 98.4469 570.369 99.9017 577.34 99.89H723.49C726.36 99.89 729.19 100.04 731.99 100.32C742.098 101.349 751.929 104.234 760.99 108.83C767.308 112.042 773.192 116.044 778.5 120.74C778.98 121.17 779.45 121.59 779.92 122.03C780.39 122.47 780.71 122.76 781.09 123.14C781.96 123.97 782.8 124.81 783.6 125.68C783.92 125.99 784.21 126.31 784.5 126.68C784.541 126.705 784.575 126.739 784.6 126.78C784.91 127.11 785.21 127.44 785.49 127.78C785.77 128.12 786.21 128.58 786.55 128.99C787.05 129.56 787.55 130.14 788.01 130.73C788.37 131.16 788.72 131.6 789.01 132.05C789.3 132.5 789.68 132.91 790.01 133.35C790.34 133.79 790.69 134.25 791.01 134.71C791.157 134.897 791.297 135.087 791.43 135.28C792.08 136.2 792.71 137.13 793.32 138.08C793.72 138.71 794.12 139.34 794.51 139.98C795.19 141.1 795.84 142.24 796.51 143.39C797.41 145.057 798.257 146.757 799.05 148.49C799.763 150.03 800.43 151.597 801.05 153.19C802.125 155.97 803.043 158.807 803.8 161.69C804.22 163.24 804.59 164.81 804.91 166.39C805.486 169.202 805.91 172.043 806.18 174.9C806.45 177.608 806.583 180.328 806.58 183.05V251.36C806.577 258.517 807.985 265.604 810.724 272.216C813.462 278.829 817.477 284.836 822.538 289.896C827.6 294.956 833.609 298.968 840.222 301.704C846.836 304.44 853.923 305.845 861.08 305.84H944.21C952.412 305.844 960.482 307.907 967.68 311.84C971.179 313.749 974.436 316.073 977.38 318.76C977.93 319.26 978.47 319.76 978.99 320.3C980.212 321.523 981.37 322.808 982.46 324.15C989.538 332.907 993.399 343.826 993.399 355.085C993.399 366.345 989.538 377.263 982.46 386.02C981.37 387.362 980.212 388.647 978.99 389.87C971.341 397.545 961.365 402.468 950.62 403.87C948.495 404.152 946.354 404.292 944.21 404.29C941.269 404.291 938.344 404.708 935.52 405.53C932.688 406.364 929.993 407.607 927.52 409.22C926.75 409.71 926.01 410.22 925.29 410.79C921.578 413.677 918.575 417.375 916.511 421.6C914.447 425.826 913.376 430.467 913.38 435.17V533.9C913.405 548.58 908.313 562.809 898.98 574.14C897.667 575.75 896.271 577.292 894.8 578.76C891.905 581.657 888.734 584.263 885.33 586.54C884.64 587.02 883.94 587.47 883.23 587.91C882.23 588.53 881.23 589.12 880.16 589.68L878.7 590.45C878.578 590.521 878.451 590.585 878.32 590.64C877.83 590.89 877.32 591.13 876.84 591.36C876.786 591.399 876.725 591.426 876.66 591.44C876.11 591.7 875.56 591.95 875.01 592.18C874.46 592.41 873.83 592.68 873.24 592.91C871.398 593.65 869.519 594.294 867.61 594.84C865.478 595.461 863.315 595.968 861.13 596.36C858.468 596.828 855.78 597.129 853.08 597.26C852.08 597.31 850.99 597.34 849.94 597.34C839.314 597.335 829.057 601.242 821.127 608.315C813.196 615.388 808.146 625.132 806.94 635.69C806.751 637.316 806.657 638.953 806.66 640.59C806.659 646.271 807.777 651.896 809.951 657.145C812.124 662.393 815.311 667.162 819.328 671.179C823.346 675.195 828.115 678.381 833.364 680.553C838.613 682.726 844.239 683.843 849.92 683.84H918.44C921.471 683.837 924.499 684.047 927.5 684.47C930.199 684.836 932.871 685.378 935.5 686.09C936.39 686.33 937.27 686.59 938.15 686.86C948.251 690.03 957.438 695.59 964.93 703.07Z" fill="#F3F4FE"/>
<path d="M42.0801 121.19V287.75C39.2968 285.628 36.6265 283.361 34.0801 280.96V127.96L34.3401 127.72C35.0901 127.02 35.8401 126.34 36.6101 125.67C38.3967 124.117 40.2201 122.623 42.0801 121.19Z" fill="#EFF1FD"/>
<path d="M34.08 722.1C36.221 717.421 38.9062 713.01 42.08 708.96V790.33C39.2592 786.759 36.8224 782.901 34.81 778.82C34.54 778.28 34.28 777.74 34.03 777.19L34.08 722.1Z" fill="#EFF1FD"/>
<path d="M116.57 97.66V309.03H108.57V99.73C111.323 99.4316 114.018 98.7343 116.57 97.66Z" fill="#EFF1FD"/>
<path d="M116.08 410.73C116.23 410.64 116.38 410.55 116.54 410.47V584.06C113.773 582.48 111.107 580.767 108.54 578.92V415.62C110.98 413.867 113.493 412.237 116.08 410.73Z" fill="#EFF1FD"/>
<path d="M108.52 683.78H116.57V815.49H108.52V683.78Z" fill="#EFF1FD"/>
<path d="M191.02 0V309H182.97V0H184.46H191.02Z" fill="#EFF1FD"/>
<path d="M182.97 397.24H191.02V598.76C188.386 598.051 185.69 597.596 182.97 597.4V397.24Z" fill="#EFF1FD"/>
<path d="M182.97 683.66C185.691 683.466 188.386 683.01 191.02 682.3V815.49H182.97V683.66Z" fill="#EFF1FD"/>
<path d="M265.46 0V317.17C262.948 315.373 260.249 313.854 257.41 312.64V0H265.46Z" fill="#EFF1FD"/>
<path d="M257.41 393.63C260.245 392.411 262.943 390.896 265.46 389.11V815.49H257.41V393.63Z" fill="#EFF1FD"/>
<path d="M331.86 0H339.91V815.49H331.86V0Z" fill="#EFF1FD"/>
<path d="M406.31 0H414.36V815.49H406.31V0Z" fill="#EFF1FD"/>
<path d="M488.8 1.28999V815.49H480.75V0.109985C483.462 0.277205 486.154 0.671927 488.8 1.28999Z" fill="#EFF1FD"/>
<path d="M563.25 97.88V815.49H555.25V94.72C555.88 95.04 556.52 95.34 557.17 95.63C559.145 96.5127 561.176 97.2643 563.25 97.88Z" fill="#EFF1FD"/>
<path d="M629.65 99.9H637.7V815.49H629.65V99.9Z" fill="#EFF1FD"/>
<path d="M704.09 99.9H712.14V815.49H704.09V99.9Z" fill="#EFF1FD"/>
<path d="M786.59 128.95V815.49H778.59V120.75C779.07 121.18 779.54 121.6 780.01 122.04C780.48 122.48 780.8 122.77 781.18 123.15C782.05 123.98 782.89 124.82 783.69 125.69C784.01 126 784.3 126.32 784.59 126.69C784.631 126.715 784.665 126.749 784.69 126.79C785 127.12 785.3 127.45 785.58 127.79C785.86 128.13 786.25 128.56 786.59 128.95Z" fill="#EFF1FD"/>
<path d="M861.08 305.84V596.3C858.418 596.768 855.73 597.069 853.03 597.2V305.2C855.694 305.611 858.385 305.825 861.08 305.84Z" fill="#EFF1FD"/>
<path d="M852.99 683.78H861.04V815.49H852.99V683.78Z" fill="#EFF1FD"/>
<path d="M935.48 305.84V405.47C932.648 406.304 929.953 407.547 927.48 409.16V305.84H935.48Z" fill="#EFF1FD"/>
<path d="M935.48 686.03V813.24C932.851 813.956 930.179 814.5 927.48 814.87V684.41C930.179 684.776 932.851 685.318 935.48 686.03Z" fill="#EFF1FD"/>
<path d="M84.3201 833.5H140.78C145.64 833.5 149.58 829.56 149.58 824.7V824.69C149.58 819.83 145.64 815.89 140.78 815.89H84.3201C79.46 815.89 75.5201 819.83 75.5201 824.69V824.7C75.5201 829.56 79.46 833.5 84.3201 833.5Z" fill="#7986BF"/>
<path d="M165.54 833.5H957.88C962.74 833.5 966.68 829.56 966.68 824.7V824.69C966.68 819.83 962.74 815.89 957.88 815.89H165.54C160.68 815.89 156.74 819.83 156.74 824.69V824.7C156.74 829.56 160.68 833.5 165.54 833.5Z" fill="#7986BF"/>
<path d="M209.34 55.93H255.44C256.05 55.9261 256.654 56.043 257.218 56.2742C257.782 56.5053 258.295 56.8461 258.726 57.2767C259.158 57.7073 259.5 58.2192 259.732 58.7828C259.964 59.3463 260.083 59.9504 260.08 60.56V171H209.34V55.93Z" fill="#6675AD"/>
<path d="M206.08 55.93H252.18V171H201.43V60.56C201.43 59.9546 201.549 59.3551 201.781 58.7958C202.013 58.2365 202.352 57.7283 202.78 57.3002C203.208 56.8722 203.716 56.5326 204.276 56.3009C204.835 56.0692 205.435 55.95 206.04 55.95L206.08 55.93Z" fill="#7986BF"/>
<path d="M226.09 103.64C232.817 103.64 238.27 98.1868 238.27 91.46C238.27 84.7332 232.817 79.28 226.09 79.28C219.363 79.28 213.91 84.7332 213.91 91.46C213.91 98.1868 219.363 103.64 226.09 103.64Z" fill="#6675AD"/>
<path d="M226.09 96.99C229.144 96.99 231.62 94.5141 231.62 91.46C231.62 88.4059 229.144 85.93 226.09 85.93C223.036 85.93 220.56 88.4059 220.56 91.46C220.56 94.5141 223.036 96.99 226.09 96.99Z" fill="#F3F4FE"/>
<path d="M226.09 167.83C237.025 167.83 245.89 158.965 245.89 148.03C245.89 137.095 237.025 128.23 226.09 128.23C215.155 128.23 206.29 137.095 206.29 148.03C206.29 158.965 215.155 167.83 226.09 167.83Z" fill="#6675AD"/>
<path d="M226.09 157.01C231.05 157.01 235.07 152.99 235.07 148.03C235.07 143.07 231.05 139.05 226.09 139.05C221.131 139.05 217.11 143.07 217.11 148.03C217.11 152.99 221.131 157.01 226.09 157.01Z" fill="#F3F4FE"/>
<path d="M308.72 55.93H354.82C356.043 55.93 357.215 56.4157 358.08 57.2802C358.944 58.1448 359.43 59.3173 359.43 60.54V171H308.72V55.93Z" fill="#6675AD"/>
<path d="M305.42 55.93H351.52V171H300.81V60.56C300.807 59.9529 300.925 59.3513 301.155 58.7897C301.386 58.2281 301.725 57.7175 302.153 57.2873C302.582 56.8571 303.091 56.5157 303.651 56.2828C304.212 56.0499 304.813 55.93 305.42 55.93Z" fill="#7986BF"/>
<path d="M325.47 103.64C332.197 103.64 337.65 98.1868 337.65 91.46C337.65 84.7332 332.197 79.28 325.47 79.28C318.743 79.28 313.29 84.7332 313.29 91.46C313.29 98.1868 318.743 103.64 325.47 103.64Z" fill="#6675AD"/>
<path d="M325.47 96.99C328.524 96.99 331 94.5141 331 91.46C331 88.4059 328.524 85.93 325.47 85.93C322.416 85.93 319.94 88.4059 319.94 91.46C319.94 94.5141 322.416 96.99 325.47 96.99Z" fill="#F3F4FE"/>
<path d="M325.47 167.83C336.405 167.83 345.27 158.965 345.27 148.03C345.27 137.095 336.405 128.23 325.47 128.23C314.535 128.23 305.67 137.095 305.67 148.03C305.67 158.965 314.535 167.83 325.47 167.83Z" fill="#6675AD"/>
<path d="M325.47 157.01C330.43 157.01 334.45 152.99 334.45 148.03C334.45 143.07 330.43 139.05 325.47 139.05C320.51 139.05 316.49 143.07 316.49 148.03C316.49 152.99 320.51 157.01 325.47 157.01Z" fill="#F3F4FE"/>
<path d="M130.23 194.07H429.76L410.04 171H149.96L130.23 194.07Z" fill="#D2D6FA"/>
<path d="M373.66 194.06V225.02L352.64 239.81V194.06H373.66Z" fill="#D2D6FA"/>
<path d="M212.46 194.06V239.81L191.44 225.02V194.06H212.46Z" fill="#D2D6FA"/>
<path d="M191.44 194.06H212.46V203.63H191.44V194.06Z" fill="#969ECC"/>
<path d="M352.64 194.06H373.66V203.63H352.64V194.06Z" fill="#969ECC"/>
<path d="M647.04 189.4H761.15V317.54H647.04V189.4Z" fill="#D2D6FA"/>
<path d="M657.03 200.61H751.17V306.32H657.03V200.61Z" fill="#F3F4FE"/>
<path d="M684.94 235.14L710.19 281.73L665.21 284.72L684.94 235.14Z" fill="#D2D6FA"/>
<path d="M740.09 212.85L722.49 244.72L704.09 219.8L740.09 212.85Z" fill="#D2D6FA"/>
<path d="M737.33 259.93L733.64 281.93L717.94 271.27L737.33 259.93Z" fill="#D2D6FA"/>
<path d="M523.36 205.9C538.095 205.9 550.04 193.955 550.04 179.22C550.04 164.485 538.095 152.54 523.36 152.54C508.625 152.54 496.68 164.485 496.68 179.22C496.68 193.955 508.625 205.9 523.36 205.9Z" fill="#332D52"/>
<path d="M526.617 330.862C540.608 320.119 543.241 300.068 532.497 286.077C521.754 272.086 501.702 269.453 487.712 280.197L406.597 342.483C392.606 353.226 389.973 373.278 400.717 387.269C411.46 401.26 431.511 403.892 445.502 393.149L526.617 330.862Z" fill="#FAEEDE"/>
<path d="M426.15 399.76C445.082 399.76 460.43 384.412 460.43 365.48C460.43 346.548 445.082 331.2 426.15 331.2C407.218 331.2 391.87 346.548 391.87 365.48C391.87 384.412 407.218 399.76 426.15 399.76Z" fill="#F2E6D7"/>
<path d="M357.655 240.241L357.646 240.246C344.762 247.036 339.822 262.985 346.612 275.869L399.488 376.198C406.278 389.082 422.227 394.022 435.111 387.232L435.12 387.228C448.004 380.438 452.944 364.489 446.154 351.605L393.278 251.275C386.488 238.391 370.539 233.451 357.655 240.241Z" fill="#EF948C"/>
<path d="M357.604 284.37C370.843 290.115 386.231 284.043 391.975 270.807C397.719 257.571 391.644 242.184 378.406 236.439L357.444 227.342C344.206 221.597 328.818 227.669 323.074 240.905C317.33 254.141 323.405 269.528 336.643 275.273L357.604 284.37Z" fill="#EF948C"/>
<path d="M366.257 251.768C371.045 253.846 376.61 251.649 378.688 246.861C380.766 242.073 378.569 236.508 373.781 234.43L325.245 213.366C320.457 211.288 314.892 213.485 312.814 218.273C310.736 223.061 312.933 228.626 317.721 230.704L366.257 251.768Z" fill="#EF948C"/>
<path d="M371.901 249.834C374.771 254.166 380.61 255.35 384.942 252.48C389.273 249.609 390.458 243.771 387.588 239.439L371.401 215.012C368.531 210.68 362.692 209.496 358.36 212.366C354.028 215.237 352.844 221.075 355.714 225.407L371.901 249.834Z" fill="#EA8681"/>
<path d="M371.87 269.66C382.154 269.66 390.49 261.324 390.49 251.04C390.49 240.756 382.154 232.42 371.87 232.42C361.586 232.42 353.25 240.756 353.25 251.04C353.25 261.324 361.586 269.66 371.87 269.66Z" fill="#EA8681"/>
<path d="M526.617 330.862C540.608 320.119 543.241 300.068 532.497 286.077C521.754 272.086 501.702 269.453 487.712 280.197L406.597 342.483C392.606 353.226 389.973 373.278 400.717 387.269C411.46 401.26 431.511 403.892 445.502 393.149L526.617 330.862Z" fill="#F2E6D7"/>
<path d="M426.15 399.76C445.082 399.76 460.43 384.412 460.43 365.48C460.43 346.548 445.082 331.2 426.15 331.2C407.218 331.2 391.87 346.548 391.87 365.48C391.87 384.412 407.218 399.76 426.15 399.76Z" fill="#FAEEDE"/>
<path d="M357.655 240.241L357.646 240.246C344.762 247.036 339.822 262.985 346.612 275.869L399.488 376.198C406.278 389.082 422.227 394.022 435.111 387.232L435.12 387.228C448.004 380.438 452.944 364.489 446.154 351.605L393.278 251.275C386.488 238.391 370.539 233.451 357.655 240.241Z" fill="#EF948C"/>
<path d="M357.604 284.37C370.843 290.115 386.231 284.043 391.975 270.807C397.719 257.571 391.644 242.184 378.405 236.439L357.444 227.342C344.206 221.597 328.818 227.669 323.074 240.905C317.33 254.141 323.405 269.528 336.643 275.273L357.604 284.37Z" fill="#EF948C"/>
<path d="M323.08 240.88C324.016 238.729 325.233 236.711 326.7 234.88C324.833 241.012 325.29 247.618 327.985 253.434C330.681 259.251 335.424 263.87 341.31 266.41L343.86 267.52L353.79 271.83L361.02 285.56L404.14 367.39C406.184 371.262 409.16 374.565 412.799 377C416.437 379.435 420.625 380.927 424.984 381.341C429.343 381.755 433.736 381.077 437.768 379.37C441.8 377.662 445.344 374.978 448.08 371.56C446.558 376.561 443.585 380.998 439.537 384.306C435.489 387.615 430.55 389.646 425.346 390.142C420.141 390.638 414.907 389.577 410.307 387.093C405.707 384.609 401.949 380.814 399.51 376.19L349.16 280.63L336.67 275.21C333.522 273.85 330.673 271.883 328.286 269.421C325.899 266.959 324.02 264.051 322.758 260.862C321.496 257.674 320.875 254.268 320.93 250.839C320.985 247.41 321.716 244.026 323.08 240.88Z" fill="#EA8681"/>
<path d="M366.257 251.768C371.045 253.846 376.61 251.649 378.688 246.861C380.766 242.074 378.569 236.508 373.781 234.43L325.245 213.366C320.457 211.288 314.892 213.485 312.814 218.273C310.736 223.061 312.933 228.626 317.721 230.704L366.257 251.768Z" fill="#EF948C"/>
<path d="M371.901 249.834C374.771 254.166 380.61 255.35 384.942 252.48C389.274 249.609 390.458 243.771 387.588 239.439L371.401 215.012C368.531 210.68 362.692 209.496 358.36 212.366C354.029 215.237 352.844 221.075 355.714 225.407L371.901 249.834Z" fill="#EF948C"/>
<path d="M371.87 269.66C382.154 269.66 390.49 261.324 390.49 251.04C390.49 240.756 382.154 232.42 371.87 232.42C361.587 232.42 353.25 240.756 353.25 251.04C353.25 261.324 361.587 269.66 371.87 269.66Z" fill="#EF948C"/>
<path d="M525.15 364.12C552.797 364.12 575.21 341.707 575.21 314.06C575.21 286.413 552.797 264 525.15 264C497.503 264 475.09 286.413 475.09 314.06C475.09 341.707 497.503 364.12 525.15 364.12Z" fill="#F2E6D7"/>
<path d="M505.878 329.963L509.497 489.462C510.154 518.394 534.141 541.316 563.073 540.66L609.251 539.612C638.183 538.955 661.105 514.969 660.449 486.037L656.829 326.538C656.172 297.605 632.186 274.683 603.254 275.34L557.076 276.388C528.143 277.044 505.221 301.031 505.878 329.963Z" fill="#FAEEDE"/>
<path d="M484.682 311.948C484.385 297.123 489.991 282.787 500.264 272.094C510.538 261.401 524.638 255.227 539.464 254.93L623.594 253.248C638.42 252.951 652.756 258.556 663.449 268.83C674.142 279.104 680.316 293.204 680.612 308.03C680.854 320.142 678.709 332.183 674.297 343.465C669.886 354.748 663.296 365.051 654.903 373.787C646.51 382.522 636.478 389.519 625.381 394.378C614.284 399.237 602.338 401.862 590.227 402.104L578.747 402.334C554.287 402.821 530.637 393.571 512.996 376.621C495.356 359.671 485.171 336.408 484.682 311.948Z" fill="#FAEEDE"/>
<path d="M588.65 401.02H588.74C613.194 400.464 636.426 390.217 653.325 372.532C670.224 354.847 679.405 331.174 678.85 306.72C678.514 291.898 672.305 277.817 661.587 267.574C650.869 257.331 636.522 251.765 621.7 252.1L537.59 254.01C533.747 254.094 529.923 254.577 526.18 255.45L606.92 253.61H608.22C622.82 253.617 636.837 259.335 647.276 269.542C657.714 279.749 663.746 293.634 664.08 308.23C664.576 330.135 657.259 351.502 643.438 368.504C629.617 385.506 610.195 397.033 588.65 401.02Z" fill="#FFF7EE"/>
<path d="M551.43 213.18L552.51 260.82C552.659 267.955 555.602 274.746 560.704 279.735C565.807 284.724 572.664 287.512 579.8 287.5H580.42C584.006 287.418 587.54 286.63 590.821 285.182C594.103 283.733 597.066 281.651 599.542 279.056C602.018 276.462 603.958 273.404 605.252 270.059C606.545 266.713 607.166 263.146 607.08 259.56L606.72 243.24L606 211.93C605.841 204.798 602.895 198.013 597.795 193.026C592.694 188.04 585.843 185.248 578.71 185.25H578.08C570.843 185.423 563.971 188.462 558.974 193.699C553.977 198.936 551.264 205.943 551.43 213.18Z" fill="#EF948C"/>
<path d="M378.338 499.897L378.433 504.086C378.943 526.592 397.602 544.422 420.107 543.911L620.895 539.355C643.401 538.844 661.231 520.186 660.72 497.68L660.625 493.491C660.114 470.986 641.456 453.156 618.951 453.667L418.162 458.223C395.657 458.734 377.827 477.392 378.338 499.897Z" fill="#332D52"/>
<path d="M575.21 499.65V755.56H660.93V499.65C660.93 488.283 656.414 477.381 648.377 469.343C640.339 461.306 629.437 456.79 618.07 456.79C606.703 456.79 595.801 461.306 587.763 469.343C579.726 477.381 575.21 488.283 575.21 499.65Z" fill="#666DA2"/>
<path d="M575.21 499.65V755.56H597.5V538.56C597.501 531.12 599.439 523.809 603.122 517.346C606.805 510.882 612.106 505.487 618.505 501.693C624.904 497.899 632.181 495.835 639.619 495.705C647.058 495.574 654.402 497.382 660.93 500.95V499.61C660.93 488.243 656.414 477.341 648.377 469.303C640.339 461.266 629.437 456.75 618.07 456.75C606.703 456.75 595.801 461.266 587.763 469.303C579.726 477.341 575.21 488.243 575.21 499.61V499.65Z" fill="#555A8B"/>
<path d="M575.21 718.68V755.54H660.93V732.14L575.21 718.68Z" fill="#141334"/>
<path d="M291.79 726.83L368.2 757.46L376.83 735.09L460.98 517.09C465.072 506.481 464.783 494.682 460.175 484.286C455.567 473.891 447.019 465.752 436.41 461.66C425.801 457.568 414.002 457.857 403.606 462.465C393.211 467.073 385.072 475.621 380.98 486.23L302.13 690.61L291.82 717.28L291.79 726.83Z" fill="#332D52"/>
<path d="M343.449 791.949L283.473 768.794L296.158 735.938L356.134 759.093L343.449 791.949Z" fill="#EA8681"/>
<path d="M650.22 795.13H585.93V762.21H650.22V795.13Z" fill="#EF948C"/>
<path d="M551.43 213.18L552.51 260.82C552.563 263.323 552.96 265.806 553.69 268.2H555.69C565.536 268.205 575.252 265.955 584.093 261.621C592.933 257.287 600.663 250.986 606.69 243.2L605.97 211.89C605.811 204.758 602.865 197.973 597.765 192.986C592.664 188 585.813 185.208 578.68 185.21H578.08C574.493 185.296 570.959 186.087 567.678 187.539C564.397 188.992 561.435 191.076 558.96 193.673C556.485 196.271 554.546 199.33 553.254 202.678C551.962 206.025 551.342 209.593 551.43 213.18Z" fill="#EA8681"/>
<path d="M504.08 190.86C504.081 207.366 510.403 223.245 521.748 235.233C533.093 247.222 548.599 254.41 565.08 255.32C566.23 255.38 567.38 255.41 568.55 255.41C577.094 255.516 585.574 253.925 593.498 250.729C601.422 247.533 608.633 242.796 614.712 236.792C620.792 230.788 625.618 223.636 628.913 215.753C632.207 207.869 633.904 199.409 633.904 190.865C633.904 182.321 632.207 173.861 628.913 165.977C625.618 158.094 620.792 150.942 614.712 144.938C608.633 138.934 601.422 134.197 593.498 131.001C585.574 127.805 577.094 126.214 568.55 126.32C567.38 126.32 566.23 126.32 565.08 126.41C548.6 127.318 533.094 134.504 521.749 146.491C510.403 158.478 504.081 174.355 504.08 190.86Z" fill="#EF948C"/>
<path d="M541.99 208.28C541.992 210.172 542.368 212.046 543.095 213.793C543.823 215.539 544.888 217.126 546.23 218.46C546.56 218.79 546.91 219.1 547.23 219.39C549.812 221.516 553.056 222.673 556.4 222.66H556.99C560.605 222.649 564.084 221.279 566.737 218.823C569.389 216.367 571.022 213.004 571.31 209.4C571.31 209 571.31 208.6 571.31 208.2C571.313 207.829 571.242 207.461 571.102 207.117C570.961 206.774 570.753 206.462 570.49 206.2C569.957 205.676 569.238 205.384 568.49 205.39L544.67 205.45C543.942 205.479 543.255 205.791 542.754 206.319C542.253 206.848 541.979 207.552 541.99 208.28Z" fill="#962F4A"/>
<path d="M556.72 220.44C556.722 221.185 556.796 221.929 556.94 222.66H557.02C560.635 222.649 564.114 221.279 566.767 218.823C569.419 216.367 571.052 213.004 571.34 209.4C570.304 209.097 569.229 208.945 568.15 208.95C566.645 208.954 565.156 209.254 563.767 209.834C562.378 210.413 561.117 211.261 560.055 212.328C558.994 213.395 558.153 214.66 557.581 216.052C557.009 217.444 556.716 218.935 556.72 220.44Z" fill="#E1617F"/>
<path d="M545.3 205.48C545.42 208.31 549.79 210.56 555.15 210.55C560.51 210.54 564.86 208.26 564.96 205.43L545.3 205.48Z" fill="white"/>
<path d="M504.08 190.86C504.081 207.366 510.403 223.245 521.748 235.233C533.093 247.222 548.599 254.41 565.08 255.32C566.86 255.23 568.63 255.06 570.38 254.81C554.926 252.688 540.764 245.042 530.512 233.286C520.259 221.53 514.611 206.459 514.611 190.86C514.611 175.261 520.259 160.19 530.512 148.434C540.764 136.678 554.926 129.032 570.38 126.91C568.63 126.67 566.86 126.5 565.08 126.41C548.6 127.318 533.094 134.504 521.749 146.491C510.403 158.478 504.081 174.355 504.08 190.86Z" fill="#EA8681"/>
<path d="M621.88 305.67V306.34C622.51 327.66 636.73 344.57 654.09 344.82H655.21C673.27 344.35 687.61 326.04 687.21 303.94C687.01 291.7 684.41 281.8 677.21 274.65C672.904 270.68 667.786 267.694 662.21 265.9C657.656 264.551 652.827 264.427 648.21 265.54C632.97 269.22 621.56 285.93 621.88 305.67Z" fill="#FAEEDE"/>
<path d="M620.59 304.84V305.52C621.14 320.91 628.72 334.07 639.48 340.52C633.869 332.99 630.725 323.908 630.48 314.52C630.48 314.29 630.48 314.07 630.48 313.84C630.05 293.78 641.72 276.84 657.48 273.2C659.388 272.746 661.339 272.498 663.3 272.46C666.233 272.402 669.158 272.796 671.97 273.63C674.426 274.361 676.778 275.403 678.97 276.73C674.77 271.003 668.854 266.764 662.08 264.63C657.371 263.224 652.375 263.075 647.59 264.2C631.82 267.87 620.15 284.79 620.59 304.84Z" fill="#F2E6D7"/>
<path d="M691.928 294.059C684.492 278.063 665.497 271.123 649.501 278.558C633.504 285.994 626.564 304.989 634 320.985L677.108 413.726C684.543 429.722 703.538 436.662 719.535 429.227C735.531 421.791 742.471 402.796 735.036 386.8L691.928 294.059Z" fill="#FAEEDE"/>
<path d="M703.8 433.98C722.732 433.98 738.08 418.632 738.08 399.7C738.08 380.768 722.732 365.42 703.8 365.42C684.868 365.42 669.52 380.768 669.52 399.7C669.52 418.632 684.868 433.98 703.8 433.98Z" fill="#F2E6D7"/>
<path d="M691.928 294.059C684.492 278.063 665.497 271.123 649.501 278.558C633.504 285.994 626.564 304.989 634 320.985L677.108 413.726C684.543 429.722 703.538 436.662 719.535 429.227C735.531 421.791 742.471 402.796 735.036 386.8L691.928 294.059Z" fill="#FAEEDE"/>
<path d="M632.79 297.11C635.86 292.265 640.178 288.335 645.29 285.735C650.403 283.134 656.121 281.958 661.845 282.33C667.569 282.703 673.087 284.61 677.819 287.851C682.552 291.092 686.324 295.548 688.74 300.75L731.84 393.49C735.335 400.988 735.78 409.551 733.08 417.37C736.327 412.252 738.06 406.321 738.08 400.26C738.076 395.618 737.052 391.033 735.08 386.83L691.98 294.09C689.303 288.314 684.961 283.47 679.51 280.18C674.06 276.89 667.751 275.305 661.393 275.627C655.034 275.949 648.918 278.165 643.828 281.99C638.739 285.814 634.909 291.073 632.83 297.09L632.79 297.11Z" fill="#FFF7EE"/>
<path d="M703.8 433.98C722.732 433.98 738.08 418.632 738.08 399.7C738.08 380.768 722.732 365.42 703.8 365.42C684.868 365.42 669.52 380.768 669.52 399.7C669.52 418.632 684.868 433.98 703.8 433.98Z" fill="#F2E6D7"/>
<path d="M518.63 176.06H614.95C632.027 176.06 645.87 162.217 645.87 145.14C645.87 128.063 632.027 114.22 614.95 114.22H518.63C501.553 114.22 487.71 128.063 487.71 145.14C487.71 162.217 501.553 176.06 518.63 176.06Z" fill="#332D52"/>
<path d="M627.82 205.9C642.555 205.9 654.5 193.955 654.5 179.22C654.5 164.485 642.555 152.54 627.82 152.54C613.085 152.54 601.14 164.485 601.14 179.22C601.14 193.955 613.085 205.9 627.82 205.9Z" fill="#332D52"/>
<path d="M632.59 205.9C644.691 205.9 654.5 196.091 654.5 183.99C654.5 171.889 644.691 162.08 632.59 162.08C620.489 162.08 610.68 171.889 610.68 183.99C610.68 196.091 620.489 205.9 632.59 205.9Z" fill="#49466B"/>
<path d="M633.11 212.26C644.923 212.26 654.5 202.683 654.5 190.87C654.5 179.057 644.923 169.48 633.11 169.48C621.297 169.48 611.72 179.057 611.72 190.87C611.72 202.683 621.297 212.26 633.11 212.26Z" fill="#EF948C"/>
<path d="M631.43 197.56V184.19C631.431 183.857 631.51 183.528 631.662 183.232C631.814 182.935 632.035 182.679 632.305 182.483C632.575 182.288 632.888 182.16 633.217 182.109C633.547 182.058 633.883 182.086 634.2 182.19C636.04 182.78 637.645 183.939 638.784 185.499C639.923 187.06 640.537 188.943 640.537 190.875C640.537 192.807 639.923 194.69 638.784 196.251C637.645 197.811 636.04 198.97 634.2 199.56C633.883 199.662 633.547 199.688 633.219 199.636C632.89 199.584 632.578 199.456 632.309 199.261C632.039 199.066 631.819 198.811 631.666 198.515C631.514 198.22 631.433 197.893 631.43 197.56Z" fill="#EA8681"/>
<path d="M523.36 176.61C545.932 176.61 564.23 158.312 564.23 135.74C564.23 113.168 545.932 94.87 523.36 94.87C500.788 94.87 482.49 113.168 482.49 135.74C482.49 158.312 500.788 176.61 523.36 176.61Z" fill="#332D52"/>
<path d="M486.21 135.74C486.206 140.577 487.227 145.36 489.207 149.773C491.187 154.186 494.08 158.129 497.695 161.342C501.311 164.555 505.567 166.965 510.182 168.413C514.797 169.86 519.667 170.313 524.47 169.74C516.159 168.75 508.499 164.747 502.941 158.488C497.384 152.229 494.315 144.15 494.315 135.78C494.315 127.41 497.384 119.331 502.941 113.072C508.499 106.813 516.159 102.81 524.47 101.82C519.667 101.247 514.797 101.7 510.182 103.147C505.567 104.595 501.311 107.005 497.695 110.218C494.08 113.431 491.187 117.374 489.207 121.787C487.227 126.2 486.206 130.983 486.21 135.82V135.74Z" fill="#49466B"/>
<path d="M555.72 139.14C571.25 139.14 583.84 126.55 583.84 111.02C583.84 95.4898 571.25 82.9 555.72 82.9C540.19 82.9 527.6 95.4898 527.6 111.02C527.6 126.55 540.19 139.14 555.72 139.14Z" fill="#332D52"/>
<path d="M524.47 185.81C524.541 187.774 525.372 189.634 526.786 190.998C528.201 192.362 530.09 193.125 532.055 193.125C534.02 193.125 535.909 192.362 537.324 190.998C538.738 189.634 539.569 187.774 539.64 185.81C539.642 185.217 539.572 184.626 539.43 184.05C539.036 185.71 538.094 187.188 536.755 188.246C535.417 189.304 533.761 189.879 532.055 189.879C530.349 189.879 528.693 189.304 527.355 188.246C526.016 187.188 525.074 185.71 524.68 184.05C524.538 184.626 524.468 185.217 524.47 185.81Z" fill="#332D52"/>
<path d="M566.14 185.81C566.14 187.823 566.94 189.754 568.363 191.177C569.786 192.6 571.717 193.4 573.73 193.4C575.743 193.4 577.674 192.6 579.097 191.177C580.52 189.754 581.32 187.823 581.32 185.81C581.322 185.217 581.252 184.626 581.11 184.05C580.712 185.708 579.767 187.183 578.428 188.238C577.09 189.293 575.435 189.867 573.73 189.867C572.025 189.867 570.37 189.293 569.031 188.238C567.693 187.183 566.748 185.708 566.35 184.05C566.208 184.626 566.138 185.217 566.14 185.81Z" fill="#332D52"/>
<path d="M575.22 811.49H656.9C656.901 801.86 653.5 792.539 647.298 785.173C641.095 777.807 632.489 772.868 623 771.23C620.707 770.844 618.385 770.65 616.06 770.65C610.696 770.649 605.385 771.704 600.43 773.756C595.474 775.808 590.971 778.816 587.179 782.609C583.386 786.401 580.378 790.904 578.326 795.86C576.274 800.815 575.219 806.126 575.22 811.49Z" fill="#332D52"/>
<path d="M575.22 811.49H594.08C594.085 802.599 596.877 793.933 602.065 786.713C607.253 779.493 614.575 774.081 623 771.24C620.707 770.854 618.385 770.66 616.06 770.66C610.697 770.659 605.387 771.714 600.432 773.765C595.477 775.816 590.975 778.824 587.182 782.615C583.39 786.407 580.381 790.908 578.329 795.863C576.276 800.817 575.22 806.127 575.22 811.49Z" fill="#49466B"/>
<path d="M563.91 804.1C563.914 804.899 563.994 805.696 564.15 806.48C564.227 806.861 564.324 807.239 564.44 807.61C564.553 807.977 564.686 808.338 564.84 808.69C565.279 809.742 565.872 810.723 566.6 811.6C566.84 811.89 567.09 812.16 567.36 812.43C567.626 812.696 567.906 812.946 568.2 813.18C570.305 814.925 572.956 815.877 575.69 815.87H662.85C665.168 815.875 667.395 814.973 669.056 813.356C670.717 811.739 671.679 809.537 671.737 807.22C671.794 804.903 670.943 802.656 669.364 800.959C667.785 799.262 665.605 798.25 663.29 798.14L597.95 793.78L576.26 792.33C574.308 792.23 572.362 792.622 570.6 793.47C570.089 793.72 569.594 794.004 569.12 794.32C568.658 794.628 568.214 794.962 567.79 795.32C567.37 795.7 566.979 796.111 566.62 796.55C566.377 796.84 566.15 797.144 565.94 797.46C565.184 798.571 564.629 799.807 564.3 801.11C564.199 801.485 564.119 801.866 564.06 802.25C563.962 802.862 563.912 803.48 563.91 804.1Z" fill="#332D52"/>
<path d="M563.91 804.1C563.914 804.899 563.994 805.696 564.15 806.48C564.222 806.862 564.319 807.24 564.44 807.61C564.548 807.979 564.682 808.34 564.84 808.69C565.279 809.742 565.872 810.723 566.6 811.6C566.84 811.89 567.09 812.16 567.36 812.43C567.626 812.696 567.906 812.946 568.2 813.18C570.305 814.925 572.956 815.877 575.69 815.87H603.64C601.024 815.877 598.481 815.012 596.411 813.412C594.342 811.812 592.864 809.569 592.212 807.036C591.559 804.503 591.769 801.825 592.808 799.424C593.847 797.024 595.657 795.038 597.95 793.78L576.26 792.33C574.308 792.23 572.362 792.622 570.6 793.47C569.578 793.963 568.632 794.6 567.79 795.36C567.37 795.74 566.979 796.151 566.62 796.59C566.374 796.878 566.147 797.182 565.94 797.5C565.184 798.611 564.629 799.847 564.3 801.15C564.199 801.525 564.119 801.906 564.06 802.29C563.964 802.889 563.914 803.494 563.91 804.1Z" fill="#49466B"/>
<path d="M346.806 802.247L281.179 774.659L291.58 749.917L346.541 773.02C347.942 773.609 349.213 774.468 350.282 775.548C351.35 776.628 352.196 777.908 352.77 779.315C353.344 780.721 353.636 782.227 353.628 783.747C353.62 785.266 353.313 786.769 352.724 788.17L346.806 802.247Z" fill="#49466B"/>
<path d="M231.59 762.62L306.89 794.27C308.968 789.326 310.052 784.021 310.08 778.657C310.108 773.294 309.079 767.978 307.053 763.012C305.026 758.047 302.041 753.529 298.269 749.717C294.496 745.905 290.009 742.873 285.065 740.795C280.121 738.717 274.816 737.633 269.452 737.605C264.089 737.577 258.773 738.606 253.807 740.632C248.842 742.659 244.324 745.644 240.512 749.417C236.7 753.189 233.668 757.676 231.59 762.62Z" fill="#332D52"/>
<path d="M231.59 762.62L252.75 771.56C256.171 763.419 262.137 756.606 269.756 752.142C277.375 747.678 286.236 745.804 295.01 746.8C290.087 742.799 284.299 740 278.106 738.624C271.913 737.248 265.485 737.334 259.331 738.874C253.177 740.414 247.466 743.366 242.651 747.496C237.836 751.627 234.049 756.822 231.59 762.67V762.62Z" fill="#49466B"/>
<path d="M351.79 798.66L243.62 746.89C242.182 746.202 240.618 745.814 239.025 745.748C237.432 745.682 235.843 745.94 234.352 746.506C232.862 747.073 231.502 747.936 230.355 749.044C229.208 750.151 228.298 751.48 227.68 752.95C227.079 754.376 226.766 755.907 226.757 757.454C226.748 759.001 227.044 760.535 227.628 761.968C228.212 763.401 229.073 764.705 230.161 765.805C231.249 766.905 232.544 767.78 233.97 768.38L344.52 814.85C345.594 815.302 346.747 815.538 347.912 815.545C349.078 815.552 350.233 815.328 351.312 814.888C352.391 814.448 353.373 813.799 354.202 812.979C355.03 812.16 355.689 811.185 356.14 810.11C357.024 808.008 357.065 805.647 356.255 803.515C355.445 801.383 353.846 799.645 351.79 798.66Z" fill="#332D52"/>
<path d="M227.68 752.96C226.47 755.839 226.454 759.081 227.633 761.972C228.813 764.864 231.092 767.168 233.97 768.38L259.73 779.21C257.247 778.177 255.192 776.326 253.906 773.964C252.621 771.602 252.182 768.871 252.664 766.225C253.145 763.579 254.517 761.177 256.552 759.419C258.587 757.661 261.162 756.652 263.85 756.56L243.63 746.87C242.189 746.181 240.624 745.793 239.028 745.728C237.432 745.664 235.84 745.924 234.349 746.494C232.857 747.063 231.496 747.93 230.35 749.042C229.204 750.153 228.295 751.486 227.68 752.96Z" fill="#49466B"/>
<path d="M703.81 447.94L710.56 467.18L722.43 501.07L832.77 815.92H857.38L772.8 501.07L763.7 467.18L758.53 447.94H703.81Z" fill="#441242"/>
<path d="M710.56 467.18L722.43 501.07H772.8L763.7 467.18H710.56Z" fill="#2F073A"/>
<path d="M351.34 447.94L344.59 467.18L332.72 501.07L222.38 815.92H197.77L282.35 501.07L291.45 467.18L296.62 447.94H351.34Z" fill="#441242"/>
<path d="M344.59 467.18L332.72 501.07H282.35L291.45 467.18H344.59Z" fill="#2F073A"/>
<path d="M827.59 481.83H241.42C237.537 481.833 233.812 480.295 231.061 477.554C228.311 474.813 226.761 471.093 226.75 467.21V447.99H842.26V467.21C842.249 471.093 840.699 474.813 837.949 477.554C835.198 480.295 831.473 481.833 827.59 481.83Z" fill="#441242"/>
<path d="M166.28 456.99H902.73C910.153 456.99 916.17 450.973 916.17 443.55C916.17 436.127 910.153 430.11 902.73 430.11H166.28C158.857 430.11 152.84 436.127 152.84 443.55C152.84 450.973 158.857 456.99 166.28 456.99Z" fill="#D8BA9F"/>
<path d="M152.84 443.56C152.843 447.124 154.26 450.541 156.78 453.061C159.299 455.581 162.716 456.997 166.28 457H902.73C906.295 457 909.713 455.584 912.234 453.064C914.754 450.543 916.17 447.125 916.17 443.56C916.174 441.973 915.893 440.398 915.34 438.91C914.389 441.488 912.67 443.712 910.415 445.282C908.16 446.852 905.478 447.692 902.73 447.69H166.28C164.515 447.695 162.766 447.349 161.135 446.672C159.504 445.996 158.024 445.003 156.78 443.75C155.399 442.388 154.339 440.734 153.68 438.91C153.124 440.397 152.84 441.972 152.84 443.56Z" fill="#C89F87"/>
<path d="M819.96 474.03C822.705 474.03 824.93 471.805 824.93 469.06C824.93 466.315 822.705 464.09 819.96 464.09C817.215 464.09 814.99 466.315 814.99 469.06C814.99 471.805 817.215 474.03 819.96 474.03Z" fill="#D8BA9F"/>
<path d="M818.88 475.45C822.227 475.45 824.94 472.737 824.94 469.39C824.94 466.043 822.227 463.33 818.88 463.33C815.533 463.33 812.82 466.043 812.82 469.39C812.82 472.737 815.533 475.45 818.88 475.45Z" fill="#2F073A"/>
<path d="M819.96 474.03C822.705 474.03 824.93 471.805 824.93 469.06C824.93 466.315 822.705 464.09 819.96 464.09C817.215 464.09 814.99 466.315 814.99 469.06C814.99 471.805 817.215 474.03 819.96 474.03Z" fill="#D8BA9F"/>
<path d="M814.99 469.06C814.99 470.386 815.517 471.658 816.454 472.596C817.392 473.533 818.664 474.06 819.99 474.06H820.51C819.325 473.883 818.244 473.286 817.462 472.379C816.68 471.471 816.25 470.313 816.25 469.115C816.25 467.917 816.68 466.759 817.462 465.851C818.244 464.944 819.325 464.347 820.51 464.17C820.337 464.16 820.163 464.16 819.99 464.17C818.683 464.17 817.427 464.681 816.493 465.595C815.558 466.509 815.019 467.753 814.99 469.06Z" fill="#C89F87"/>
<path d="M819.96 471.78C820.212 471.86 820.475 471.901 820.74 471.9C821.493 471.9 822.216 471.601 822.748 471.068C823.281 470.536 823.58 469.813 823.58 469.06C823.58 468.307 823.281 467.584 822.748 467.052C822.216 466.519 821.493 466.22 820.74 466.22C820.475 466.219 820.212 466.26 819.96 466.34C820.556 466.503 821.082 466.858 821.457 467.349C821.833 467.841 822.036 468.442 822.036 469.06C822.036 469.678 821.833 470.279 821.457 470.771C821.082 471.262 820.556 471.617 819.96 471.78Z" fill="#F5EAE4"/>
<path d="M792.16 474.03C794.905 474.03 797.13 471.805 797.13 469.06C797.13 466.315 794.905 464.09 792.16 464.09C789.415 464.09 787.19 466.315 787.19 469.06C787.19 471.805 789.415 474.03 792.16 474.03Z" fill="#D8BA9F"/>
<path d="M791.08 475.45C794.427 475.45 797.14 472.737 797.14 469.39C797.14 466.043 794.427 463.33 791.08 463.33C787.733 463.33 785.02 466.043 785.02 469.39C785.02 472.737 787.733 475.45 791.08 475.45Z" fill="#2F073A"/>
<path d="M792.16 474.03C794.905 474.03 797.13 471.805 797.13 469.06C797.13 466.315 794.905 464.09 792.16 464.09C789.415 464.09 787.19 466.315 787.19 469.06C787.19 471.805 789.415 474.03 792.16 474.03Z" fill="#D8BA9F"/>
<path d="M787.2 469.06C787.2 470.386 787.727 471.658 788.664 472.596C789.602 473.533 790.874 474.06 792.2 474.06H792.72C791.535 473.883 790.453 473.286 789.672 472.379C788.89 471.471 788.46 470.313 788.46 469.115C788.46 467.917 788.89 466.759 789.672 465.851C790.453 464.944 791.535 464.347 792.72 464.17C792.547 464.16 792.373 464.16 792.2 464.17C790.893 464.17 789.637 464.681 788.703 465.595C787.768 466.509 787.229 467.753 787.2 469.06Z" fill="#C89F87"/>
<path d="M792.16 471.78C792.412 471.86 792.675 471.901 792.94 471.9C793.693 471.9 794.416 471.601 794.948 471.068C795.481 470.536 795.78 469.813 795.78 469.06C795.78 468.307 795.481 467.584 794.948 467.052C794.416 466.519 793.693 466.22 792.94 466.22C792.675 466.219 792.412 466.26 792.16 466.34C792.756 466.503 793.283 466.858 793.658 467.349C794.033 467.841 794.236 468.442 794.236 469.06C794.236 469.678 794.033 470.279 793.658 470.771C793.283 471.262 792.756 471.617 792.16 471.78Z" fill="#F5EAE4"/>
<path d="M251.73 474.03C254.475 474.03 256.7 471.805 256.7 469.06C256.7 466.315 254.475 464.09 251.73 464.09C248.985 464.09 246.76 466.315 246.76 469.06C246.76 471.805 248.985 474.03 251.73 474.03Z" fill="#D8BA9F"/>
<path d="M252.81 475.45C256.157 475.45 258.87 472.737 258.87 469.39C258.87 466.043 256.157 463.33 252.81 463.33C249.463 463.33 246.75 466.043 246.75 469.39C246.75 472.737 249.463 475.45 252.81 475.45Z" fill="#2F073A"/>
<path d="M251.73 474.03C254.475 474.03 256.7 471.805 256.7 469.06C256.7 466.315 254.475 464.09 251.73 464.09C248.985 464.09 246.76 466.315 246.76 469.06C246.76 471.805 248.985 474.03 251.73 474.03Z" fill="#D8BA9F"/>
<path d="M256.7 469.06C256.7 470.386 256.173 471.658 255.235 472.596C254.298 473.533 253.026 474.06 251.7 474.06H251.18C252.365 473.883 253.446 473.286 254.228 472.379C255.01 471.471 255.44 470.313 255.44 469.115C255.44 467.917 255.01 466.759 254.228 465.851C253.446 464.944 252.365 464.347 251.18 464.17C251.353 464.16 251.527 464.16 251.7 464.17C253.007 464.17 254.263 464.681 255.197 465.595C256.132 466.509 256.671 467.753 256.7 469.06Z" fill="#C89F87"/>
<path d="M251.73 471.78C251.478 471.86 251.215 471.901 250.95 471.9C250.577 471.9 250.208 471.827 249.863 471.684C249.519 471.541 249.206 471.332 248.942 471.068C248.678 470.804 248.469 470.491 248.326 470.147C248.184 469.802 248.11 469.433 248.11 469.06C248.11 468.687 248.184 468.318 248.326 467.973C248.469 467.629 248.678 467.316 248.942 467.052C249.206 466.788 249.519 466.579 249.863 466.436C250.208 466.293 250.577 466.22 250.95 466.22C251.215 466.219 251.478 466.26 251.73 466.34C251.14 466.51 250.62 466.867 250.251 467.357C249.881 467.848 249.681 468.446 249.681 469.06C249.681 469.674 249.881 470.272 250.251 470.763C250.62 471.253 251.14 471.61 251.73 471.78Z" fill="#F5EAE4"/>
<path d="M279.53 474.03C282.275 474.03 284.5 471.805 284.5 469.06C284.5 466.315 282.275 464.09 279.53 464.09C276.785 464.09 274.56 466.315 274.56 469.06C274.56 471.805 276.785 474.03 279.53 474.03Z" fill="#D8BA9F"/>
<path d="M280.61 475.45C283.957 475.45 286.67 472.737 286.67 469.39C286.67 466.043 283.957 463.33 280.61 463.33C277.263 463.33 274.55 466.043 274.55 469.39C274.55 472.737 277.263 475.45 280.61 475.45Z" fill="#2F073A"/>
<path d="M279.53 474.03C282.275 474.03 284.5 471.805 284.5 469.06C284.5 466.315 282.275 464.09 279.53 464.09C276.785 464.09 274.56 466.315 274.56 469.06C274.56 471.805 276.785 474.03 279.53 474.03Z" fill="#D8BA9F"/>
<path d="M284.49 469.06C284.49 470.386 283.963 471.658 283.025 472.596C282.088 473.533 280.816 474.06 279.49 474.06H278.97C280.155 473.883 281.236 473.286 282.018 472.379C282.8 471.471 283.23 470.313 283.23 469.115C283.23 467.917 282.8 466.759 282.018 465.851C281.236 464.944 280.155 464.347 278.97 464.17C279.143 464.16 279.317 464.16 279.49 464.17C280.797 464.17 282.053 464.681 282.987 465.595C283.922 466.509 284.461 467.753 284.49 469.06Z" fill="#C89F87"/>
<path d="M279.53 471.78C279.278 471.86 279.015 471.901 278.75 471.9C277.997 471.9 277.274 471.601 276.742 471.068C276.209 470.536 275.91 469.813 275.91 469.06C275.91 468.307 276.209 467.584 276.742 467.052C277.274 466.519 277.997 466.22 278.75 466.22C279.015 466.219 279.278 466.26 279.53 466.34C278.934 466.503 278.407 466.858 278.032 467.349C277.657 467.841 277.454 468.442 277.454 469.06C277.454 469.678 277.657 470.279 278.032 470.771C278.407 471.262 278.934 471.617 279.53 471.78Z" fill="#F5EAE4"/>
<path d="M581.878 398.012C587.075 397.536 590.903 392.937 590.427 387.74C589.951 382.543 585.352 378.715 580.155 379.191L550.847 381.873C545.65 382.349 541.822 386.948 542.298 392.145C542.774 397.343 547.373 401.17 552.57 400.695L581.878 398.012Z" fill="#EA8681"/>
<path d="M583.85 415.2C594.134 415.2 602.47 406.864 602.47 396.58C602.47 386.297 594.134 377.96 583.85 377.96C573.566 377.96 565.23 386.297 565.23 396.58C565.23 406.864 573.566 415.2 583.85 415.2Z" fill="#EA8681"/>
<path d="M567.661 404.001L567.661 404.011C567.516 418.574 579.204 430.497 593.767 430.642L707.171 431.77C721.734 431.915 733.657 420.227 733.802 405.664L733.802 405.654C733.947 391.091 722.259 379.168 707.696 379.023L594.292 377.895C579.729 377.75 567.806 389.438 567.661 404.001Z" fill="#EF948C"/>
<path d="M606.315 424.955C617.659 416.034 619.625 399.608 610.706 388.267C601.787 376.925 585.361 374.962 574.017 383.882L556.056 398.007C544.712 406.927 542.746 423.353 551.664 434.695C560.583 446.036 577.009 447.999 588.353 439.079L606.315 424.955Z" fill="#EF948C"/>
<path d="M581.732 401.851C585.835 398.625 586.545 392.684 583.319 388.581C580.093 384.479 574.152 383.768 570.049 386.994L528.458 419.7C524.356 422.926 523.645 428.867 526.871 432.969C530.097 437.072 536.038 437.783 540.141 434.556L581.732 401.851Z" fill="#EF948C"/>
<path d="M581.878 398.012C587.075 397.536 590.903 392.937 590.427 387.74C589.951 382.543 585.352 378.715 580.155 379.191L550.847 381.873C545.65 382.349 541.822 386.948 542.298 392.146C542.774 397.343 547.373 401.171 552.57 400.695L581.878 398.012Z" fill="#EF948C"/>
<path d="M583.85 415.2C594.134 415.2 602.47 406.864 602.47 396.58C602.47 386.297 594.134 377.96 583.85 377.96C573.567 377.96 565.23 386.297 565.23 396.58C565.23 406.864 573.567 415.2 583.85 415.2Z" fill="#EF948C"/>
<path d="M567.661 404.001L567.661 404.011C567.516 418.574 579.204 430.497 593.767 430.642L707.171 431.77C721.734 431.915 733.657 420.227 733.802 405.664L733.802 405.654C733.947 391.091 722.259 379.168 707.696 379.023L594.292 377.895C579.729 377.75 567.806 389.438 567.661 404.001Z" fill="#EF948C"/>
<path d="M606.315 424.955C617.659 416.034 619.625 399.608 610.706 388.267C601.787 376.925 585.361 374.962 574.017 383.882L556.056 398.007C544.712 406.927 542.746 423.353 551.664 434.695C560.583 446.036 577.009 447.999 588.353 439.079L606.315 424.955Z" fill="#EF948C"/>
<path d="M549.13 428.09C553.414 433.537 559.685 437.06 566.566 437.883C573.447 438.707 580.372 436.763 585.82 432.48L588.82 430.11L596.5 424.11L607.32 424.21L704.5 425.21C711.495 425.279 718.231 422.568 723.227 417.671C728.222 412.775 731.069 406.095 731.14 399.1V398.83C731.142 396.693 730.88 394.563 730.36 392.49C732.596 396.436 733.768 400.895 733.76 405.43V405.7C733.692 412.695 730.848 419.376 725.854 424.274C720.86 429.172 714.125 431.887 707.13 431.82L599.13 430.75L588.43 439.16C584.996 441.857 580.942 443.65 576.636 444.377C572.331 445.104 567.912 444.741 563.783 443.321C559.655 441.901 555.947 439.469 553 436.248C550.052 433.027 547.959 429.118 546.91 424.88C547.57 426.004 548.312 427.077 549.13 428.09Z" fill="#F3A6A0"/>
<path d="M581.732 401.851C585.834 398.625 586.545 392.684 583.319 388.581C580.093 384.479 574.152 383.768 570.049 386.994L528.458 419.7C524.355 422.926 523.645 428.867 526.871 432.969C530.097 437.072 536.038 437.783 540.141 434.556L581.732 401.851Z" fill="#EF948C"/>
<path d="M593.088 416.928C596.67 414.112 597.29 408.925 594.474 405.344C591.657 401.762 586.471 401.142 582.889 403.958L570.815 413.453C567.233 416.269 566.613 421.456 569.429 425.037C572.246 428.619 577.432 429.239 581.014 426.423L593.088 416.928Z" fill="#F3A6A0"/>
<path d="M519.39 214.03C534.628 214.03 546.98 201.678 546.98 186.44C546.98 171.202 534.628 158.85 519.39 158.85C504.153 158.85 491.8 171.202 491.8 186.44C491.8 201.678 504.153 214.03 519.39 214.03Z" stroke="white" stroke-width="2.85" stroke-miterlimit="10"/>
<path d="M584.49 214.03C599.728 214.03 612.08 201.678 612.08 186.44C612.08 171.202 599.728 158.85 584.49 158.85C569.253 158.85 556.9 171.202 556.9 186.44C556.9 201.678 569.253 214.03 584.49 214.03Z" stroke="white" stroke-width="2.85" stroke-miterlimit="10"/>
<path d="M546.96 187.52H556.92" stroke="white" stroke-width="2.85" stroke-miterlimit="10"/>
<path d="M291.79 726.83L368.2 757.46L376.83 735.09L302.13 690.61L291.82 717.29L291.79 726.83Z" fill="#141334"/>
<path d="M403.37 421.78H387.73V418.78C387.73 417.417 388.271 416.109 389.235 415.145C390.199 414.182 391.507 413.64 392.87 413.64H398.24C399.603 413.64 400.91 414.182 401.874 415.145C402.838 416.109 403.38 417.417 403.38 418.78V421.78H403.37Z" fill="#ABB2D8"/>
<path d="M419.01 421.78H403.37V418.78C403.37 417.417 403.912 416.109 404.875 415.145C405.839 414.182 407.147 413.64 408.51 413.64H413.88C415.243 413.64 416.551 414.182 417.515 415.145C418.478 416.109 419.02 417.417 419.02 418.78V421.78H419.01Z" fill="#ABB2D8"/>
<path d="M434.66 421.78H419.02V418.78C419.02 417.417 419.561 416.109 420.525 415.145C421.489 414.182 422.797 413.64 424.16 413.64H429.53C430.893 413.64 432.201 414.182 433.164 415.145C434.128 416.109 434.67 417.417 434.67 418.78V421.78H434.66Z" fill="#ABB2D8"/>
<path d="M450.3 421.78H434.66V418.78C434.66 417.417 435.202 416.109 436.166 415.145C437.129 414.182 438.437 413.64 439.8 413.64H445.17C446.533 413.64 447.841 414.182 448.805 415.145C449.769 416.109 450.31 417.417 450.31 418.78V421.78H450.3Z" fill="#ABB2D8"/>
<path d="M465.94 421.78H450.3V418.78C450.3 417.417 450.841 416.109 451.805 415.145C452.769 414.182 454.077 413.64 455.44 413.64H460.81C462.173 413.64 463.481 414.182 464.444 415.145C465.408 416.109 465.95 417.417 465.95 418.78V421.78H465.94Z" fill="#ABB2D8"/>
<path d="M481.59 421.78H465.95V418.78C465.95 417.417 466.492 416.109 467.456 415.145C468.419 414.182 469.727 413.64 471.09 413.64H476.45C477.813 413.64 479.121 414.182 480.085 415.145C481.049 416.109 481.59 417.417 481.59 418.78V421.78Z" fill="#ABB2D8"/>
<path d="M497.22 421.78H481.58V418.78C481.58 417.417 482.122 416.109 483.085 415.145C484.049 414.182 485.357 413.64 486.72 413.64H492.09C493.453 413.64 494.761 414.182 495.725 415.145C496.688 416.109 497.23 417.417 497.23 418.78V421.78H497.22Z" fill="#ABB2D8"/>
<path d="M345.85 430.11H511.65C515.168 430.11 518.02 427.258 518.02 423.74V423.73C518.02 420.212 515.168 417.36 511.65 417.36H345.85C342.332 417.36 339.48 420.212 339.48 423.73V423.74C339.48 427.258 342.332 430.11 345.85 430.11Z" fill="#5D6295"/>
<path d="M388.66 430.11H239.66C236.625 430.11 233.678 429.097 231.284 427.231C228.891 425.365 227.19 422.753 226.45 419.81L197.45 304.45C196.945 302.44 196.905 300.341 197.334 298.313C197.762 296.285 198.647 294.382 199.922 292.747C201.197 291.113 202.827 289.791 204.69 288.882C206.552 287.972 208.597 287.5 210.67 287.5H342.15C345.185 287.5 348.133 288.513 350.526 290.379C352.919 292.245 354.62 294.857 355.36 297.8L388.66 430.11Z" fill="#666DA2"/>
<path d="M197.44 304.46L226.44 419.81C227.183 422.754 228.886 425.366 231.281 427.234C233.675 429.101 236.624 430.117 239.66 430.12H388.66L385.45 417.37H267.75C264.713 417.368 261.764 416.353 259.369 414.486C256.974 412.618 255.271 410.005 254.53 407.06L225.53 291.71C225.185 290.335 225.053 288.915 225.14 287.5H210.66C208.587 287.501 206.542 287.975 204.679 288.886C202.817 289.796 201.186 291.119 199.912 292.754C198.637 294.389 197.752 296.293 197.324 298.322C196.896 300.35 196.935 302.449 197.44 304.46Z" fill="#5D6295"/>
<path d="M283.72 370.08C287.84 370.08 291.18 366.74 291.18 362.62C291.18 358.5 287.84 355.16 283.72 355.16C279.6 355.16 276.26 358.5 276.26 362.62C276.26 366.74 279.6 370.08 283.72 370.08Z" fill="#ABB2D8"/>
<path d="M273.74 373.78C274.924 375.609 276.503 377.151 278.36 378.291C280.218 379.431 282.307 380.141 284.474 380.369C286.641 380.597 288.832 380.338 290.886 379.609C292.94 378.881 294.805 377.703 296.345 376.16C297.884 374.618 299.059 372.75 299.783 370.695C300.508 368.639 300.763 366.448 300.53 364.281C300.298 362.114 299.584 360.027 298.44 358.172C297.296 356.316 295.752 354.741 293.92 353.56C295.703 356.366 296.476 359.696 296.112 363.001C295.748 366.305 294.268 369.387 291.918 371.738C289.567 374.088 286.485 375.568 283.181 375.932C279.876 376.296 276.546 375.523 273.74 373.74V373.78Z" fill="#ABB2D8"/>
<path d="M575.21 762.41H660.93L669.67 740.38L559.61 723.1L575.21 762.41Z" fill="#332D52"/>
<path d="M653.81 758.58C656.765 758.58 659.16 756.185 659.16 753.23C659.16 750.275 656.765 747.88 653.81 747.88C650.855 747.88 648.46 750.275 648.46 753.23C648.46 756.185 650.855 758.58 653.81 758.58Z" fill="#141334"/>
<path d="M654.12 758.58C656.274 758.58 658.02 756.834 658.02 754.68C658.02 752.526 656.274 750.78 654.12 750.78C651.966 750.78 650.22 752.526 650.22 754.68C650.22 756.834 651.966 758.58 654.12 758.58Z" fill="#666DA2"/>
<path d="M654.08 757.23C654.252 757.262 654.426 757.278 654.6 757.28C655.263 757.239 655.885 756.947 656.34 756.463C656.795 755.979 657.049 755.339 657.049 754.675C657.049 754.011 656.795 753.371 656.34 752.887C655.885 752.403 655.263 752.111 654.6 752.07C654.425 752.07 654.25 752.09 654.08 752.13C654.662 752.257 655.183 752.579 655.556 753.043C655.93 753.507 656.134 754.084 656.134 754.68C656.134 755.276 655.93 755.853 655.556 756.317C655.183 756.781 654.662 757.103 654.08 757.23Z" fill="#332D52"/>
<path d="M654.72 751.42C654.5 751.371 654.275 751.347 654.05 751.35C653.2 751.397 652.4 751.767 651.814 752.386C651.229 753.004 650.902 753.823 650.902 754.675C650.902 755.527 651.229 756.346 651.814 756.964C652.4 757.583 653.2 757.953 654.05 758C654.275 758.003 654.5 757.979 654.72 757.93C653.976 757.769 653.31 757.359 652.831 756.766C652.353 756.174 652.093 755.436 652.093 754.675C652.093 753.914 652.353 753.176 652.831 752.583C653.31 751.991 653.976 751.581 654.72 751.42Z" fill="#9DA5D1"/>
<path d="M285.39 732.04L364.95 763.93L381.26 746.74L285.53 689.75L285.39 732.04Z" fill="#262344"/>
<path d="M362.18 754.89C365.135 754.89 367.53 752.495 367.53 749.54C367.53 746.585 365.135 744.19 362.18 744.19C359.225 744.19 356.83 746.585 356.83 749.54C356.83 752.495 359.225 754.89 362.18 754.89Z" fill="#141334"/>
<path d="M362.49 754.89C364.644 754.89 366.39 753.144 366.39 750.99C366.39 748.836 364.644 747.09 362.49 747.09C360.336 747.09 358.59 748.836 358.59 750.99C358.59 753.144 360.336 754.89 362.49 754.89Z" fill="#666DA2"/>
<path d="M362.49 753.56C362.66 753.6 362.835 753.62 363.01 753.62C363.673 753.579 364.295 753.287 364.75 752.802C365.205 752.318 365.458 751.679 365.458 751.015C365.458 750.351 365.205 749.711 364.75 749.227C364.295 748.743 363.673 748.451 363.01 748.41C362.837 748.395 362.663 748.395 362.49 748.41C363.072 748.537 363.593 748.859 363.966 749.323C364.34 749.787 364.544 750.364 364.544 750.96C364.544 751.556 364.34 752.133 363.966 752.597C363.593 753.061 363.072 753.383 362.49 753.51V753.56Z" fill="#332D52"/>
<path d="M363.08 747.73C362.86 747.681 362.635 747.658 362.41 747.66C361.56 747.707 360.76 748.077 360.174 748.696C359.589 749.314 359.262 750.133 359.262 750.985C359.262 751.837 359.589 752.656 360.174 753.274C360.76 753.893 361.56 754.263 362.41 754.31C362.635 754.313 362.86 754.289 363.08 754.24C362.336 754.079 361.67 753.669 361.192 753.077C360.714 752.484 360.453 751.746 360.453 750.985C360.453 750.224 360.714 749.486 361.192 748.894C361.67 748.301 362.336 747.891 363.08 747.73Z" fill="#9DA5D1"/>
</svg>
