<svg width="704" height="713" viewBox="0 0 704 713" fill="none" xmlns="http://www.w3.org/2000/svg">
<path d="M167.429 156.614L0.858887 219.681L167.429 282.749L334 219.681L167.429 156.614Z" fill="#34629B"/>
<path d="M0.858887 219.681L167.429 282.749L334 219.681" stroke="black" stroke-width="1.5" stroke-miterlimit="10"/>
<path d="M167.429 78.4883L0.858887 141.556L167.429 204.623L334 141.556L167.429 78.4883Z" fill="#EDEEEF"/>
<path d="M0.858887 141.557L167.429 204.624L334 141.557" stroke="black" stroke-width="1.5" stroke-miterlimit="10"/>
<path d="M167.429 0.363281L0.858887 63.4313L167.429 126.499L334 63.4313L167.429 0.363281Z" fill="#6E8EC8"/>
<path d="M0.858887 63.4316L167.429 126.5L334 63.4316" stroke="black" stroke-width="1.5" stroke-miterlimit="10"/>
<path d="M79.0152 638.482L102.64 660.454L165.641 574.173L193.992 599.585L343.619 388.87L475.922 638.482L512.147 595.61L578.299 711.936H23.8892L79.0152 638.482Z" fill="#F4F4F4"/>
<path d="M598.169 711.937H4.01904" stroke="black" stroke-width="1.5" stroke-miterlimit="10"/>
<path d="M442.787 273.218C442.787 273.218 335.212 470.667 299.214 666.007L285.946 674.366L349.392 696.88C349.392 696.88 489.936 469.844 498.336 441.021C506.735 412.198 492.336 273.218 492.336 273.218" fill="#6E8EC8"/>
<path d="M470.647 362.528C470.647 362.528 453.384 457.321 458.112 516.51C476.223 485.31 490.931 458.814 496.414 446.097L470.647 362.528Z" fill="black"/>
<path d="M473.911 60.4157V97.1039L516.347 108.274V46.361L473.911 35.1904V60.4157Z" fill="#EDEEEF"/>
<path d="M497.883 73.1091C498.51 73.1091 499.018 72.5651 499.018 71.8939C499.018 71.2228 498.51 70.6787 497.883 70.6787C497.257 70.6787 496.749 71.2228 496.749 71.8939C496.749 72.5651 497.257 73.1091 497.883 73.1091Z" fill="black"/>
<path d="M480.455 73.1091C481.082 73.1091 481.59 72.5651 481.59 71.8939C481.59 71.2228 481.082 70.6787 480.455 70.6787C479.829 70.6787 479.321 71.2228 479.321 71.8939C479.321 72.5651 479.829 73.1091 480.455 73.1091Z" fill="black"/>
<path d="M485.568 79.1435V60.416H476.808" stroke="black" stroke-width="1.5" stroke-miterlimit="10"/>
<path d="M500.021 60.416H491.261" stroke="black" stroke-width="1.5" stroke-miterlimit="10"/>
<path d="M513.552 70.0111V76.5145C514.331 76.5145 515.102 76.3502 515.822 76.031C516.541 75.7118 517.195 75.2439 517.746 74.6541C518.297 74.0642 518.734 73.364 519.032 72.5934C519.33 71.8227 519.483 70.9967 519.483 70.1626C519.483 69.9677 519.475 69.7749 519.459 69.5844C519.127 65.6401 513.552 66.0507 513.552 70.0111Z" fill="#EDEEEF"/>
<path d="M513.552 76.515C514.331 76.515 515.102 76.3507 515.822 76.0315C516.541 75.7123 517.195 75.2444 517.746 74.6546C518.297 74.0648 518.734 73.3645 519.032 72.5939C519.33 71.8232 519.483 70.9972 519.483 70.1631" stroke="black" stroke-width="1.5" stroke-miterlimit="10"/>
<path d="M508.425 106.189L516.348 108.275" stroke="black" stroke-width="1.5" stroke-miterlimit="10"/>
<path d="M485.568 79.1582L489.4 80.1667" stroke="black" stroke-width="1.5" stroke-miterlimit="10" stroke-linecap="round"/>
<path d="M473.911 70.6787C473.911 70.6787 465.393 97.4296 476.808 106.189C488.224 114.948 522.168 109.845 512.96 73.9436" stroke="black" stroke-width="1.5" stroke-miterlimit="10"/>
<path d="M478.953 79.6378C478.795 79.9066 478.706 80.2146 478.693 80.5316C478.68 80.8487 478.744 81.164 478.878 81.4465C479.013 81.7291 479.214 81.9694 479.462 82.1437C479.71 82.318 479.995 82.4205 480.291 82.4411C482.745 83.0278 486.454 77.8547 489.664 80.671C489.664 80.671 490.383 76.6962 498.375 79.0737C506.368 81.4512 503.624 75.7998 503.624 75.7998" stroke="black" stroke-width="1.5" stroke-miterlimit="10"/>
<path d="M488.71 84.2418C490.156 84.9544 491.808 85.0224 493.301 84.4309C494.794 83.8394 496.007 82.6369 496.672 81.0879" stroke="#FF6498" stroke-width="1.5" stroke-linecap="round" stroke-linejoin="round"/>
<path d="M470.857 47.4902C470.857 47.4902 473.735 60.7441 500.02 52.8699C500.02 52.8699 501.61 60.0883 506.135 60.4162C510.659 60.7441 510.471 65.5898 510.471 65.5898" stroke="black" stroke-width="1.5" stroke-miterlimit="10"/>
<path d="M473.911 60.4157C473.911 60.4157 446.473 35.0661 478.7 33.7809C510.927 32.4957 528.375 43.1982 516.518 66.8354" stroke="black" stroke-width="1.5" stroke-miterlimit="10"/>
<path d="M442.788 173.972V273.218L574.062 307.773V197.241C574.062 178.196 568.099 159.701 557.128 144.713C546.157 129.725 530.81 119.11 513.542 114.564H513.542C505.131 112.35 496.36 112.213 487.892 114.165C479.425 116.116 471.482 120.104 464.666 125.828C457.85 131.551 452.338 138.859 448.548 147.2C444.757 155.541 442.788 164.696 442.788 173.972H442.788Z" fill="#EDEEEF"/>
<path d="M574.062 307.773L470.857 280.606C470.857 280.606 463.912 549.303 504.66 695.23L497.883 709.794H565.532C565.532 709.794 578.991 366.561 574.062 307.773Z" fill="#6E8EC8"/>
<path d="M470.857 280.607C470.857 280.607 463.912 549.304 504.66 695.231" stroke="black" stroke-width="1.5" stroke-miterlimit="10"/>
<path d="M532.901 122.652C532.901 122.652 611.86 172.583 609.46 255.692C607.06 338.802 551.06 372.217 551.06 372.217" stroke="black" stroke-width="1.5" stroke-miterlimit="10"/>
<path d="M530.26 326.379C530.26 326.379 541.86 371.789 561.46 381.214" stroke="black" stroke-width="1.5" stroke-miterlimit="10"/>
<path d="M519.483 206.569L561.46 261.405L531.313 330.135" stroke="black" stroke-width="1.5" stroke-miterlimit="10"/>
<path d="M533.971 324.073L561.46 261.404L529.27 219.354C529.27 219.354 548.882 282.213 533.971 324.073Z" fill="black"/>
<path d="M457.292 133.231L401.035 180.95C401.035 180.95 336.188 92.4546 321.86 87.7592C307.533 83.0638 290.091 92.9 290.091 92.9V98.7116L306.681 101.942C306.681 101.942 304.237 122.621 314.794 132.313C314.794 132.313 347.522 260.43 396.66 260.833C430.26 261.108 442.788 251.122 442.788 251.122" stroke="black" stroke-width="1.5" stroke-miterlimit="10"/>
<path d="M349.801 711.937H703.362" stroke="black" stroke-width="1.5" stroke-miterlimit="10"/>
<path d="M661.546 708.956C661.546 708.956 667.638 697.413 652.173 694.903C642.984 693.382 633.58 694.598 624.993 698.417C624.993 698.417 635.771 684.363 618.901 678.34C602.03 672.318 584.691 686.371 584.691 686.371C584.691 686.371 601.561 652.744 588.44 650.234C575.318 647.725 568.289 662.28 568.289 662.28C568.289 662.28 569.695 620.622 542.514 619.618C515.334 618.614 518.146 672.82 518.146 672.82C518.146 672.82 506.43 648.728 486.748 647.725C467.065 646.721 476.907 688.079 476.907 688.079C476.907 688.079 473.158 678.34 460.036 677.337C446.915 676.333 447.852 688.112 447.852 688.112C447.852 688.112 430.981 662.782 412.236 664.287C393.491 665.793 401.458 690.888 401.458 690.888C382.244 689.382 378.026 711.936 378.026 711.936H675.136L661.546 708.956Z" fill="black"/>
</svg>
