<svg width="560" height="420" viewBox="0 0 560 420" fill="none" xmlns="http://www.w3.org/2000/svg">
<path fill-rule="evenodd" clip-rule="evenodd" d="M63 326H440V104C440 101.878 439.157 99.8434 437.657 98.3431C436.157 96.8429 434.122 96 432 96H71C68.8783 96 66.8434 96.8429 65.3431 98.3431C63.8429 99.8434 63 101.878 63 104V326Z" fill="white" stroke="#7E818D"/>
<path fill-rule="evenodd" clip-rule="evenodd" d="M108.75 289H440V104C440 101.878 439.157 99.8434 437.657 98.3431C436.157 96.8429 434.122 96 432 96H71C68.8783 96 66.8434 96.8429 65.3431 98.3431C63.8429 99.8434 63 101.878 63 104V289H99.361" fill="#FBFBFB"/>
<path d="M108.75 289H440V104C440 101.878 439.157 99.8434 437.657 98.3431C436.157 96.8429 434.122 96 432 96H71C68.8783 96 66.8434 96.8429 65.3431 98.3431C63.8429 99.8434 63 101.878 63 104V289H99.361" stroke="#7E818D"/>
<path fill-rule="evenodd" clip-rule="evenodd" d="M217 381H283.665L274.833 326H225.833L217 381Z" fill="white" stroke="#7E818D"/>
<path d="M191 381H310.004" stroke="#7E818D" stroke-linecap="square"/>
<g filter="url(#filter0_d)">
<path d="M39.2231 319.302C44.6786 315.893 46.3377 308.707 42.9287 303.251C39.5197 297.796 32.3336 296.137 26.8781 299.546C21.4226 302.955 19.7636 310.141 23.1726 315.596C26.5815 321.052 33.7676 322.711 39.2231 319.302Z" fill="black"/>
</g>
<path d="M39.2231 319.302C44.6786 315.893 46.3377 308.707 42.9287 303.251C39.5197 297.796 32.3336 296.137 26.8781 299.546C21.4226 302.955 19.7636 310.141 23.1726 315.596C26.5815 321.052 33.7676 322.711 39.2231 319.302Z" fill="#D2ECFE"/>
<path d="M35.0929 303.592L33.7687 313.009L28.5996 312.213" stroke="#7E818D" stroke-linecap="round"/>
<path fill-rule="evenodd" clip-rule="evenodd" d="M98.224 243.57C98.224 263.138 82.363 278.999 62.796 278.999C43.228 278.999 27.367 263.139 27.367 243.57C27.367 224.001 43.227 208.142 62.796 208.142C82.363 208.142 98.224 224.002 98.224 243.57" fill="#F0F0F0"/>
<path d="M66.224 224.142L59.3671 262.999M51.715 254.999L40.287 243.572L51.715 232.142V254.999ZM73.876 254.998L85.305 243.572L73.876 232.143V254.998Z" stroke="#7E818D"/>
<g filter="url(#filter1_i)">
<path d="M259.75 118.521C268.598 113.413 271.63 102.098 266.522 93.2499C261.413 84.4015 250.098 81.3698 241.25 86.4785C232.402 91.5871 229.37 102.902 234.479 111.75C239.587 120.598 250.902 123.63 259.75 118.521Z" fill="black"/>
</g>
<path d="M259.75 118.521C268.598 113.413 271.63 102.098 266.522 93.2499C261.413 84.4015 250.098 81.3698 241.25 86.4785C232.402 91.5871 229.37 102.902 234.479 111.75C239.587 120.598 250.902 123.63 259.75 118.521Z" fill="white" stroke="#7E818D"/>
<path fill-rule="evenodd" clip-rule="evenodd" d="M240.966 101.736L256.879 92.5483L259.969 103.303L246.395 111.14" fill="white"/>
<path fill-rule="evenodd" clip-rule="evenodd" d="M241.649 101.919L246.578 110.456L259.38 103.065L256.575 93.3013L241.649 101.919Z" stroke="#7E818D"/>
<path d="M239.723 98.9278L247.866 113.032M247.866 113.032L258.665 106.797L247.866 113.032ZM237.45 100.24L239.723 98.9278L237.45 100.24Z" stroke="#7E818D" stroke-linecap="square"/>
<g filter="url(#filter2_i)">
<path d="M290.368 85.8905C301.497 93.3967 316.603 90.4604 324.109 79.332C331.615 68.2036 328.679 53.0972 317.551 45.591C306.422 38.0848 291.316 41.0212 283.81 52.1496C276.303 63.278 279.24 78.3843 290.368 85.8905Z" fill="black"/>
</g>
<path d="M290.368 85.8905C301.497 93.3967 316.603 90.4604 324.109 79.332C331.615 68.2036 328.679 53.0972 317.551 45.591C306.422 38.0848 291.316 41.0212 283.81 52.1496C276.303 63.278 279.24 78.3843 290.368 85.8905Z" fill="#D2ECFE" stroke="#7E818D"/>
<path fill-rule="evenodd" clip-rule="evenodd" d="M299.371 54.0432L319.384 67.5422L308.466 77.383L291.395 65.8686" fill="white"/>
<path fill-rule="evenodd" clip-rule="evenodd" d="M299.506 54.7373L292.089 65.7337L308.421 76.7498L318.574 67.5988L299.506 54.7373Z" stroke="#7E818D"/>
<path d="M301.971 50.9576L290.006 68.6965M290.006 68.6965L303.587 77.8572L290.006 68.6965ZM299.112 49.0289L301.972 50.9581L299.112 49.0289Z" stroke="#7E818D" stroke-linecap="square"/>
<g filter="url(#filter3_d)">
<path d="M108.898 163.989C120.523 157.278 124.506 142.413 117.794 130.788C111.083 119.163 96.2179 115.18 84.593 121.892C72.9681 128.603 68.9851 143.468 75.6968 155.093C82.4084 166.718 97.2731 170.701 108.898 163.989Z" fill="black"/>
</g>
<path d="M108.898 163.989C120.523 157.278 124.506 142.413 117.794 130.788C111.083 119.163 96.2179 115.18 84.593 121.892C72.9681 128.603 68.9851 143.468 75.6968 155.093C82.4084 166.718 97.2731 170.701 108.898 163.989Z" fill="#D2ECFE"/>
<path fill-rule="evenodd" clip-rule="evenodd" d="M84.2205 141.936L105.126 129.866L109.185 143.994L91.3525 154.289" fill="white"/>
<path fill-rule="evenodd" clip-rule="evenodd" d="M84.9034 142.119L91.5354 153.606L108.596 143.756L104.822 130.619L84.9034 142.119Z" stroke="#7E818D"/>
<path d="M82.5868 138.247L93.2853 156.777M93.2853 156.777L107.473 148.586L93.2853 156.777ZM79.5999 139.971L82.5877 138.246L79.5999 139.971Z" stroke="#7E818D" stroke-linecap="square"/>
<path fill-rule="evenodd" clip-rule="evenodd" d="M140 133.962H362V287H140V133.962Z" fill="#F3F3F3"/>
<path d="M140.974 134.943H361.034" stroke="#7E818D" stroke-linecap="square"/>
<path fill-rule="evenodd" clip-rule="evenodd" d="M149.737 165.354H336.684V232.064H149.737V165.354Z" fill="white"/>
<path d="M186.737 226.177C188.888 226.177 190.632 224.42 190.632 222.253C190.632 220.086 188.888 218.329 186.737 218.329C184.586 218.329 182.842 220.086 182.842 222.253C182.842 224.42 184.586 226.177 186.737 226.177Z" fill="white" stroke="#7E818D"/>
<path d="M206.211 226.177C208.362 226.177 210.106 224.42 210.106 222.253C210.106 220.086 208.362 218.329 206.211 218.329C204.06 218.329 202.316 220.086 202.316 222.253C202.316 224.42 204.06 226.177 206.211 226.177Z" fill="white" stroke="#7E818D"/>
<path fill-rule="evenodd" clip-rule="evenodd" d="M179.526 179.089H229.58L221.563 210.48H169.296" fill="white"/>
<path fill-rule="evenodd" clip-rule="evenodd" d="M179.89 179.589L169.984 209.98H221.174L228.934 179.588L179.89 179.589Z" stroke="#7E818D"/>
<path d="M259.763 162.411V235.006M176.026 217.348H213.026H176.026ZM168.237 170.26H176.027H168.237ZM176.026 170.26V217.348V170.26Z" stroke="#7E818D" stroke-linecap="square"/>
<path d="M296.763 224.215C310.207 224.215 321.105 213.235 321.105 199.69C321.105 186.145 310.207 175.165 296.763 175.165C283.319 175.165 272.421 186.145 272.421 199.69C272.421 213.235 283.319 224.215 296.763 224.215Z" fill="#D2ECFE"/>
<path d="M305.526 200.67H288M296.763 191.842V209.582V191.842Z" stroke="#7E818D" stroke-linecap="square"/>
<path fill-rule="evenodd" clip-rule="evenodd" d="M268.526 245.797H336.684V265.417H268.526V245.797Z" fill="#7E818D"/>
<g filter="url(#filter4_i)">
<path d="M394.032 253L338 276.66V332.85C338 359.27 390.89 388.17 394 389C397.112 388.169 450 357.25 450 335.808V276.659L394.032 253Z" fill="black"/>
</g>
<path d="M394.032 253L338 276.66V332.85C338 359.27 390.89 388.17 394 389C397.112 388.169 450 357.25 450 335.808V276.659L394.032 253Z" fill="#D2ECFE" stroke="#7E818D" stroke-linejoin="round"/>
<path d="M370 324.26L386.124 342L425 293" stroke="#7E818D" stroke-linejoin="round"/>
<path fill-rule="evenodd" clip-rule="evenodd" d="M458.824 61H528V183H435.765V84.29H458.824V61Z" fill="#D2ECFE"/>
<path fill-rule="evenodd" clip-rule="evenodd" d="M459.482 61V84.87H435.765L459.482 61Z" fill="#D2ECFE"/>
<path fill-rule="evenodd" clip-rule="evenodd" d="M458.982 62.213L436.966 84.37H458.982V62.213Z" stroke="#7F828E"/>
<path d="M492.988 126.641H507.735M446.857 96.141H519.543H446.857ZM446.857 106.75H519.543H446.857ZM446.848 135.924H464.21H446.848ZM469.282 135.924H477.435H469.282ZM482.435 135.924H515.589H482.435ZM446.859 116.033H507.692H446.859ZM446.855 126.641H485.349H446.855Z" stroke="#7F828E" stroke-linecap="square"/>
<path fill-rule="evenodd" clip-rule="evenodd" d="M536.5 113.5V157.603L539.953 161.33L543.406 157.603V113.5H536.5Z" stroke="#7F828E"/>
<path fill-rule="evenodd" clip-rule="evenodd" d="M536 105H543.906V111.63H536V105Z" fill="#D8D8D8"/>
<path fill-rule="evenodd" clip-rule="evenodd" d="M536.5 105.5H543.406V111.13H536.5V105.5Z" stroke="#7F828E"/>
<g filter="url(#filter5_i)">
<path d="M410 172H469C469.796 172 470.559 172.316 471.121 172.879C471.684 173.441 472 174.204 472 175V209C472 209.796 471.684 210.559 471.121 211.121C470.559 211.684 469.796 212 469 212H410C409.204 212 408.441 211.684 407.879 211.121C407.316 210.559 407 209.796 407 209V175C407 174.204 407.316 173.441 407.879 172.879C408.441 172.316 409.204 172 410 172V172Z" fill="black"/>
</g>
<path d="M410 172H469C469.796 172 470.559 172.316 471.121 172.879C471.684 173.441 472 174.204 472 175V209C472 209.796 471.684 210.559 471.121 211.121C470.559 211.684 469.796 212 469 212H410C409.204 212 408.441 211.684 407.879 211.121C407.316 210.559 407 209.796 407 209V175C407 174.204 407.316 173.441 407.879 172.879C408.441 172.316 409.204 172 410 172V172Z" fill="white"/>
<path fill-rule="evenodd" clip-rule="evenodd" d="M410 172.5C409.672 172.5 409.347 172.565 409.043 172.69C408.74 172.816 408.464 173 408.232 173.232C407.763 173.701 407.5 174.337 407.5 175V209C407.5 209.663 407.763 210.299 408.232 210.768C408.464 211 408.74 211.184 409.043 211.31C409.347 211.435 409.672 211.5 410 211.5H469C469.663 211.5 470.299 211.237 470.768 210.768C471.237 210.299 471.5 209.663 471.5 209V175C471.5 174.672 471.435 174.347 471.31 174.043C471.184 173.74 471 173.464 470.768 173.232C470.536 173 470.26 172.816 469.957 172.69C469.653 172.565 469.328 172.5 469 172.5H410Z" stroke="#7E818D"/>
<path fill-rule="evenodd" clip-rule="evenodd" d="M407 192H472V202.667H407V192Z" fill="#7E818D"/>
<path d="M416.816 184.667H426.367M416.81 179.333H435.66H416.81Z" stroke="#7E818D" stroke-linecap="square"/>
<defs>
<filter id="filter0_d" x="17.4011" y="293.774" width="31.2991" height="31.2991" filterUnits="userSpaceOnUse" color-interpolation-filters="sRGB">
<feFlood flood-opacity="0" result="BackgroundImageFix"/>
<feColorMatrix in="SourceAlpha" type="matrix" values="0 0 0 0 0 0 0 0 0 0 0 0 0 0 0 0 0 0 127 0"/>
<feOffset/>
<feGaussianBlur stdDeviation="2"/>
<feColorMatrix type="matrix" values="0 0 0 0 1 0 0 0 0 1 0 0 0 0 1 0 0 0 1 0"/>
<feBlend mode="normal" in2="BackgroundImageFix" result="effect1_dropShadow"/>
<feBlend mode="normal" in="SourceGraphic" in2="effect1_dropShadow" result="shape"/>
</filter>
<filter id="filter1_i" x="231.997" y="83.9968" width="37.0062" height="37.0062" filterUnits="userSpaceOnUse" color-interpolation-filters="sRGB">
<feFlood flood-opacity="0" result="BackgroundImageFix"/>
<feBlend mode="normal" in="SourceGraphic" in2="BackgroundImageFix" result="shape"/>
<feColorMatrix in="SourceAlpha" type="matrix" values="0 0 0 0 0 0 0 0 0 0 0 0 0 0 0 0 0 0 127 0" result="hardAlpha"/>
<feOffset/>
<feGaussianBlur stdDeviation="2"/>
<feComposite in2="hardAlpha" operator="arithmetic" k2="-1" k3="1"/>
<feColorMatrix type="matrix" values="0 0 0 0 1 0 0 0 0 1 0 0 0 0 1 0 0 0 1 0"/>
<feBlend mode="normal" in2="shape" result="effect1_innerShadow"/>
</filter>
<filter id="filter2_i" x="279.652" y="41.4333" width="48.6149" height="48.6149" filterUnits="userSpaceOnUse" color-interpolation-filters="sRGB">
<feFlood flood-opacity="0" result="BackgroundImageFix"/>
<feBlend mode="normal" in="SourceGraphic" in2="BackgroundImageFix" result="shape"/>
<feColorMatrix in="SourceAlpha" type="matrix" values="0 0 0 0 0 0 0 0 0 0 0 0 0 0 0 0 0 0 127 0" result="hardAlpha"/>
<feOffset/>
<feGaussianBlur stdDeviation="2"/>
<feComposite in2="hardAlpha" operator="arithmetic" k2="-1" k3="1"/>
<feColorMatrix type="matrix" values="0 0 0 0 1 0 0 0 0 1 0 0 0 0 1 0 0 0 1 0"/>
<feBlend mode="normal" in2="shape" result="effect1_innerShadow"/>
</filter>
<filter id="filter3_d" x="68.4365" y="114.631" width="56.6181" height="56.6181" filterUnits="userSpaceOnUse" color-interpolation-filters="sRGB">
<feFlood flood-opacity="0" result="BackgroundImageFix"/>
<feColorMatrix in="SourceAlpha" type="matrix" values="0 0 0 0 0 0 0 0 0 0 0 0 0 0 0 0 0 0 127 0"/>
<feOffset/>
<feGaussianBlur stdDeviation="2"/>
<feColorMatrix type="matrix" values="0 0 0 0 1 0 0 0 0 1 0 0 0 0 1 0 0 0 1 0"/>
<feBlend mode="normal" in2="BackgroundImageFix" result="effect1_dropShadow"/>
<feBlend mode="normal" in="SourceGraphic" in2="effect1_dropShadow" result="shape"/>
</filter>
<filter id="filter4_i" x="338" y="253" width="112" height="136" filterUnits="userSpaceOnUse" color-interpolation-filters="sRGB">
<feFlood flood-opacity="0" result="BackgroundImageFix"/>
<feBlend mode="normal" in="SourceGraphic" in2="BackgroundImageFix" result="shape"/>
<feColorMatrix in="SourceAlpha" type="matrix" values="0 0 0 0 0 0 0 0 0 0 0 0 0 0 0 0 0 0 127 0" result="hardAlpha"/>
<feOffset/>
<feGaussianBlur stdDeviation="2"/>
<feComposite in2="hardAlpha" operator="arithmetic" k2="-1" k3="1"/>
<feColorMatrix type="matrix" values="0 0 0 0 1 0 0 0 0 1 0 0 0 0 1 0 0 0 1 0"/>
<feBlend mode="normal" in2="shape" result="effect1_innerShadow"/>
</filter>
<filter id="filter5_i" x="407" y="172" width="65" height="40" filterUnits="userSpaceOnUse" color-interpolation-filters="sRGB">
<feFlood flood-opacity="0" result="BackgroundImageFix"/>
<feBlend mode="normal" in="SourceGraphic" in2="BackgroundImageFix" result="shape"/>
<feColorMatrix in="SourceAlpha" type="matrix" values="0 0 0 0 0 0 0 0 0 0 0 0 0 0 0 0 0 0 127 0" result="hardAlpha"/>
<feOffset/>
<feGaussianBlur stdDeviation="2"/>
<feComposite in2="hardAlpha" operator="arithmetic" k2="-1" k3="1"/>
<feColorMatrix type="matrix" values="0 0 0 0 1 0 0 0 0 1 0 0 0 0 1 0 0 0 1 0"/>
<feBlend mode="normal" in2="shape" result="effect1_innerShadow"/>
</filter>
</defs>
</svg>
